<?xml version="1.0" encoding="UTF-8"?>
<svg width="40px" height="41px" viewBox="0 0 40 41" version="1.1" xmlns="http://www.w3.org/2000/svg" xmlns:xlink="http://www.w3.org/1999/xlink">
    <title>1698BC22-CD7C-4546-B2E8-849E6B946D2F</title>
    <defs>
        <linearGradient x1="14.6452609%" y1="14.644675%" x2="85.3549289%" y2="85.3553531%" id="linearGradient-1">
            <stop stop-color="#0095D4" offset="0%"></stop>
            <stop stop-color="#99EDE8" offset="100%"></stop>
        </linearGradient>
    </defs>
    <g id="Page-1" stroke="none" stroke-width="1" fill="none" fill-rule="evenodd">
        <g id="03_SAISIE-TABULAIRE" transform="translate(-221.000000, -288.000000)">
            <g id="A-valider-du" transform="translate(221.000000, 288.000000)">
                <g id="Picto-date-à-valider">
                    <path d="M7.43613793,26.0278621 C7.43613793,31.3602759 11.7588966,35.6830345 17.0913103,35.6830345 L17.0913103,35.6830345 C22.4234483,35.6830345 26.7462069,31.3602759 26.7462069,26.0278621 L26.7462069,26.0278621 C26.7462069,20.6954483 22.4234483,16.3726897 17.0913103,16.3726897 L17.0913103,16.3726897 C11.7588966,16.3726897 7.43613793,20.6954483 7.43613793,26.0278621" id="Fill-1" fill="url(#linearGradient-1)"></path>
                    <path d="M35.822731,38.1344828 L4.04452414,38.1344828 C2.8790069,38.1344828 1.93114483,37.1863448 1.93114483,36.0211034 L1.93114483,13.9215172 L37.9361103,13.9215172 L37.9361103,36.0211034 C37.9361103,37.1863448 36.9882483,38.1344828 35.822731,38.1344828 M4.04452414,6.37117241 L10.4503172,6.37117241 L10.4503172,8.41144828 C10.4503172,8.94468966 10.882869,9.37696552 11.4158345,9.37696552 C11.9490759,9.37696552 12.3813517,8.94468966 12.3813517,8.41144828 L12.3813517,6.37117241 L27.4856276,6.37117241 L27.4856276,8.41144828 C27.4856276,8.94468966 27.9181793,9.37696552 28.4511448,9.37696552 C28.9843862,9.37696552 29.4166621,8.94468966 29.4166621,8.41144828 L29.4166621,6.37117241 L35.822731,6.37117241 C36.9882483,6.37117241 37.9361103,7.31931034 37.9361103,8.48482759 L37.9361103,11.9904828 L1.93114483,11.9904828 L1.93114483,8.48482759 C1.93114483,7.31931034 2.8790069,6.37117241 4.04452414,6.37117241 M35.822731,4.44013793 L29.4166621,4.44013793 L29.4166621,1.24151724 C29.4166621,0.708 28.9843862,0.276 28.4511448,0.276 C27.9181793,0.276 27.4856276,0.708 27.4856276,1.24151724 L27.4856276,4.44013793 L12.3813517,4.44013793 L12.3813517,1.24151724 C12.3813517,0.708 11.9490759,0.276 11.4158345,0.276 C10.882869,0.276 10.4503172,0.708 10.4503172,1.24151724 L10.4503172,4.44013793 L4.04452414,4.44013793 C1.81445517,4.44013793 0.000110344828,6.25475862 0.000110344828,8.48482759 L0.000110344828,36.0211034 C0.000110344828,38.2511724 1.81445517,40.0655172 4.04452414,40.0655172 L35.822731,40.0655172 C38.0528,40.0655172 39.8671448,38.2511724 39.8671448,36.0211034 L39.8671448,8.48482759 C39.8671448,6.25475862 38.0528,4.44013793 35.822731,4.44013793" id="Fill-4" fill="#394157"></path>
                    <path d="M19.8622069,32.3376 C19.6150345,32.3376 19.3678621,32.2432552 19.1794483,32.0548414 L11.9998621,24.8749793 C11.6227586,24.4981517 11.6227586,23.8865655 11.9998621,23.5097379 C12.3769655,23.1326345 12.9882759,23.1326345 13.3653793,23.5097379 L19.8622069,30.0065655 L31.2793103,18.5894621 C31.6564138,18.2123586 32.2677241,18.2123586 32.6448276,18.5894621 C33.021931,18.9662897 33.021931,19.5778759 32.6448276,19.9547034 L20.5449655,32.0548414 C20.3565517,32.2432552 20.1093793,32.3376 19.8622069,32.3376" id="Fill-7" fill="#394157"></path>
                </g>
            </g>
        </g>
    </g>
</svg>