<?xml version="1.0" encoding="UTF-8"?>
<svg width="23px" height="22px" viewBox="0 0 23 22" version="1.1" xmlns="http://www.w3.org/2000/svg" xmlns:xlink="http://www.w3.org/1999/xlink">
    <!-- Generator: Sketch 63.1 (92452) - https://sketch.com -->
    <title>Picto chercher</title>
    <desc>Created with Sketch.</desc>
    <g id="Page-1" stroke="none" stroke-width="1" fill="none" fill-rule="evenodd">
        <g id="08_INFO-SESSION-DCI-2" transform="translate(-1299.000000, -425.000000)" fill="#A7ACB6">
            <g id="Choix-des-DCI-concernées" transform="translate(465.000000, 377.000000)">
                <g id="Champs-DCI" transform="translate(305.000000, 0.000000)">
                    <path d="M530.066445,56.6941172 C530.066445,52.4882102 533.48821,49.0664451 537.694117,49.0664451 C541.900177,49.0664451 545.321942,52.4882102 545.321942,56.6941172 C545.321942,60.9000242 541.900177,64.3217894 537.694117,64.3217894 C533.48821,64.3217894 530.066445,60.9000242 530.066445,56.6941172 M550.909657,69.089713 L544.233863,62.4137668 C545.573775,60.8837229 546.388387,58.8829196 546.388387,56.6941172 C546.388387,51.900142 542.488245,48 537.694117,48 C532.900142,48 529,51.900142 529,56.6941172 C529,61.4880925 532.900142,65.3882345 537.694117,65.3882345 C539.916436,65.3882345 541.945729,64.5492469 543.484457,63.1724663 L550.15568,69.843842 C550.259735,69.9478965 550.39624,70 550.532592,70 C550.669097,70 550.80545,69.9478965 550.909657,69.843842 C551.117918,69.6355805 551.117918,69.2978221 550.909657,69.089713" id="Picto-chercher"></path>
                </g>
            </g>
        </g>
    </g>
</svg>