<?xml version="1.0" encoding="UTF-8"?>
<svg width="36px" height="40px" viewBox="0 0 36 40" version="1.1" xmlns="http://www.w3.org/2000/svg" xmlns:xlink="http://www.w3.org/1999/xlink">
    <!-- Generator: Sketch 63.1 (92452) - https://sketch.com -->
    <title>Picto code sms</title>
    <desc>Created with Sketch.</desc>
    <defs>
        <linearGradient x1="14.6451844%" y1="14.6443773%" x2="85.3558626%" y2="85.3550554%" id="linearGradient-1">
            <stop stop-color="#0095D4" offset="0%"></stop>
            <stop stop-color="#99EDE8" offset="100%"></stop>
        </linearGradient>
    </defs>
    <g id="Page-1" stroke="none" stroke-width="1" fill="none" fill-rule="evenodd">
        <g id="04_LOGIN-CODE-SMS" transform="translate(-709.000000, -471.000000)">
            <g id="Code-SMS" transform="translate(709.000000, 471.000000)">
                <g id="Picto-code-sms" transform="translate(-0.000110, 0.274000)">
                    <path d="M9.37216438,26.4432603 C9.37216438,31.7391507 13.6653151,36.0323014 18.9612055,36.0323014 L18.9612055,36.0323014 C24.2570959,36.0323014 28.5502466,31.7391507 28.5502466,26.4432603 L28.5502466,26.4432603 C28.5502466,21.1473699 24.2570959,16.8542192 18.9612055,16.8542192 L18.9612055,16.8542192 C13.6653151,16.8542192 9.37216438,21.1473699 9.37216438,26.4432603" id="Fill-1" fill="url(#linearGradient-1)"></path>
                    <path d="M34.3430137,1.0658141e-14 C34.834775,1.0658141e-14 35.2400755,0.370410959 35.2954666,0.847126083 L35.3019178,0.95890411 L35.3019178,19.8076712 C35.3019178,20.2994325 34.9317431,20.704733 34.4548423,20.7601241 L34.3430137,20.7665753 L20.9361644,20.7665753 L20.9361644,36.3723288 C20.9361644,38.1168729 19.5659235,39.5472705 17.8453656,39.6438443 L17.659726,39.6490411 L3.27643836,39.6490411 C1.53242324,39.6490411 0.101788478,38.2788002 0.00519775084,36.5579957 L1.66977543e-13,36.3723288 L1.66977543e-13,7.86136986 C1.66977543e-13,6.11709022 1.37049631,4.68670174 3.09082525,4.59012831 L3.27643836,4.58493151 L7.40383562,4.58493151 L7.40383562,0.95890411 C7.40383562,0.46739726 7.77401034,0.0618786693 8.25091108,0.00645513 L8.36273973,1.0658141e-14 L34.3430137,1.0658141e-14 Z M19.0183562,33.739726 L1.91780822,33.739726 L1.91780822,36.3723288 C1.91780822,37.0775665 2.45779021,37.659033 3.14579792,37.7250006 L3.27643836,37.7312329 L17.659726,37.7312329 C18.3649637,37.7312329 18.9461876,37.1912509 19.0121266,36.5030148 L19.0183562,36.3723288 L19.0183562,33.739726 Z M10.4680548,34.5510959 C11.0735342,34.5510959 11.5639452,35.0417808 11.5639452,35.6469863 C11.5639452,36.2521918 11.0735342,36.7428767 10.4680548,36.7428767 C9.86284932,36.7428767 9.37216438,36.2521918 9.37216438,35.6469863 C9.37216438,35.0417808 9.86284932,34.5510959 10.4680548,34.5510959 Z M7.40383562,11.3931507 L1.91780822,11.3931507 L1.91780822,31.8219178 L19.0183562,31.8219178 L19.0183562,20.7665753 L17.9293151,20.7665753 L12.9120548,25.7835616 C12.7287671,25.9668493 12.4835616,26.0643836 12.2339726,26.0643836 C12.110411,26.0643836 11.9857534,26.0405479 11.8671233,25.9912329 C11.5485845,25.859239 11.328757,25.5685709 11.283839,25.2331413 L11.2753425,25.1054795 L11.2753425,20.7665753 L8.36273973,20.7665753 C7.87097847,20.7665753 7.46567794,20.3964006 7.41028685,19.9194999 L7.40383562,19.8076712 L7.40383562,11.3931507 Z M33.3841096,1.91780822 L9.32164384,1.91780822 L9.32164384,18.8487671 L12.2342466,18.8487671 C12.7257534,18.8487671 13.131272,19.2189419 13.1866956,19.6958426 L13.1931507,19.8076712 L13.1931507,22.790411 L16.8539726,19.129589 C17.0037443,18.9798174 17.1980365,18.8846499 17.4059323,18.8570878 L17.5320548,18.8487671 L33.3841096,18.8487671 L33.3841096,1.91780822 Z M13.9980274,7.28386301 C14.671726,7.28386301 15.2087123,7.45043836 15.6095342,7.78331507 C16.0095342,8.11673973 16.2100822,8.5600274 16.2100822,9.11427397 C16.2100822,9.17980822 16.181326,9.21939178 16.1238137,9.23260384 L16.0752877,9.23756164 L14.8626849,9.23756164 C14.8251507,9.23756164 14.7933699,9.22441096 14.7673425,9.19810959 C14.7496256,9.18075799 14.737997,9.16084932 14.7322131,9.13838356 L14.7278904,9.10276712 L14.7278904,9.06934247 C14.7278904,8.91180822 14.6640548,8.78112329 14.5369315,8.67619178 C14.4098082,8.57126027 14.2374795,8.51893151 14.0202192,8.51893151 C13.8183014,8.51893151 13.6555616,8.5679726 13.532274,8.6649589 C13.4087123,8.76194521 13.3467945,8.88194521 13.3467945,9.02413699 C13.3467945,9.18139726 13.421589,9.3030411 13.5714521,9.38906849 C13.7213151,9.47509589 13.9492603,9.5630411 14.2563836,9.65263014 L14.544089,9.74427397 L14.544089,9.74427397 L14.6270685,9.77646575 C15.1358356,9.94879452 15.5437808,10.1564658 15.8506301,10.3994795 C16.1577534,10.6430411 16.3111781,11.004137 16.3111781,11.4830411 C16.3111781,12.0219452 16.1073425,12.4449589 15.6991233,12.7518082 C15.2909041,13.0589315 14.7426849,13.2123562 14.0539178,13.2123562 C13.3580274,13.2123562 12.8040548,13.0589315 12.3925479,12.7518082 C12.026277,12.4790533 11.8230096,12.1294507 11.782361,11.7028081 L11.7747397,11.5392055 L11.7747397,11.4493425 C11.7747397,11.4118082 11.7878904,11.3803014 11.8141918,11.353726 C11.8315434,11.3365571 11.8514521,11.3249893 11.8739178,11.3191852 L11.9095342,11.3148219 L13.1448767,11.3148219 C13.182137,11.3148219 13.2136438,11.3279726 13.2402192,11.353726 C13.2575708,11.3714429 13.2691994,11.3913516 13.2750238,11.4137768 L13.2793973,11.4493425 L13.2793973,11.4720822 C13.2793973,11.6367397 13.3541918,11.7712603 13.5043288,11.8761918 C13.6539178,11.9811233 13.8366575,12.0334521 14.0539178,12.0334521 C14.2563836,12.0334521 14.4172055,11.9866027 14.5369315,11.8929041 C14.6569315,11.7992055 14.7166575,11.6816712 14.7166575,11.5392055 C14.7166575,11.3972877 14.6509041,11.2885205 14.5202192,11.213726 C14.3892603,11.1389315 14.1777534,11.0526301 13.8856986,10.9553699 L13.7133633,10.905086 C13.6798203,10.8943003 13.6438729,10.8823134 13.6055299,10.8691277 L13.3467945,10.7756438 C12.8977534,10.6260548 12.5328219,10.424137 12.252,10.1693425 C11.9714521,9.91509589 11.8311781,9.54824658 11.8311781,9.06934247 C11.8311781,8.52249315 12.0292603,8.08852055 12.4262466,7.76660274 C12.8226849,7.4449589 13.3467945,7.28386301 13.9980274,7.28386301 Z M28.7770411,7.28386301 C29.4507397,7.28386301 29.987726,7.45043836 30.388274,7.78331507 C30.7885479,8.11673973 30.9890959,8.5600274 30.9890959,9.11427397 C30.9890959,9.17980822 30.9603397,9.21939178 30.9028274,9.23260384 L30.8543014,9.23756164 L29.6416986,9.23756164 C29.6041644,9.23756164 29.5723836,9.22441096 29.5463562,9.19810959 C29.5284566,9.18075799 29.5167671,9.16084932 29.510963,9.13838356 L29.5066301,9.10276712 L29.5066301,9.06934247 C29.5066301,8.91180822 29.4430685,8.78112329 29.3159452,8.67619178 C29.1885479,8.57126027 29.0164932,8.51893151 28.7992329,8.51893151 C28.5973151,8.51893151 28.4345753,8.5679726 28.3110137,8.6649589 C28.187726,8.76194521 28.1258082,8.88194521 28.1258082,9.02413699 C28.1258082,9.18139726 28.2006027,9.3030411 28.3504658,9.38906849 C28.5003288,9.47509589 28.728274,9.5630411 29.0353973,9.65263014 C29.1027945,9.67536986 29.168,9.69619178 29.2321096,9.71454795 L29.3230685,9.74427397 L29.3230685,9.74427397 L29.4058082,9.77646575 C29.9148493,9.94879452 30.3227945,10.1564658 30.6296438,10.3994795 C30.9364932,10.6430411 31.0901918,11.004137 31.0901918,11.4830411 C31.0901918,12.0219452 30.8860822,12.4449589 30.478137,12.7518082 C30.0699178,13.0589315 29.5216986,13.2123562 28.8329315,13.2123562 C28.1370411,13.2123562 27.5830685,13.0589315 27.1715616,12.7518082 C26.8052907,12.4790533 26.6020233,12.1294507 26.5613747,11.7028081 L26.5537534,11.5392055 L26.5537534,11.4493425 C26.5537534,11.4118082 26.5669041,11.3803014 26.5932055,11.353726 C26.6105571,11.3365571 26.6304658,11.3249893 26.6529315,11.3191852 L26.6885479,11.3148219 L27.9238904,11.3148219 C27.9608767,11.3148219 27.9926575,11.3279726 28.0192329,11.353726 C28.0365845,11.3714429 28.0482131,11.3913516 28.0540375,11.4137768 L28.058411,11.4493425 L28.058411,11.4720822 C28.058411,11.6367397 28.1332055,11.7712603 28.2833425,11.8761918 C28.4329315,11.9811233 28.6156712,12.0334521 28.8329315,12.0334521 C29.0353973,12.0334521 29.1962192,11.9866027 29.3159452,11.8929041 C29.4356712,11.7992055 29.4956712,11.6816712 29.4956712,11.5392055 C29.4956712,11.3972877 29.4299178,11.2885205 29.2992329,11.213726 C29.168,11.1389315 28.9567671,11.0526301 28.6647123,10.9553699 L28.4921797,10.905086 C28.4586258,10.8943003 28.4226784,10.8823134 28.3843463,10.8691277 L28.1258082,10.7756438 C27.6767671,10.6260548 27.3118356,10.424137 27.0310137,10.1693425 C26.7504658,9.91509589 26.6099178,9.54824658 26.6099178,9.06934247 C26.6099178,8.52249315 26.808274,8.08852055 27.2052603,7.76660274 C27.6016986,7.4449589 28.1258082,7.28386301 28.7770411,7.28386301 Z M23.4870137,7.27249315 C24.0333151,7.27249315 24.4508493,7.44673973 24.7393425,7.79468493 C24.9950502,8.10396956 25.137543,8.52430441 25.1660512,9.05530466 L25.1713973,9.25961644 L25.1713973,12.9990685 C25.1713973,13.0366027 25.1582466,13.0683836 25.1319452,13.094411 C25.114411,13.1119452 25.0944414,13.1235129 25.0721177,13.1292765 L25.0368767,13.133589 L23.734137,13.133589 C23.6966027,13.133589 23.6650959,13.1207123 23.6387945,13.094411 C23.6210776,13.0770594 23.609449,13.0571507 23.6036651,13.0346849 L23.5993425,12.9990685 L23.5993425,9.48454795 C23.5993425,9.22290411 23.5376986,9.0149589 23.414411,8.86126027 C23.2908493,8.70810959 23.123726,8.63112329 22.914411,8.63112329 C22.6974247,8.63112329 22.5253699,8.70810959 22.3982466,8.86126027 C22.2961096,8.98421918 22.2350027,9.1394411 22.2146455,9.32678575 L22.2070137,9.47331507 L22.2070137,12.9990685 C22.2070137,13.0366027 22.194137,13.0683836 22.1681096,13.094411 C22.15021,13.1119452 22.1302405,13.1235129 22.1078762,13.1292765 L22.0724932,13.133589 L20.7697534,13.133589 C20.7324932,13.133589 20.7007123,13.1207123 20.674411,13.094411 C20.6568767,13.0770594 20.645309,13.0571507 20.6395454,13.0346849 L20.6352329,12.9990685 L20.6352329,9.48454795 C20.6352329,9.22290411 20.5716712,9.0149589 20.444274,8.86126027 C20.3168767,8.70810959 20.1483836,8.63112329 19.9387945,8.63112329 C19.7218082,8.63112329 19.5497534,8.70810959 19.4226301,8.86126027 C19.3207123,8.98421918 19.2596493,9.1394411 19.2393008,9.32678575 L19.2316712,9.47331507 L19.2316712,12.9990685 C19.2316712,13.0366027 19.2185205,13.0683836 19.1924932,13.094411 C19.1747763,13.1119452 19.1548676,13.1235129 19.1324424,13.1292765 L19.0968767,13.133589 L17.794411,13.133589 C17.7568767,13.133589 17.7253699,13.1207123 17.6990685,13.094411 C17.6815342,13.0770594 17.6699665,13.0571507 17.6642029,13.0346849 L17.6598904,12.9990685 L17.6598904,7.49715068 C17.6598904,7.45989041 17.6727671,7.42810959 17.6990685,7.40180822 C17.7166027,7.38427397 17.7364505,7.37258447 17.7588554,7.36673973 L17.794411,7.36235616 L19.0968767,7.36235616 C19.134411,7.36235616 19.1659178,7.37550685 19.1924932,7.40180822 C19.2098447,7.41934247 19.2214734,7.43931202 19.2272978,7.46171689 L19.2316712,7.49715068 L19.2316712,7.78920548 C19.2316712,7.81139726 19.2390685,7.82673973 19.254137,7.83386301 C19.2641826,7.83897717 19.2741065,7.83727245 19.2839899,7.82891121 L19.2987945,7.81139726 C19.4560548,7.62454795 19.6396164,7.48810959 19.8492055,7.40180822 C20.0587945,7.31578082 20.2834521,7.27249315 20.5229041,7.27249315 C20.8596164,7.27249315 21.1497534,7.34180822 21.3930411,7.48016438 C21.6363288,7.61879452 21.8256438,7.81934247 21.9601644,8.0809863 C21.9675616,8.09605479 21.9785205,8.10153425 21.993863,8.09769863 C22.0089315,8.09413699 22.023726,8.0809863 22.0387945,8.05852055 C22.2034521,7.78180822 22.4127671,7.58126027 22.6675616,7.45769863 C22.9218082,7.33441096 23.1952329,7.27249315 23.4870137,7.27249315 Z M7.40383562,6.50273973 L3.27643836,6.50273973 C2.5714585,6.50273973 1.99000711,7.04247903 1.92404044,7.7306866 L1.91780822,7.86136986 L1.91780822,9.47534247 L7.40383562,9.47534247 L7.40383562,6.50273973 Z" id="Shape" fill="#394157"></path>
                </g>
            </g>
        </g>
    </g>
</svg>