<?xml version="1.0" encoding="UTF-8"?>
<svg width="58px" height="74px" viewBox="0 0 58 74" version="1.1" xmlns="http://www.w3.org/2000/svg" xmlns:xlink="http://www.w3.org/1999/xlink">
    <!-- Generator: Sketch 63.1 (92452) - https://sketch.com -->
    <title>Group</title>
    <desc>Created with Sketch.</desc>
    <g id="Page-1" stroke="none" stroke-width="1" fill="none" fill-rule="evenodd">
        <g id="24_CHOIX-DONNÉES" transform="translate(-44.000000, -602.000000)">
            <g id="Progression">
                <g id="Group" transform="translate(44.000164, 602.000000)">
                    <circle id="Page-active-Copy" fill="#EFF7FA" cx="37.9998356" cy="54" r="20"></circle>
                    <path d="M33.1444932,0 C33.9388767,0 34.5828493,0.643972603 34.5828493,1.43835616 L34.5828493,1.43835616 L34.5828493,4.31506849 L42.2587397,4.31506849 C43.0531233,4.31506849 43.6970959,4.9590411 43.6970959,5.75342466 L43.6970959,5.75342466 L43.6970959,58.5616438 C43.6970959,59.3560274 43.0531233,60 42.2587397,60 L42.2587397,60 L1.43819178,60 C0.643808219,60 -0.000164383562,59.3560274 -0.000164383562,58.5616438 L-0.000164383562,58.5616438 L-0.000164383562,5.75342466 C-0.000164383562,4.9590411 0.643808219,4.31506849 1.43819178,4.31506849 L1.43819178,4.31506849 L9.11367123,4.31506849 L9.11367123,1.43835616 C9.11367123,0.643972603 9.75764384,0 10.5520274,0 L10.5520274,0 Z M9.11367123,7.19178082 L2.87654795,7.19178082 L2.87654795,57.1232877 L40.8203836,57.1232877 L40.8203836,7.19178082 L34.5828493,7.19178082 L34.5828493,10.9376712 C34.5828493,11.7320548 33.9388767,12.3760274 33.1444932,12.3760274 L33.1444932,12.3760274 L10.5520274,12.3760274 C9.75764384,12.3760274 9.11367123,11.7320548 9.11367123,10.9376712 L9.11367123,10.9376712 L9.11367123,7.19178082 Z M35.3583288,48.8286575 C36.1527123,48.8286575 36.7966849,49.4726301 36.7966849,50.2670137 C36.7966849,51.0613973 36.1527123,51.7053699 35.3583288,51.7053699 L8.33860274,51.7053699 C7.54421918,51.7053699 6.90024658,51.0613973 6.90024658,50.2670137 C6.90024658,49.4726301 7.54421918,48.8286575 8.33860274,48.8286575 L35.3583288,48.8286575 Z M14.8539041,31.1921918 C15.6482877,31.1921918 16.2922603,31.8361644 16.2922603,32.6305479 L16.2922603,43.6984932 C16.2922603,44.4932877 15.6482877,45.1368493 14.8539041,45.1368493 L10.3333562,45.1368493 C9.53856164,45.1368493 8.895,44.4932877 8.895,43.6984932 L8.895,32.6305479 C8.895,31.8361644 9.53856164,31.1921918 10.3333562,31.1921918 L14.8539041,31.1921918 Z M24.2430822,25.5673973 C25.0374658,25.5673973 25.6814384,26.2113699 25.6814384,27.0057534 L25.6814384,43.6984932 C25.6814384,44.4932877 25.0374658,45.1368493 24.2430822,45.1368493 L19.7225342,45.1368493 C18.9281507,45.1368493 18.2841781,44.4932877 18.2841781,43.6984932 L18.2841781,27.0057534 C18.2841781,26.2113699 18.9281507,25.5673973 19.7225342,25.5673973 L24.2430822,25.5673973 Z M33.6322603,18.1393151 C34.4266438,18.1393151 35.0706164,18.7832877 35.0706164,19.5776712 L35.0706164,43.6984932 C35.0706164,44.4932877 34.4266438,45.1368493 33.6322603,45.1368493 L29.1117123,45.1368493 C28.3173288,45.1368493 27.6733562,44.4932877 27.6733562,43.6984932 L27.6733562,19.5776712 C27.6733562,18.7832877 28.3173288,18.1393151 29.1117123,18.1393151 L33.6322603,18.1393151 Z M13.4155479,34.0684932 L11.7717123,34.0684932 L11.7717123,42.260137 L13.4155479,42.260137 L13.4155479,34.0684932 Z M22.804726,28.4441096 L21.1608904,28.4441096 L21.1608904,42.260137 L22.804726,42.260137 L22.804726,28.4441096 Z M32.1939041,21.0156164 L30.5500685,21.0156164 L30.5500685,42.260137 L32.1939041,42.260137 L32.1939041,21.0156164 Z M31.706137,2.87671233 L11.9903836,2.87671233 L11.9903836,9.49931507 L31.706137,9.49931507 L31.706137,2.87671233 Z" id="Picto-choix-données" fill="#394157"></path>
                </g>
            </g>
        </g>
    </g>
</svg>