<?xml version="1.0" encoding="UTF-8"?>
<svg width="58px" height="73px" viewBox="0 0 58 73" version="1.1" xmlns="http://www.w3.org/2000/svg" xmlns:xlink="http://www.w3.org/1999/xlink">
    <!-- Generator: Sketch 63.1 (92452) - https://sketch.com -->
    <title>Group</title>
    <desc>Created with Sketch.</desc>
    <g id="Page-1" stroke="none" stroke-width="1" fill="none" fill-rule="evenodd">
        <g id="15_DÉFINITION-GROUPES" transform="translate(-44.000000, -452.000000)">
            <g id="Progression">
                <g id="Group" transform="translate(44.000000, 452.000000)">
                    <circle id="Page-active-Copy" fill="#EFF7FA" cx="38" cy="53" r="20"></circle>
                    <path d="M33.1449041,0 C33.8925592,0 34.5069783,0.570439399 34.5766759,1.29983265 L34.5832603,1.43835616 L34.5832603,4.31506849 L42.2591507,4.31506849 C43.0068058,4.31506849 43.6212249,4.88550789 43.6909225,5.61490114 L43.6975068,5.75342466 L43.6975068,58.5616438 C43.6975068,59.309299 43.1270675,59.9237181 42.3976742,59.9934156 L42.2591507,60 L1.43819178,60 C0.690536664,60 0.0761175523,59.4295606 0.00641999281,58.7001674 L-0.000164383562,58.5616438 L-0.000164383562,5.75342466 C-0.000164383562,5.00576954 0.570275015,4.39135043 1.29966827,4.32165287 L1.43819178,4.31506849 L9.11408219,4.31506849 L9.11408219,1.43835616 C9.11408219,0.690701048 9.68452159,0.0762819358 10.4139148,0.00658437637 L10.5524384,0 L33.1449041,0 Z M9.11408219,7.19178082 L2.87654795,7.19178082 L2.87654795,57.1232877 L40.8207945,57.1232877 L40.8207945,7.19178082 L34.5832603,7.19178082 L34.5832603,10.9376712 C34.5832603,11.6853263 34.0128209,12.2997455 33.2834276,12.369443 L33.1449041,12.3760274 L10.5524384,12.3760274 C9.80478324,12.3760274 9.19036413,11.805588 9.12066657,11.0761947 L9.11408219,10.9376712 L9.11408219,7.19178082 Z M21.1141233,19.8786164 C21.563274,19.4290822 22.2734,19.3991132 22.7573474,19.7887096 L22.857411,19.8786164 L26.1713836,23.192589 C26.6530274,23.6738219 26.6530274,24.4546438 26.1713836,24.9358767 C25.9305616,25.1766986 25.6149452,25.2971096 25.2997397,25.2971096 C25.0292114,25.2971096 24.758683,25.2086444 24.5355143,25.031714 L24.4280959,24.9358767 L23.2186438,23.7264247 L23.2186438,39.562726 C25.1737477,37.1220278 28.331195,35.2590241 32.8038404,34.6489809 L33.2554932,34.5921781 L32.0916575,33.4279315 C31.6100137,32.9466986 31.6100137,32.1658767 32.0916575,31.6846438 C32.5408082,31.2351096 33.2509342,31.2051406 33.7348816,31.594737 L33.8349452,31.6846438 L37.1489178,34.9986164 C37.5984521,35.4477671 37.628421,36.1578932 37.2388247,36.6418405 L37.1489178,36.7419041 L33.8349452,40.0558767 C33.5941233,40.2966986 33.2785068,40.4171096 32.9633014,40.4171096 C32.6476849,40.4171096 32.3320685,40.2966986 32.0916575,40.0558767 C31.6421233,39.606726 31.6121543,38.8966 32.0017507,38.4126526 L32.0916575,38.312589 L33.3463151,37.0575205 C25.9330274,37.9665616 23.2186438,42.6062877 23.2186438,46.6406712 C23.2186438,47.3216301 22.666726,47.8735479 21.9857671,47.8735479 C21.3048082,47.8735479 20.7528904,47.3216301 20.7528904,46.6406712 C20.7528904,39.9509524 17.070642,34.3227112 12.1157018,32.7683807 L11.8490548,32.6890274 L12.7083699,33.5483425 C13.1900137,34.0299863 13.1900137,34.8103973 12.7083699,35.2920411 C12.4679589,35.532863 12.1523425,35.653274 11.836726,35.653274 C11.5661977,35.653274 11.2956693,35.5648088 11.0725006,35.3878784 L10.9650822,35.2920411 L7.65110959,31.9780685 C7.20157534,31.5285342 7.17160639,30.8187406 7.56120274,30.3348393 L7.65110959,30.2347808 L10.9650822,26.9208082 C11.4463151,26.4391644 12.227137,26.4391644 12.7083699,26.9208082 C13.1579041,27.3699589 13.1878731,28.0797269 12.7982767,28.5639607 L12.7083699,28.6640959 L11.3263151,30.0461507 C15.1061407,30.7012939 18.3979057,33.2051167 20.5540944,36.7744549 L20.7528904,37.1121781 L20.7528904,23.7264247 L19.5434384,24.9358767 C19.0622055,25.4175205 18.2813836,25.4175205 17.8001507,24.9358767 C17.3506164,24.486726 17.3206475,23.7766 17.7102438,23.2926526 L17.8001507,23.192589 L21.1141233,19.8786164 Z M31.7065479,2.87671233 L11.9907945,2.87671233 L11.9907945,9.49931507 L31.7065479,9.49931507 L31.7065479,2.87671233 Z" id="Picto-définition-groupes" fill="#394157"></path>
                </g>
            </g>
        </g>
    </g>
</svg>