<?xml version="1.0" encoding="UTF-8"?>
<svg width="44px" height="60px" viewBox="0 0 44 60" version="1.1" xmlns="http://www.w3.org/2000/svg" xmlns:xlink="http://www.w3.org/1999/xlink">
    <!-- Generator: Sketch 63.1 (92452) - https://sketch.com -->
    <title>Picto choix données</title>
    <desc>Created with Sketch.</desc>
    <g id="Page-1" stroke="none" stroke-width="1" fill="none" fill-rule="evenodd">
        <g id="06_INFO-SESSION-NOM" transform="translate(-44.000000, -602.000000)" fill="#EFF7FA">
            <g id="Progression">
                <g id="Choix-des-données-à-envoyer" transform="translate(43.999836, 602.000000)">
                    <path d="M33.1448219,0 C33.9392055,0 34.5831781,0.643972603 34.5831781,1.43835616 L34.5831781,1.43835616 L34.5831781,4.31506849 L42.2590685,4.31506849 C43.0534521,4.31506849 43.6974247,4.9590411 43.6974247,5.75342466 L43.6974247,5.75342466 L43.6974247,58.5616438 C43.6974247,59.3560274 43.0534521,60 42.2590685,60 L42.2590685,60 L1.43852055,60 C0.644136986,60 0.000164383562,59.3560274 0.000164383562,58.5616438 L0.000164383562,58.5616438 L0.000164383562,5.75342466 C0.000164383562,4.9590411 0.644136986,4.31506849 1.43852055,4.31506849 L1.43852055,4.31506849 L9.114,4.31506849 L9.114,1.43835616 C9.114,0.643972603 9.7579726,0 10.5523562,0 L10.5523562,0 Z M9.114,7.19178082 L2.87687671,7.19178082 L2.87687671,57.1232877 L40.8207123,57.1232877 L40.8207123,7.19178082 L34.5831781,7.19178082 L34.5831781,10.9376712 C34.5831781,11.7320548 33.9392055,12.3760274 33.1448219,12.3760274 L33.1448219,12.3760274 L10.5523562,12.3760274 C9.7579726,12.3760274 9.114,11.7320548 9.114,10.9376712 L9.114,10.9376712 L9.114,7.19178082 Z M35.3586575,48.8286575 C36.1530411,48.8286575 36.7970137,49.4726301 36.7970137,50.2670137 C36.7970137,51.0613973 36.1530411,51.7053699 35.3586575,51.7053699 L8.33893151,51.7053699 C7.54454795,51.7053699 6.90057534,51.0613973 6.90057534,50.2670137 C6.90057534,49.4726301 7.54454795,48.8286575 8.33893151,48.8286575 L35.3586575,48.8286575 Z M14.8542329,31.1921918 C15.6486164,31.1921918 16.292589,31.8361644 16.292589,32.6305479 L16.292589,43.6984932 C16.292589,44.4932877 15.6486164,45.1368493 14.8542329,45.1368493 L10.3336849,45.1368493 C9.53889041,45.1368493 8.89532877,44.4932877 8.89532877,43.6984932 L8.89532877,32.6305479 C8.89532877,31.8361644 9.53889041,31.1921918 10.3336849,31.1921918 L14.8542329,31.1921918 Z M24.243411,25.5673973 C25.0377945,25.5673973 25.6817671,26.2113699 25.6817671,27.0057534 L25.6817671,43.6984932 C25.6817671,44.4932877 25.0377945,45.1368493 24.243411,45.1368493 L19.722863,45.1368493 C18.9284795,45.1368493 18.2845068,44.4932877 18.2845068,43.6984932 L18.2845068,27.0057534 C18.2845068,26.2113699 18.9284795,25.5673973 19.722863,25.5673973 L24.243411,25.5673973 Z M33.632589,18.1393151 C34.4269726,18.1393151 35.0709452,18.7832877 35.0709452,19.5776712 L35.0709452,43.6984932 C35.0709452,44.4932877 34.4269726,45.1368493 33.632589,45.1368493 L29.1120411,45.1368493 C28.3176575,45.1368493 27.6736849,44.4932877 27.6736849,43.6984932 L27.6736849,19.5776712 C27.6736849,18.7832877 28.3176575,18.1393151 29.1120411,18.1393151 L33.632589,18.1393151 Z M13.4158767,34.0684932 L11.7720411,34.0684932 L11.7720411,42.260137 L13.4158767,42.260137 L13.4158767,34.0684932 Z M22.8050548,28.4441096 L21.1612192,28.4441096 L21.1612192,42.260137 L22.8050548,42.260137 L22.8050548,28.4441096 Z M32.1942329,21.0156164 L30.5503973,21.0156164 L30.5503973,42.260137 L32.1942329,42.260137 L32.1942329,21.0156164 Z M31.7064658,2.87671233 L11.9907123,2.87671233 L11.9907123,9.49931507 L31.7064658,9.49931507 L31.7064658,2.87671233 Z" id="Picto-choix-données"></path>
                </g>
            </g>
        </g>
    </g>
</svg>