<?xml version="1.0" encoding="UTF-8"?>
<svg width="40px" height="40px" viewBox="0 0 40 40" version="1.1" xmlns="http://www.w3.org/2000/svg" xmlns:xlink="http://www.w3.org/1999/xlink">
    <!-- Generator: Sketch 63.1 (92452) - https://sketch.com -->
    <title>Picto données de départ</title>
    <desc>Created with Sketch.</desc>
    <g id="Page-1" stroke="none" stroke-width="1" fill="none" fill-rule="evenodd">
        <g id="24_CHOIX-DONNÉES" transform="translate(-465.000000, -256.000000)">
            <g id="Données-de-départ" transform="translate(465.000000, 256.000000)">
                <g id="Picto-données-de-départ" transform="translate(-0.000054, 0.272109)">
                    <path d="M37.4777415,37.7627211 C38.0029116,37.7627211 38.4301224,38.189932 38.4301224,38.715102 C38.4301224,39.20276 38.061762,39.6059531 37.5886586,39.661064 L37.4777415,39.667483 L2.68127891,39.667483 C2.15610884,39.667483 1.72889796,39.2402721 1.72889796,38.715102 C1.72889796,38.2274441 2.09725836,37.824251 2.57036183,37.76914 L2.68127891,37.7627211 L37.4777415,37.7627211 Z M35.2176871,1.49213975e-13 C37.5140136,1.49213975e-13 39.382585,1.86829932 39.382585,4.16462585 C39.382585,6.46122449 37.5140136,8.32952381 35.2176871,8.32952381 C35.0829025,8.32952381 34.9502948,8.32093726 34.8192189,8.30690854 L34.6236735,8.28217687 L30.0568707,19.9107483 C31.0081633,20.6745578 31.6193197,21.8451701 31.6193197,23.1570068 C31.6193197,25.4536054 29.7510204,27.3219048 27.4544218,27.3219048 C25.1580952,27.3219048 23.2897959,25.4536054 23.2897959,23.1570068 C23.2897959,22.216644 23.6046429,21.3494482 24.1326841,20.6516227 L24.2819048,20.4655782 L21.3338776,16.4756463 C20.8296599,16.6927891 20.2742857,16.8144218 19.6911565,16.8144218 C19.5148299,16.8144218 19.3414059,16.8022071 19.170965,16.7800353 L18.917551,16.7395918 L14.3978231,27.287619 C15.4236735,28.0468027 16.0927891,29.2617687 16.0927891,30.6331973 C16.0927891,32.9295238 14.2244898,34.7978231 11.9281633,34.7978231 C9.63156463,34.7978231 7.76326531,32.9295238 7.76326531,30.6331973 C7.76326531,29.6536054 8.10594856,28.7549314 8.67424559,28.0433295 L8.82095238,27.8693878 L5.80272109,23.7727891 C5.29959184,23.9888435 4.74612245,24.1093878 4.16489796,24.1093878 C1.86829932,24.1093878 -1.42108547e-14,22.2410884 -1.42108547e-14,19.9447619 C-1.42108547e-14,17.6481633 1.86829932,15.7798639 4.16489796,15.7798639 C6.46122449,15.7798639 8.32979592,17.6481633 8.32979592,19.9447619 C8.32979592,20.8934589 8.00913899,21.7677301 7.4724814,22.4684839 L7.33387755,22.64 L10.3776871,26.7706122 C10.857415,26.5776871 11.3798639,26.4682993 11.9281633,26.4682993 C12.0919728,26.4682993 12.2531217,26.4796674 12.4117712,26.4994205 L12.6478912,26.534966 L17.1782313,15.9629932 C16.1768707,15.2013605 15.5265306,14.0016327 15.5265306,12.6495238 C15.5265306,10.3531973 17.3948299,8.48489796 19.6911565,8.48489796 C21.9877551,8.48489796 23.8560544,10.3531973 23.8560544,12.6495238 C23.8560544,13.5901361 23.5412075,14.4575813 23.0131663,15.155237 L22.8639456,15.3412245 L25.8117007,19.3311565 C26.3161905,19.1137415 26.8712925,18.992381 27.4544218,18.992381 C27.6809524,18.992381 27.9027381,19.0115136 28.1192049,19.046909 L28.3338776,19.087619 L32.8503401,7.58693878 C31.7657143,6.83455782 31.0527891,5.58204082 31.0527891,4.16462585 C31.0527891,1.86829932 32.9213605,1.49213975e-13 35.2176871,1.49213975e-13 Z M11.9281633,28.3730612 C10.6819048,28.3730612 9.66802721,29.3869388 9.66802721,30.6331973 C9.66802721,31.8794558 10.6819048,32.8930612 11.9281633,32.8930612 C13.1741497,32.8930612 14.1880272,31.8794558 14.1880272,30.6331973 C14.1880272,29.3869388 13.1741497,28.3730612 11.9281633,28.3730612 Z M27.4544218,20.8971429 C26.2084354,20.8971429 25.1945578,21.9110204 25.1945578,23.1570068 C25.1945578,24.4032653 26.2084354,25.4171429 27.4544218,25.4171429 C28.7006803,25.4171429 29.7145578,24.4032653 29.7145578,23.1570068 C29.7145578,21.9110204 28.7006803,20.8971429 27.4544218,20.8971429 Z M4.16489796,17.6846259 C2.91863946,17.6846259 1.9047619,18.6985034 1.9047619,19.9447619 C1.9047619,21.1907483 2.91863946,22.2046259 4.16489796,22.2046259 C5.41088435,22.2046259 6.42503401,21.1907483 6.42503401,19.9447619 C6.42503401,18.6985034 5.41088435,17.6846259 4.16489796,17.6846259 Z M19.6911565,10.3896599 C18.4451701,10.3896599 17.4312925,11.4035374 17.4312925,12.6495238 C17.4312925,13.8957823 18.4451701,14.9096599 19.6911565,14.9096599 C20.937415,14.9096599 21.9512925,13.8957823 21.9512925,12.6495238 C21.9512925,11.4035374 20.937415,10.3896599 19.6911565,10.3896599 Z M35.2176871,1.9047619 C33.9714286,1.9047619 32.957551,2.91863946 32.957551,4.16462585 C32.957551,5.41088435 33.9714286,6.4247619 35.2176871,6.4247619 C36.4639456,6.4247619 37.4778231,5.41088435 37.4778231,4.16462585 C37.4778231,2.91863946 36.4639456,1.9047619 35.2176871,1.9047619 Z" id="Shape" fill="#A7ACB6"></path>
                </g>
            </g>
        </g>
    </g>
</svg>