<?xml version="1.0" encoding="UTF-8"?>
<svg width="34px" height="40px" viewBox="0 0 34 40" version="1.1" xmlns="http://www.w3.org/2000/svg" xmlns:xlink="http://www.w3.org/1999/xlink">
    <!-- Generator: Sketch 63.1 (92452) - https://sketch.com -->
    <title>Picto login</title>
    <desc>Created with Sketch.</desc>
    <defs>
        <linearGradient x1="14.6456711%" y1="14.6440948%" x2="85.354329%" y2="85.3537628%" id="linearGradient-1">
            <stop stop-color="#0095D4" offset="0%"></stop>
            <stop stop-color="#99EDE8" offset="100%"></stop>
        </linearGradient>
    </defs>
    <g id="Page-1" stroke="none" stroke-width="1" fill="none" fill-rule="evenodd">
        <g id="00_LOGIN-ADMIN" transform="translate(-712.000000, -471.000000)">
            <g id="Login" transform="translate(712.000000, 471.000000)">
                <g id="Picto-login">
                    <path d="M-5.15143483e-14,15.8038889 C-5.15143483e-14,21.1733333 4.35277778,25.5263889 9.72222222,25.5263889 L9.72222222,25.5263889 C15.0916667,25.5263889 19.4444444,21.1733333 19.4444444,15.8038889 L19.4444444,15.8038889 C19.4444444,10.4344444 15.0916667,6.08166667 9.72222222,6.08166667 L9.72222222,6.08166667 C4.35277778,6.08166667 -5.15143483e-14,10.4344444 -5.15143483e-14,15.8038889" id="Fill-1" fill="url(#linearGradient-1)"></path>
                    <path d="M31.3257222,38.0405556 L2.41988889,38.0405556 L2.41988889,33.6858333 C2.41988889,25.7166667 8.9035,19.2330556 16.8729444,19.2330556 C24.8421111,19.2330556 31.3257222,25.7166667 31.3257222,33.6858333 L31.3257222,38.0405556 Z M9.201,9.61666667 C9.201,5.38611111 12.6423889,1.94444444 16.8729444,1.94444444 C21.1032222,1.94444444 24.5448889,5.38611111 24.5448889,9.61666667 C24.5448889,13.8469444 21.1032222,17.2886111 16.8729444,17.2886111 C12.6423889,17.2886111 9.201,13.8469444 9.201,9.61666667 L9.201,9.61666667 Z M21.5996111,17.9861111 C24.5157222,16.3327778 26.4893333,13.2016667 26.4893333,9.61666667 C26.4893333,4.31388889 22.1754444,6.39488462e-14 16.8729444,6.39488462e-14 C11.5704444,6.39488462e-14 7.25655556,4.31388889 7.25655556,9.61666667 C7.25655556,13.2016667 9.22988889,16.3327778 12.146,17.9861111 C5.40183333,20.0205556 0.475444444,26.2872222 0.475444444,33.6858333 L0.475444444,39.0127778 C0.475444444,39.5497222 0.910722222,39.985 1.44766667,39.985 L32.2979444,39.985 C32.8348889,39.985 33.2701667,39.5497222 33.2701667,39.0127778 L33.2701667,33.6858333 C33.2701667,26.2872222 28.3437778,20.0205556 21.5996111,17.9861111 L21.5996111,17.9861111 Z" id="Fill-4" fill="#394157"></path>
                </g>
            </g>
        </g>
    </g>
</svg>