<?xml version="1.0" encoding="UTF-8"?>
<svg width="469px" height="434px" viewBox="0 0 469 434" version="1.1" xmlns="http://www.w3.org/2000/svg" xmlns:xlink="http://www.w3.org/1999/xlink">
    <title>Untitled</title>
    <defs>
        <linearGradient x1="50.7888165%" y1="0%" x2="49.2111835%" y2="100%" id="linearGradient-1">
            <stop stop-color="#99EDE8" offset="0%"></stop>
            <stop stop-color="#0095D4" offset="100%"></stop>
        </linearGradient>
        <linearGradient x1="0%" y1="50%" x2="100%" y2="50%" id="linearGradient-2">
            <stop stop-color="#0095D4" offset="0%"></stop>
            <stop stop-color="#99EDE8" offset="100%"></stop>
        </linearGradient>
        <linearGradient x1="50%" y1="0%" x2="50%" y2="100%" id="linearGradient-3">
            <stop stop-color="#99EDE8" offset="0%"></stop>
            <stop stop-color="#0095D4" offset="100%"></stop>
        </linearGradient>
    </defs>
    <g id="Page-1" stroke="none" stroke-width="1" fill="none" fill-rule="evenodd">
        <g id="Group-2" transform="translate(0.152671, 1.000000)">
            <rect id="Rectangle" stroke="#3A4155" stroke-width="4" x="128.847329" y="136" width="250" height="208" rx="5"></rect>
            <rect id="Rectangle" fill="url(#linearGradient-1)" x="91.8473292" y="112" width="26" height="207"></rect>
            <rect id="Rectangle" fill="#FFFFFF" x="117.847329" y="112" width="238" height="207"></rect>
            <line x1="41.8473292" y1="134" x2="41.8473292" y2="151" id="Line-5" stroke="#394157" stroke-width="4" stroke-linecap="round"></line>
            <line x1="41.8473292" y1="134" x2="41.8473292" y2="151" id="Line-5" stroke="#394157" stroke-width="4" stroke-linecap="round" transform="translate(41.847329, 142.500000) rotate(-90.000000) translate(-41.847329, -142.500000) "></line>
            <circle id="Oval" stroke="#3A4155" stroke-width="4" cx="228.347329" cy="183.5" r="30.5"></circle>
            <rect id="Rectangle" stroke="#3A4155" stroke-width="4" x="90.8473292" y="112" width="266" height="208" rx="5"></rect>
            <line x1="80.5973292" y1="134.25" x2="103.097329" y2="133.75" id="Line" stroke="#3A4155" stroke-width="4" stroke-linecap="round"></line>
            <line x1="80.5973292" y1="300.25" x2="103.097329" y2="299.75" id="Line" stroke="#3A4155" stroke-width="4" stroke-linecap="round"></line>
            <line x1="117.425454" y1="110" x2="117.425454" y2="322" id="Path" stroke="#3A4155" stroke-width="4"></line>
            <line x1="80.5973292" y1="166.25" x2="103.097329" y2="165.75" id="Line" stroke="#3A4155" stroke-width="4" stroke-linecap="round"></line>
            <line x1="80.5973292" y1="198.25" x2="103.097329" y2="197.75" id="Line" stroke="#3A4155" stroke-width="4" stroke-linecap="round"></line>
            <line x1="166.347329" y1="133.5" x2="261.347329" y2="133.5" id="Line-3" stroke="#3A4155" stroke-width="4" stroke-linecap="round"></line>
            <line x1="303.847329" y1="133" x2="338.847329" y2="133" id="Line-3" stroke="#3A4155" stroke-width="4" stroke-linecap="round"></line>
            <line x1="80.5973292" y1="236.25" x2="103.097329" y2="235.75" id="Line" stroke="#3A4155" stroke-width="4" stroke-linecap="round"></line>
            <line x1="80.5973292" y1="268.25" x2="103.097329" y2="267.75" id="Line" stroke="#3A4155" stroke-width="4" stroke-linecap="round"></line>
            <line x1="173.472329" y1="288.125" x2="283.722329" y2="287.875" id="Line" stroke="#3A4155" stroke-width="4" stroke-linecap="square"></line>
            <path d="M173.472329,288.125 C173.292262,263.649968 177.520126,246.358302 186.155923,236.25 C199.109618,221.087548 204.163735,236.25 229.347329,235.75 C249.112954,236 256.649867,219.850992 270.191079,236.25 C279.218554,247.182672 283.728987,264.391005 283.72238,287.875" id="Path-2" stroke="#3A4155" stroke-width="4"></path>
            <circle id="Oval" fill="url(#linearGradient-2)" cx="283.347329" cy="134.5" r="7.5"></circle>
            <circle id="Oval" fill="#3A4155" cx="140.347329" cy="134.5" r="7.5"></circle>
            <line x1="139.847329" y1="288" x2="139.347329" y2="159.5" id="Line-2" stroke="#3A4155" stroke-width="4" stroke-linecap="round"></line>
            <circle id="Oval" stroke="#3A4155" stroke-width="4" fill-opacity="0.5" fill="#D8D8D8" cx="111.847329" cy="288" r="48"></circle>
            <line x1="60.8473292" y1="329" x2="73.8473292" y2="322" id="Line-4" stroke="#3A4155" stroke-width="4" stroke-linecap="square" transform="translate(67.347329, 325.500000) rotate(-16.699244) translate(-67.347329, -325.500000) "></line>
            <line x1="67.8473292" y1="336" x2="80.8473292" y2="329" id="Line-4" stroke="#3A4155" stroke-width="4" stroke-linecap="square" transform="translate(74.347329, 332.500000) rotate(-16.699244) translate(-74.347329, -332.500000) "></line>
            <rect id="Rectangle" stroke="#3A4155" stroke-width="4" fill="url(#linearGradient-3)" transform="translate(39.000000, 359.640330) rotate(46.000000) translate(-39.000000, -359.640330) " x="29" y="319.64033" width="20" height="80" rx="4"></rect>
            <line x1="456.847329" y1="237" x2="456.847329" y2="254" id="Line-5" stroke="#394157" stroke-width="4" stroke-linecap="round"></line>
            <line x1="456.847329" y1="237" x2="456.847329" y2="254" id="Line-5" stroke="#394157" stroke-width="4" stroke-linecap="round" transform="translate(456.847329, 245.500000) rotate(-90.000000) translate(-456.847329, -245.500000) "></line>
            <line x1="409.847329" y1="68" x2="409.847329" y2="85" id="Line-5" stroke="#394157" stroke-width="4" stroke-linecap="round"></line>
            <line x1="409.847329" y1="68" x2="409.847329" y2="85" id="Line-5" stroke="#394157" stroke-width="4" stroke-linecap="round" transform="translate(409.847329, 76.500000) rotate(-90.000000) translate(-409.847329, -76.500000) "></line>
            <line x1="245.847329" y1="77" x2="245.847329" y2="94" id="Line-5" stroke="#A7ACB6" stroke-width="4" stroke-linecap="round"></line>
            <line x1="245.847329" y1="77" x2="245.847329" y2="94" id="Line-5" stroke="#A7ACB6" stroke-width="4" stroke-linecap="round" transform="translate(245.847329, 85.500000) rotate(-90.000000) translate(-245.847329, -85.500000) "></line>
            <line x1="161.847329" y1="1" x2="161.847329" y2="18" id="Line-5" stroke="#A7ACB6" stroke-width="4" stroke-linecap="round"></line>
            <line x1="161.847329" y1="1" x2="161.847329" y2="18" id="Line-5" stroke="#A7ACB6" stroke-width="4" stroke-linecap="round" transform="translate(161.847329, 9.500000) rotate(-90.000000) translate(-161.847329, -9.500000) "></line>
            <line x1="140.847329" y1="371" x2="140.847329" y2="388" id="Line-5" stroke="#A7ACB6" stroke-width="4" stroke-linecap="round"></line>
            <line x1="140.847329" y1="371" x2="140.847329" y2="388" id="Line-5" stroke="#A7ACB6" stroke-width="4" stroke-linecap="round" transform="translate(140.847329, 379.500000) rotate(-90.000000) translate(-140.847329, -379.500000) "></line>
            <circle id="Oval" stroke="#979797" stroke-width="4" cx="428.347329" cy="164.5" r="7.5"></circle>
            <circle id="Oval" stroke="#979797" stroke-width="4" cx="121.347329" cy="66.5" r="7.5"></circle>
            <circle id="Oval" stroke="#979797" stroke-width="4" cx="428.347329" cy="164.5" r="7.5"></circle>
            <circle id="Oval" stroke="#979797" stroke-width="4" cx="428.347329" cy="164.5" r="7.5"></circle>
            <circle id="Oval" stroke="#394157" stroke-width="4" cx="313.347329" cy="28.5" r="7.5"></circle>
            <circle id="Oval" stroke="#394157" stroke-width="4" cx="227.347329" cy="423.5" r="7.5"></circle>
            <circle id="Oval" stroke="#394157" stroke-width="4" cx="313.347329" cy="28.5" r="7.5"></circle>
            <circle id="Oval" stroke="#394157" stroke-width="4" cx="346.347329" cy="369.5" r="7.5"></circle>
            <circle id="Oval" stroke="#394157" stroke-width="4" cx="346.347329" cy="369.5" r="7.5"></circle>
        </g>
        <g id="Group" transform="translate(33.000000, 134.000000)"></g>
        <g id="Group" transform="translate(448.000000, 237.000000)"></g>
        <g id="Group" transform="translate(401.000000, 68.000000)"></g>
        <g id="Group" transform="translate(237.000000, 77.000000)"></g>
        <g id="Group" transform="translate(153.000000, 1.000000)"></g>
        <g id="Group" transform="translate(132.000000, 371.000000)"></g>
    </g>
</svg>