<?xml version="1.0" encoding="UTF-8"?>
<svg width="40px" height="40px" viewBox="0 0 40 40" version="1.1" xmlns="http://www.w3.org/2000/svg" xmlns:xlink="http://www.w3.org/1999/xlink">
    <title>482BED4B-266C-4FFB-996F-C331390C0114</title>
    <defs>
        <linearGradient x1="14.6445829%" y1="14.6447783%" x2="85.355261%" y2="85.3554564%" id="linearGradient-1">
            <stop stop-color="#0095D4" offset="0%"></stop>
            <stop stop-color="#99EDE8" offset="100%"></stop>
        </linearGradient>
    </defs>
    <g id="Page-1" stroke="none" stroke-width="1" fill="none" fill-rule="evenodd">
        <g id="02_GESTION-UTILISATEUR-2" transform="translate(-465.000000, -460.000000)">
            <g id="Adresse-mail" transform="translate(465.000000, 460.000000)">
                <g id="Picto-adresse-mail">
                    <path d="M10.0120548,25.9323288 C10.0120548,31.2284932 14.3052055,35.5213699 19.6010959,35.5213699 L19.6010959,35.5213699 C24.8969863,35.5213699 29.190137,31.2284932 29.190137,25.9323288 L29.190137,25.9323288 C29.190137,20.6364384 24.8969863,16.3432877 19.6010959,16.3432877 L19.6010959,16.3432877 C14.3052055,16.3432877 10.0120548,20.6364384 10.0120548,25.9323288" id="Fill-1" fill="url(#linearGradient-1)"></path>
                    <path d="M17.3740274,1.10676712 C18.7012534,0.0426232877 20.5327203,-0.00171603882 21.9024487,0.973749144 L22.078411,1.10676712 L25.477863,3.83306849 L31.0312877,3.83306849 C32.8565662,3.83306849 34.3528691,5.26852877 34.4505945,7.06960003 L34.4556712,7.25717808 L34.4556712,11.0322466 L39.1003288,14.7582055 L39.1003288,14.7582055 L39.1716986,14.823 L39.1716986,14.823 L39.238411,14.8969041 L39.238411,14.8969041 L39.2836164,14.9586849 L39.2836164,14.9586849 L39.3360137,15.0459795 L39.3360137,15.0459795 L39.3753973,15.1288562 L39.3753973,15.1288562 L39.4101918,15.2221096 L39.4101918,15.2221096 L39.4304315,15.3013562 L39.4304315,15.3013562 L39.445363,15.4025548 L39.445363,15.4025548 L39.4521096,15.4990959 L39.4521096,37.0349863 C39.4521096,38.5553875 38.2591032,39.8024391 36.7601481,39.889575 L36.5923836,39.8944384 L2.85950685,39.8944384 C1.33910568,39.8944384 0.0920540257,38.7016867 0.00491819512,37.2027498 L5.47945219e-05,37.0349863 L5.47945219e-05,15.4990959 L0.0082739726,15.3826575 L0.0082739726,15.3826575 C0.0151232877,15.327863 0.0260821918,15.2741644 0.0416986301,15.2221096 L0.0766643836,15.1288562 L0.0766643836,15.1288562 L0.128273973,15.0237534 L0.128273973,15.0237534 L0.168445205,14.9587877 L0.168445205,14.9587877 L0.221972603,14.8856712 L0.221972603,14.8856712 L0.280328767,14.823 L0.280328767,14.823 L0.344438356,14.7656712 L0.358958904,14.7511507 L4.74690411,11.2325205 L4.74690411,7.25717808 C4.74690411,5.43216438 6.18210837,3.93587032 7.98316257,3.83814518 L8.17073973,3.83306849 L13.9743014,3.83306849 L17.3740274,1.10676712 Z M23.4107397,28.4256712 L21.8301918,29.6527945 C20.6451531,30.5726278 19.0101674,30.6128712 17.7862427,29.7728055 L17.6219726,29.6527945 L16.0414247,28.4256712 L3.41457534,37.9766301 L36.037589,37.9766301 L23.4107397,28.4256712 Z M37.5343014,17.458 L24.9795068,27.207589 L37.5343014,36.7043014 L37.5343014,17.458 Z M1.91786301,17.458 L1.91786301,36.7043014 L14.4729315,27.207589 L1.91786301,17.458 Z M31.0312877,5.75087671 L8.17073973,5.75087671 C7.38646271,5.75087671 6.74025858,6.35375427 6.67087873,7.1202964 L6.66471233,7.25717808 L6.66471233,18.7160822 L18.798137,28.138 C19.3056712,28.5323249 20.0000646,28.5600185 20.5340736,28.2223969 L20.6543014,28.138 L32.537863,18.9097808 L32.537863,7.25717808 C32.537863,6.47290107 31.9349855,5.82645256 31.1682125,5.75704556 L31.0312877,5.75087671 Z M19.6010137,9.21665753 C23.3440274,9.21665753 26.3895068,12.261863 26.3895068,16.0048767 C26.3895068,17.4892603 25.6341644,18.712 24.418274,19.1961096 C23.4736164,19.572 22.438,19.4300822 21.5095068,18.8289863 C21.0043014,19.171726 20.3297808,19.3626849 19.6804658,19.3626849 C18.9456712,19.3626849 18.2958082,19.1369315 17.8015616,18.7100822 C17.3873151,18.352 16.8933425,17.6796712 16.8933425,16.5103562 C16.8933425,14.282411 18.0947123,13.452274 18.8106027,13.1558356 C20.0292329,12.6511781 21.4095068,13.0010411 22.0399178,13.6314521 C22.1896895,13.7812237 22.2848569,13.975516 22.3124191,14.1832532 L22.3207397,14.3092603 L22.3207397,17.0473425 C22.797726,17.4446027 23.2911507,17.5804932 23.7086849,17.4141918 C24.1793699,17.2270685 24.4716986,16.6867945 24.4716986,16.0048767 C24.4716986,13.3191233 22.2867671,11.1344658 19.6010137,11.1344658 C16.9155342,11.1344658 14.7306027,13.3191233 14.7306027,16.0048767 C14.7306027,18.6906301 16.9155342,20.8752877 19.6010137,20.8752877 C20.1306027,20.8752877 20.5599178,21.3048767 20.5599178,21.8341918 C20.5599178,22.3637808 20.1306027,22.7930959 19.6010137,22.7930959 C15.858,22.7930959 12.8127945,19.7478904 12.8127945,16.0048767 C12.8127945,12.261863 15.858,9.21665753 19.6010137,9.21665753 Z M20.047863,14.8328219 C19.8730685,14.8328219 19.6845753,14.8626849 19.5086849,14.9429589 C19.0459452,15.1544658 18.8111507,15.681863 18.8111507,16.5103562 C18.8111507,17.1993973 19.1160822,17.3196712 19.2459452,17.3709041 C19.6187671,17.5176164 20.0836849,17.4226603 20.3295255,17.3093293 L20.4029315,17.2711781 L20.4029315,14.8736438 C20.2996438,14.8492603 20.177726,14.8328219 20.047863,14.8328219 Z M34.4556712,13.4903288 L34.4556712,17.4204658 L36.9452603,15.4870411 L34.4556712,13.4903288 Z M4.74690411,13.6908767 L2.50663014,15.4870411 L4.74690411,17.2264932 L4.74690411,13.6908767 Z M20.8786849,2.60293151 C20.2452968,2.09509589 19.3773053,2.06076286 18.7128595,2.50126892 L18.5737534,2.60293151 L17.0395068,3.83306849 L22.4126575,3.83306849 L20.8786849,2.60293151 Z" id="Shape" fill="#394157"></path>
                </g>
            </g>
        </g>
    </g>
</svg>