<?xml version="1.0" encoding="UTF-8"?>
<svg width="40px" height="40px" viewBox="0 0 40 40" version="1.1" xmlns="http://www.w3.org/2000/svg" xmlns:xlink="http://www.w3.org/1999/xlink">
    <title>46C27BCE-B9ED-4C2E-AB6D-1D7532C6DC48</title>
    <defs>
        <linearGradient x1="14.6442864%" y1="14.6466419%" x2="85.3539544%" y2="85.3542896%" id="linearGradient-1">
            <stop stop-color="#0095D4" offset="0%"></stop>
            <stop stop-color="#99EDE8" offset="100%"></stop>
        </linearGradient>
    </defs>
    <g id="Page-1" stroke="none" stroke-width="1" fill="none" fill-rule="evenodd">
        <g id="00_ACCUEIL" transform="translate(-709.000000, -310.000000)">
            <g id="Créer-session-rupture" transform="translate(709.000000, 310.000000)">
                <g id="Picto-créer-session">
                    <path d="M5.49534247,16.2169863 C5.49534247,21.5126027 9.78849315,25.8057534 15.0843836,25.8057534 L15.0843836,25.8057534 C20.380274,25.8057534 24.6736986,21.5126027 24.6736986,16.2169863 L24.6736986,16.2169863 C24.6736986,10.9210959 20.380274,6.62794521 15.0843836,6.62794521 L15.0843836,6.62794521 C9.78849315,6.62794521 5.49534247,10.9210959 5.49534247,16.2169863" id="Fill-1" fill="url(#linearGradient-1)"></path>
                    <path d="M28.262137,0.274027397 C33.4514521,0.274027397 37.6733699,4.49594521 37.6733699,9.68553425 C37.6733699,13.4943435 35.3985103,16.7811264 32.1364871,18.2604678 L31.8769315,18.3734795 L31.8769315,20.0943014 L38.6289863,20.0943014 C38.951726,20.0943014 39.2525479,20.2564932 39.4300822,20.5260822 C39.5851849,20.7617329 39.6274366,21.0519212 39.5500463,21.3193768 L39.5095342,21.4323836 L32.3555616,38.0406027 C31.8002192,39.1970411 30.612274,39.9449863 29.3289863,39.9449863 L29.2692603,39.9386849 L29.2692603,39.9386849 L29.2098082,39.9449863 L3.04569863,39.9449863 C1.42622701,39.9449863 0.0979375874,38.6742804 0.00512542433,37.0779006 L-5.47945247e-05,36.8992329 L-5.47945247e-05,11.637863 C-5.47945247e-05,11.1463562 0.370119933,10.7408376 0.847020668,10.685414 L0.958849315,10.6789589 L8.44049315,10.6789589 C9.4517089,10.6789589 10.3964649,11.1901693 10.9526209,12.0249948 L11.0585753,12.1962192 L12.8925479,15.3959452 L20.7887123,15.3959452 C19.5744658,13.8110137 18.8509041,11.8318356 18.8509041,9.68553425 C18.8509041,4.49594521 23.0728219,0.274027397 28.262137,0.274027397 Z M37.171726,22.0121096 L12.672,22.0121096 L5.71391781,38.0269041 L29.2098082,38.0269041 L29.2692603,38.0326575 L29.3289863,38.0269041 C29.8280046,38.0269041 30.2936419,37.7630799 30.553488,37.3439002 L30.6191233,37.2258082 L37.171726,22.0121096 Z M8.44049315,12.5967671 L1.91775342,12.5967671 L1.91775342,36.8992329 C1.91775342,37.4794338 2.35855951,37.9589199 2.92297587,38.0202728 L3.04569863,38.0269041 L3.6229589,38.0269041 L11.1635068,20.6710137 C11.2986667,20.3597808 11.5868723,20.1461769 11.91729,20.1025517 L12.0429589,20.0943014 L29.9591233,20.0943014 L29.9591233,18.9403288 C29.4081644,19.0411507 28.841863,19.0964932 28.262137,19.0964932 C26.3300177,19.0964932 24.533076,18.5094296 23.0373678,17.506612 L22.7604932,17.3137534 L12.3369315,17.3137534 C12.0360753,17.3137534 11.7553562,17.1730043 11.5755317,16.9381252 L11.5048767,16.8318356 L9.39473973,13.1496438 C9.22085845,12.846691 8.91276442,12.6454801 8.57032347,12.6045068 L8.44049315,12.5967671 Z M28.262137,2.19183562 C24.1303562,2.19183562 20.7687123,5.55347945 20.7687123,9.68553425 C20.7687123,13.8173151 24.1303562,17.1786849 28.262137,17.1786849 C32.3941918,17.1786849 35.7555616,13.8173151 35.7555616,9.68553425 C35.7555616,5.55347945 32.3941918,2.19183562 28.262137,2.19183562 Z M28.2623562,4.19608219 C28.7541174,4.19608219 29.1594179,4.56625692 29.214809,5.04315765 L29.2212603,5.1549863 L29.2212603,8.72649315 L32.7924932,8.72649315 C33.3220822,8.72649315 33.7513973,9.15580822 33.7513973,9.68539726 C33.7513973,10.1771585 33.3812225,10.582459 32.9043218,10.6378501 L32.7924932,10.6443014 L29.2212603,10.6443014 L29.2212603,14.2155342 C29.2212603,14.7451233 28.7919452,15.1744384 28.2623562,15.1744384 C27.7705949,15.1744384 27.3652944,14.8042636 27.3099033,14.3273629 L27.3034521,14.2155342 L27.3034521,10.6443014 L23.7319452,10.6443014 C23.2023562,10.6443014 22.7730411,10.2149863 22.7730411,9.68539726 C22.7730411,9.19363601 23.1432158,8.78833548 23.6201166,8.73294439 L23.7319452,8.72649315 L27.3034521,8.72649315 L27.3034521,5.1549863 C27.3034521,4.62539726 27.7327671,4.19608219 28.2623562,4.19608219 Z" id="Shape" fill="#394157"></path>
                </g>
            </g>
        </g>
    </g>
</svg>