<?xml version="1.0" encoding="UTF-8"?>
<svg width="39px" height="39px" viewBox="0 0 39 39" version="1.1" xmlns="http://www.w3.org/2000/svg" xmlns:xlink="http://www.w3.org/1999/xlink">
    <title>43A085A8-4EDF-497C-800D-0FD79C1E3075</title>
    <defs>
        <linearGradient x1="14.6458804%" y1="14.6454367%" x2="85.3555483%" y2="85.3561149%" id="linearGradient-1">
            <stop stop-color="#0095D4" offset="0%"></stop>
            <stop stop-color="#99EDE8" offset="100%"></stop>
        </linearGradient>
    </defs>
    <g id="Page-1" stroke="none" stroke-width="1" fill="none" fill-rule="evenodd">
        <g id="02_GESTION-UTILISATEUR-2" transform="translate(-466.000000, -965.000000)">
            <g id="Statut" transform="translate(466.000000, 965.000000)">
                <g id="Picto-statut">
                    <path d="M0,15.8388239 L0,15.9722018 C0.0360841965,21.1081858 4.21115937,25.2605413 9.35489475,25.2605413 L9.35489475,25.2605413 C14.5216171,25.2605413 18.7100568,21.0723689 18.7100568,15.9053792 L18.7100568,15.9053792 C18.7100568,10.7386569 14.5216171,6.55021717 9.35489475,6.55021717 L9.35489475,6.55021717 C4.21115937,6.55021717 0.0360841965,10.70284 0,15.8388239" id="Fill-1" fill="url(#linearGradient-1)"></path>
                    <path d="M17.0609021,0.267236886 C22.1629402,0.267236886 26.3142265,4.41825593 26.3142265,9.5208286 C26.3142265,12.9704778 24.4153959,15.9833745 21.6091146,17.5742867 C22.3438958,17.7958704 23.0546208,18.0722486 23.7402205,18.3940662 C25.3183027,17.1148146 27.3267224,16.3463548 29.5118209,16.3463548 C34.5745673,16.3463548 38.6932442,20.4650317 38.6932442,25.5280454 C38.6932442,29.3204143 36.3815072,32.5804586 33.0938502,33.9790501 L32.8390511,34.0829402 L32.8390511,37.8070966 C32.8390511,38.2868636 32.4776746,38.6822788 32.0125866,38.7363189 L31.9035349,38.7426128 L2.218002,38.7426128 C1.73823493,38.7426128 1.34281978,38.3814667 1.28877969,37.9161977 L1.2824858,37.8070966 L1.2824858,32.6812696 C1.2824858,25.5622586 6.02314734,19.5319211 12.5124223,17.5742867 C9.70640829,15.9833745 7.80731039,12.9704778 7.80731039,9.5208286 C7.80731039,4.41825593 11.9585967,0.267236886 17.0609021,0.267236886 Z M17.0609021,18.774153 C9.4973909,18.774153 3.32471319,24.843221 3.15701804,32.3669514 L3.15351821,32.6812696 L3.15351821,36.8715804 L30.9680187,36.8715804 L30.9680187,34.5929302 C30.4933111,34.6688406 30.0073772,34.7094688 29.5118209,34.7094688 C24.4488072,34.7094688 20.3301303,30.5907918 20.3301303,25.5280454 C20.3301303,23.3694086 21.0809489,21.3839759 22.3318677,19.8147143 C20.7051387,19.1459539 18.9257868,18.774153 17.0609021,18.774153 Z M29.5118209,18.2173872 C28.0518811,18.2173872 26.6913732,18.6493284 25.5484397,19.3897227 C24.9951487,19.748159 24.4929101,20.1787638 24.0556231,20.6689743 C22.9033344,21.9615904 22.2011627,23.6639626 22.2011627,25.5280454 C22.2011627,29.5590511 25.4808152,32.8384364 29.5118209,32.8384364 C30.0103174,32.8384364 30.4973204,32.7879185 30.9680187,32.6924958 C31.6234146,32.5593852 32.2464684,32.3367324 32.8256866,32.040842 C35.1949482,30.830284 36.8222118,28.3664016 36.8222118,25.5280454 C36.8222118,21.4970398 33.5428266,18.2173872 29.5118209,18.2173872 Z M33.5066889,22.3439759 C33.8720748,21.97859 34.464123,21.97859 34.8295089,22.3439759 C35.1644459,22.678668 35.1923574,23.2044931 34.9132431,23.5710406 L34.8295089,23.6667959 L28.9106315,29.5859405 C28.7278049,29.7684998 28.4888473,29.8599131 28.2490879,29.8599131 C28.0499566,29.8599131 27.8502684,29.7964317 27.6834347,29.6696234 L27.5875443,29.5859405 L24.1937588,26.1918877 C23.8283729,25.8265018 23.8283729,25.2341864 24.1937588,24.8688005 C24.5286958,24.5338635 25.0540921,24.505952 25.4207724,24.7850663 L25.5165787,24.8688005 L28.2490879,27.6013097 L33.5066889,22.3439759 Z M17.0609021,2.1382693 C12.9900702,2.1382693 9.6783428,5.45026395 9.6783428,9.5208286 C9.6783428,13.5916605 12.9900702,16.9031206 17.0609021,16.9031206 C21.1314668,16.9031206 24.4431941,13.5916605 24.4431941,9.5208286 C24.4431941,5.45026395 21.1314668,2.1382693 17.0609021,2.1382693 Z" id="Shape" fill="#394157"></path>
                </g>
            </g>
        </g>
    </g>
</svg>