<?xml version="1.0" encoding="UTF-8"?>
<svg width="36px" height="40px" viewBox="0 0 36 40" version="1.1" xmlns="http://www.w3.org/2000/svg" xmlns:xlink="http://www.w3.org/1999/xlink">
    <title>B5F31A46-FED1-4742-B0A2-E5ED1ABA0EA2</title>
    <defs>
        <linearGradient x1="14.644661%" y1="14.644912%" x2="85.3553391%" y2="85.3555901%" id="linearGradient-1">
            <stop stop-color="#0095D4" offset="0%"></stop>
            <stop stop-color="#99EDE8" offset="100%"></stop>
        </linearGradient>
    </defs>
    <g id="Page-1" stroke="none" stroke-width="1" fill="none" fill-rule="evenodd">
        <g id="02_GESTION-UTILISATEUR-2" transform="translate(-465.000000, -293.000000)">
            <g id="Nom" transform="translate(465.000000, 293.000000)">
                <g id="Picto-nom">
                    <path d="M-5.22886577e-13,16.5226554 C-5.22886577e-13,21.8218578 4.29583558,26.1176934 9.59503799,26.1176934 L9.59503799,26.1176934 C14.8942404,26.1176934 19.190076,21.8218578 19.190076,16.5226554 L19.190076,16.5226554 C19.190076,11.223453 14.8942404,6.92761743 9.59503799,6.92761743 L9.59503799,6.92761743 C4.29583558,6.92761743 -5.22886577e-13,11.223453 -5.22886577e-13,16.5226554" id="Fill-1" fill="url(#linearGradient-1)"></path>
                    <path d="M31.6404602,-7.2876178e-14 C33.9431364,-7.2876178e-14 35.8292387,1.8163242 35.9414334,4.09138904 L35.9467133,4.30597891 L35.9467133,35.4295407 C35.9467133,37.7319511 34.1303891,39.6180453 31.8550743,39.7302398 L31.6404602,39.7355196 L7.89027389,39.7355196 C5.58786352,39.7355196 3.70176931,37.9191954 3.58957481,35.6441306 L3.58429498,35.4295407 L3.58429498,4.30597891 C3.58429498,2.00356854 5.40061918,0.11747433 7.67568402,0.00527983215 L7.89027389,-7.2876178e-14 L31.6404602,-7.2876178e-14 Z M31.6404602,1.9190076 L7.89027389,1.9190076 C6.62868631,1.9190076 5.59294051,2.90243902 5.50881861,4.1427959 L5.50330258,4.30597891 L5.50330258,35.4295407 C5.50330258,36.6908656 6.48648223,37.7268522 7.7270594,37.8109946 L7.89027389,37.816512 L31.6404602,37.816512 C32.9020478,37.816512 33.9380454,36.8330806 34.0221882,35.5927237 L34.0277057,35.4295407 L34.0277057,4.30597891 C34.0277057,3.04465405 33.0442742,2.00866742 31.8036761,1.924525 L31.6404602,1.9190076 Z M26.0017854,31.2231309 C26.5317056,31.2231309 26.9612892,31.6527145 26.9612892,32.1826347 C26.9612892,32.6747035 26.5908829,33.0802575 26.1136839,33.1356832 L26.0017854,33.1421385 L13.5290584,33.1421385 C12.9991382,33.1421385 12.5695546,32.7125549 12.5695546,32.1826347 C12.5695546,31.6905659 12.9399608,31.2850119 13.4171598,31.2295862 L13.5290584,31.2231309 L26.0017854,31.2231309 Z M24.1720664,26.2189348 C24.7019867,26.2189348 25.1315702,26.6485183 25.1315702,27.1784386 C25.1315702,27.6705074 24.761164,28.0760614 24.283965,28.1314871 L24.1720664,28.1379424 L15.358887,28.1379424 C14.8289667,28.1379424 14.3993832,27.7083588 14.3993832,27.1784386 C14.3993832,26.6863698 14.7697894,26.2808158 15.2469884,26.2253901 L15.358887,26.2189348 L24.1720664,26.2189348 Z M19.7653122,3.96442297 C22.2953867,3.96442297 24.3539335,6.02269569 24.3539335,8.55277014 C24.3539335,9.87853025 23.7850849,11.0710564 22.8831513,11.9093886 C25.3499162,13.0528341 27.0900998,15.5074636 27.1998028,18.3740986 L27.2053047,18.6621022 L27.2053047,20.8637522 C27.2053047,21.355821 26.8348985,21.761375 26.3576995,21.8168007 L26.2458009,21.823256 L13.2850977,21.823256 C12.7930289,21.823256 12.3874749,21.4528497 12.3320492,20.9756508 L12.3255939,20.8637522 L12.3255939,18.6621022 C12.3255939,15.6725625 14.0987569,13.090949 16.6477473,11.9093886 C15.7455396,11.0710564 15.1772392,9.87853025 15.1772392,8.55277014 C15.1772392,6.02269569 17.2355119,3.96442297 19.7653122,3.96442297 Z M19.7653122,13.1411173 C16.7954641,13.1411173 14.3657496,15.4983964 14.2489937,18.4403844 L14.2446015,18.6621022 L14.2446015,19.9042484 L25.2862971,19.9042484 L25.2862971,18.6621022 C25.2862971,15.6177337 22.8096807,13.1411173 19.7653122,13.1411173 Z M19.7653122,5.88343057 C18.2937075,5.88343057 17.0962468,7.08116545 17.0962468,8.55277014 C17.0962468,10.024649 18.2937075,11.2221097 19.7653122,11.2221097 C21.2371911,11.2221097 22.4349259,10.024649 22.4349259,8.55277014 C22.4349259,7.08116545 21.2371911,5.88343057 19.7653122,5.88343057 Z" id="Shape" fill="#394157"></path>
                </g>
            </g>
        </g>
    </g>
</svg>