<?xml version="1.0" encoding="UTF-8"?>
<svg width="36px" height="40px" viewBox="0 0 36 40" version="1.1" xmlns="http://www.w3.org/2000/svg" xmlns:xlink="http://www.w3.org/1999/xlink">
    <title>4A109396-4D63-4C3E-B962-29BD8EB80B56</title>
    <defs>
        <linearGradient x1="14.6447057%" y1="14.6455489%" x2="85.3553839%" y2="85.356227%" id="linearGradient-1">
            <stop stop-color="#0095D4" offset="0%"></stop>
            <stop stop-color="#99EDE8" offset="100%"></stop>
        </linearGradient>
    </defs>
    <g id="Page-1" stroke="none" stroke-width="1" fill="none" fill-rule="evenodd">
        <g id="02_GESTION-UTILISATEUR-2" transform="translate(-465.000000, -377.000000)">
            <g id="Prénom" transform="translate(465.000000, 377.000000)">
                <g id="Picto-prénom">
                    <path d="M16.739421,27.1783563 C16.739421,32.4778329 21.0352566,36.7733943 26.334459,36.7733943 L26.334459,36.7733943 C31.6336614,36.7733943 35.929497,32.4778329 35.929497,27.1783563 L35.929497,27.1783563 C35.929497,21.8791539 31.6336614,17.5833183 26.334459,17.5833183 L26.334459,17.5833183 C21.0352566,17.5833183 16.739421,21.8791539 16.739421,27.1783563" id="Fill-1" fill="url(#linearGradient-1)"></path>
                    <path d="M28.0564394,-7.2876178e-14 C30.3588497,-7.2876178e-14 32.244944,1.8163242 32.3571385,4.09138904 L32.3624183,4.30597891 L32.3624183,35.4295407 C32.3624183,37.7319511 30.5460941,39.6180453 28.2710292,39.7302398 L28.0564394,39.7355196 L4.30597891,39.7355196 C2.00356854,39.7355196 0.11747433,37.9191954 0.00527983215,35.6441306 L6.92323691e-13,35.4295407 L6.92323691e-13,4.30597891 C6.92323691e-13,2.00356854 1.8163242,0.11747433 4.09138904,0.00527983215 L4.30597891,-7.2876178e-14 L28.0564394,-7.2876178e-14 Z M28.0564394,1.9190076 L4.30597891,1.9190076 C3.04439133,1.9190076 2.00864553,2.90243902 1.92452364,4.1427959 L1.9190076,4.30597891 L1.9190076,35.4295407 C1.9190076,36.6908656 2.90218725,37.7268522 4.14276442,37.8109946 L4.30597891,37.816512 L28.0564394,37.816512 C29.3177642,37.816512 30.3537509,36.8330806 30.4378933,35.5927237 L30.4434107,35.4295407 L30.4434107,4.30597891 C30.4434107,3.04465405 29.4599793,2.00866742 28.2196224,1.924525 L28.0564394,1.9190076 Z M20.5877441,31.2231309 C21.1176643,31.2231309 21.5472479,31.6527145 21.5472479,32.1826347 C21.5472479,32.6747035 21.1768416,33.0802575 20.6996426,33.1356832 L20.5877441,33.1421385 L11.7745646,33.1421385 C11.2446443,33.1421385 10.8150608,32.7125549 10.8150608,32.1826347 C10.8150608,31.6905659 11.185467,31.2850119 11.662666,31.2295862 L11.7745646,31.2231309 L20.5877441,31.2231309 Z M22.4176,26.2189348 C22.9475203,26.2189348 23.3771038,26.6485183 23.3771038,27.1784386 C23.3771038,27.6705074 23.0066976,28.0760614 22.5294986,28.1314871 L22.4176,28.1379424 L9.94459894,28.1379424 C9.41467869,28.1379424 8.98509514,27.7083588 8.98509514,27.1784386 C8.98509514,26.6863698 9.35550137,26.2808158 9.83270035,26.2253901 L9.94459894,26.2189348 L22.4176,26.2189348 Z M16.1812914,3.96442297 C18.7110917,3.96442297 20.7696386,6.02269569 20.7696386,8.55277014 C20.7696386,9.87853025 20.201064,11.0710564 19.2988563,11.9093886 C21.7656212,13.0528341 23.5058048,15.5074636 23.6155078,18.3740986 L23.6210097,18.6621022 L23.6210097,20.8637522 C23.6210097,21.355821 23.2506035,21.761375 22.7734045,21.8168007 L22.6615059,21.823256 L9.70080273,21.823256 C9.20873393,21.823256 8.80317993,21.4528497 8.7477542,20.9756508 L8.74129893,20.8637522 L8.74129893,18.6621022 C8.74129893,15.6725625 10.5144619,13.090949 13.0634523,11.9093886 C12.1615188,11.0710564 11.5929442,9.87853025 11.5929442,8.55277014 C11.5929442,6.02269569 13.6512169,3.96442297 16.1812914,3.96442297 Z M16.1812914,13.1411173 C13.2111758,13.1411173 10.7814548,15.4983964 10.6646987,18.4403844 L10.6603065,18.6621022 L10.6603065,19.9042484 L21.7020021,19.9042484 L21.7020021,18.6621022 C21.7020021,15.6177337 19.2253857,13.1411173 16.1812914,13.1411173 Z M16.1812914,5.88343057 C14.7094126,5.88343057 13.5119518,7.08116545 13.5119518,8.55277014 C13.5119518,10.024649 14.7094126,11.2221097 16.1812914,11.2221097 C17.6528961,11.2221097 18.850631,10.024649 18.850631,8.55277014 C18.850631,7.08116545 17.6528961,5.88343057 16.1812914,5.88343057 Z" id="Shape" fill="#394157"></path>
                </g>
            </g>
        </g>
    </g>
</svg>