<?xml version="1.0" encoding="UTF-8"?>
<svg width="41px" height="40px" viewBox="0 0 41 40" version="1.1" xmlns="http://www.w3.org/2000/svg" xmlns:xlink="http://www.w3.org/1999/xlink">
    <!-- Generator: Sketch 63.1 (92452) - https://sketch.com -->
    <title>Picto prévisions</title>
    <desc>Created with Sketch.</desc>
    <g id="Page-1" stroke="none" stroke-width="1" fill="none" fill-rule="evenodd">
        <g id="54_DASHBOARD-CONSOLIDÉ-GRAPHIQUES" transform="translate(-465.000000, -322.000000)">
            <g id="Prévisions-infos" transform="translate(465.000000, 322.000000)">
                <g id="Prévisions">
                    <g id="Picto-prévisions">
                        <path d="M8.6911831,18.2876338 C8.6911831,23.7324225 13.1052676,28.1467887 18.550338,28.1467887 L18.550338,28.1467887 C23.9951268,28.1467887 28.4092113,23.7324225 28.4092113,18.2876338 L28.4092113,18.2876338 C28.4092113,12.8425634 23.9951268,8.42847887 18.550338,8.42847887 L18.550338,8.42847887 C13.1052676,8.42847887 8.6911831,12.8425634 8.6911831,18.2876338" id="Fill-1" fill="url(#linearGradient-1)"></path>
                        <path d="M7.0684507,25.283662 C9.63971831,19.715493 12.5169014,18.5467606 14.4777465,18.5467606 C15.3321127,18.5467606 16.1121127,18.8135211 16.84,19.2805634 C14.2752113,26.1892958 11.3129577,33.7616901 4.75408451,34.4538028 L4.75408451,32.3414085 C4.87070423,31.7757746 5.58225352,28.5019718 7.0684507,25.283662 M25.3752113,9.4143662 C30.4723944,9.4143662 34.4014085,24.4715493 35.7997183,34.5107042 L32.2053521,34.5107042 C28.7433803,34.5107042 26.4952113,30.3732394 24.1152113,25.9935211 C22.6273239,23.2549296 21.1090141,20.4622535 19.1822535,18.636338 C20.9876056,13.7873239 22.7487324,9.4143662 25.3752113,9.4143662 M18.4242254,20.6760563 C19.8442254,22.2656338 21.0940845,24.5630986 22.3825352,26.9346479 C23.923662,29.7712676 25.4974648,32.663662 27.523662,34.5107042 L10.011831,34.5107042 C14.1439437,31.5752113 16.4912676,25.8461972 18.4242254,20.6760563 M39.76,34.5107042 L37.7870423,34.5107042 C37.5349296,32.756338 36.6611268,27.1219718 35.1022535,21.5461972 C32.4861972,12.1878873 29.2135211,7.44253521 25.3752113,7.44253521 C21.5456338,7.44253521 19.5921127,11.9225352 17.5402817,17.3974648 C16.6205634,16.8749296 15.6092958,16.5749296 14.4777465,16.5749296 C9.57126761,16.5749296 6.50676056,21.3850704 4.75408451,25.6470423 L4.75408451,0.985915493 C4.75408451,0.442253521 4.31183099,3.19744231e-13 3.76816901,3.19744231e-13 C3.22450704,3.19744231e-13 2.78225352,0.442253521 2.78225352,0.985915493 L2.78225352,32.255493 L2.78225352,32.2580282 L2.78225352,34.5107042 L0.976901408,34.5107042 C0.438309859,34.5107042 -4.26325641e-14,34.9529577 -4.26325641e-14,35.4966197 C-4.26325641e-14,36.0402817 0.438309859,36.4825352 0.976901408,36.4825352 L2.78225352,36.4825352 L2.78225352,38.7219718 C2.78225352,39.2656338 3.22450704,39.7078873 3.76816901,39.7078873 C4.31183099,39.7078873 4.75408451,39.2656338 4.75408451,38.7219718 L4.75408451,36.4825352 L39.76,36.4825352 C40.2988732,36.4825352 40.7371831,36.0402817 40.7371831,35.4966197 C40.7371831,34.9529577 40.2988732,34.5107042 39.76,34.5107042" id="Fill-4" fill="#A7ACB6"></path>
                    </g>
                </g>
            </g>
        </g>
    </g>
</svg>