<svg xmlns="http://www.w3.org/2000/svg" viewBox="0 0 34 40" width="24" height="24">
	<style>
		tspan { white-space:pre }
		.shp0 { fill: #394157 } 
	</style>
	<g id="Page-1">
		<g id="00_LOGIN-ADMIN">
			<g id="Login">
				<path id="Fill-4" fill-rule="evenodd" class="shp0" d="M21.6 17.99C28.34 20.02 33.27 26.29 33.27 33.69L33.27 39.01C33.27 39.55 32.83 39.98 32.3 39.98L1.45 39.98C0.91 39.98 0.48 39.55 0.48 39.01L0.48 33.69C0.48 26.29 5.4 20.02 12.15 17.99C9.23 16.33 7.26 13.2 7.26 9.62C7.26 4.31 11.57 0 16.87 0C22.18 0 26.49 4.31 26.49 9.62C26.49 13.2 24.52 16.33 21.6 17.99ZM9.2 9.62C9.2 13.85 12.64 17.29 16.87 17.29C21.1 17.29 24.54 13.85 24.54 9.62C24.54 5.39 21.1 1.94 16.87 1.94C12.64 1.94 9.2 5.39 9.2 9.62ZM31.33 33.69C31.33 25.72 24.84 19.23 16.87 19.23C8.9 19.23 2.42 25.72 2.42 33.69L2.42 38.04L31.33 38.04L31.33 33.69Z" />
			</g>
		</g>
	</g>
</svg>