<?xml version="1.0" encoding="UTF-8"?>
<svg width="16px" height="14px" viewBox="0 0 16 14" version="1.1" xmlns="http://www.w3.org/2000/svg" xmlns:xlink="http://www.w3.org/1999/xlink">
    <!-- Generator: Sketch 63.1 (92452) - https://sketch.com -->
    <title>Rupture picto</title>
    <desc>Created with Sketch.</desc>
    <g id="Page-1" stroke="none" stroke-width="1" fill="none" fill-rule="evenodd">
        <g id="54_DASHBOARD-CONSOLIDÉ-GRAPHIQUES" transform="translate(-1134.000000, -847.000000)" fill="#FF8585">
            <g id="Légende" transform="translate(486.000000, 845.000000)">
                <path d="M655.85377,2 C656.394814,2 656.879399,2.27972644 657.149973,2.74837108 L657.149973,2.74837108 L663.504699,13.7548868 C663.77517,14.2235314 663.77517,14.7830871 663.504597,15.2517318 C663.234023,15.7202736 662.749438,16 662.208496,16 L662.208496,16 L649.499043,16 C648.958102,16 648.473517,15.7202736 648.202943,15.2517318 C647.932369,14.7830871 647.932369,14.2235314 648.20284,13.7548868 L648.20284,13.7548868 L654.557567,2.74837108 C654.82814,2.27972644 655.312725,2 655.85377,2 Z M655.85377,3.43976846 C655.820861,3.43976846 655.810268,3.45827977 655.804509,3.46825531 L655.804509,3.46825531 L649.449783,14.474771 C649.444023,14.4847465 649.433328,14.5032578 649.449783,14.5317447 C649.466237,14.5602315 649.487628,14.5602315 649.499043,14.5602315 L649.499043,14.5602315 L662.208496,14.5602315 C662.219912,14.5602315 662.241303,14.5602315 662.257757,14.5317447 C662.274212,14.5032578 662.263516,14.4847465 662.257757,14.474771 L662.257757,14.474771 L655.90303,3.46825531 C655.897271,3.45827977 655.886679,3.43976846 655.85377,3.43976846 Z M655.853718,12.189807 C656.326271,12.189807 656.710586,12.5741224 656.710586,13.0465721 C656.710586,13.5191247 656.326271,13.90344 655.853718,13.90344 C655.381269,13.90344 654.996953,13.5191247 654.996953,13.0465721 C654.996953,12.5741224 655.381269,12.189807 655.853718,12.189807 Z M655.853718,5.76802833 C656.076883,5.76802833 656.285238,5.85616272 656.44063,6.01638838 C656.596022,6.17640837 656.67778,6.38743729 656.67089,6.61049856 L656.67089,6.61049856 L656.536991,11.0043634 C656.525473,11.3760293 656.225384,11.6670682 655.853718,11.6670682 C655.48195,11.6670682 655.181861,11.3759265 655.170548,11.0043634 L655.170548,11.0043634 L655.036547,6.61039572 C655.02976,6.38733444 655.111621,6.17640837 655.267013,6.01628554 C655.422302,5.85616272 655.630657,5.76802833 655.853718,5.76802833 Z" id="Rupture-picto"></path>
            </g>
        </g>
    </g>
</svg>