<?xml version="1.0" encoding="UTF-8"?>
<svg width="43px" height="42px" viewBox="0 0 43 42" version="1.1" xmlns="http://www.w3.org/2000/svg" xmlns:xlink="http://www.w3.org/1999/xlink">
    <title>Untitled</title>
    <defs>
        <linearGradient x1="95.5449219%" y1="91.5615404%" x2="10.5722656%" y2="9.94327069%" id="linearGradient-1">
            <stop stop-color="#99EEE8" offset="0%"></stop>
            <stop stop-color="#0096D4" offset="100%"></stop>
        </linearGradient>
    </defs>
    <g id="Page-1" stroke="none" stroke-width="1" fill="none" fill-rule="evenodd">
        <g id="User_admin_actif" fill-rule="nonzero">
            <ellipse id="Page-active-Copy" fill="url(#linearGradient-1)" cx="30.8873242" cy="29.9999999" rx="12.1126761" ry="12"></ellipse>
            <path d="M20.4470405,0.434967487 C20.8023183,0.487021541 21.0878665,0.752643162 21.1620157,1.10072425 L21.8858299,4.48594046 C22.7969814,4.75715668 23.6813705,5.12153506 24.5257385,5.57372425 L27.4551238,3.68567019 C27.7563857,3.49131884 28.147265,3.50372425 28.436005,3.71583235 C29.8499963,4.7561837 31.0989933,5.9947783 32.1483766,7.3978053 C32.3622308,7.68361614 32.3740161,8.07061614 32.1780853,8.36883234 L30.2710754,11.2736432 C30.7253008,12.1089404 31.0913819,12.9829135 31.3634261,13.8824269 L34.7784641,14.5987783 C35.1303046,14.672481 35.3986659,14.9553729 35.4509632,15.3078323 C35.5786373,16.1706161 35.643702,17.0421567 35.643702,17.8983729 C35.643702,18.767481 35.5776552,19.6477783 35.4475258,20.5149404 C35.3947374,20.8666702 35.1266217,21.1488323 34.7755178,21.2225351 L31.3550781,21.9401026 C31.0820519,22.8366972 30.7164618,23.7065351 30.2642007,24.536481 L32.1699829,27.4391026 C32.3659137,27.7373188 32.3538829,28.1250485 32.1397831,28.4108594 C31.0886811,29.8138864 29.8362468,31.0532107 28.4175905,32.0940485 C28.1288505,32.3056702 27.7379712,32.3173459 27.4376914,32.123481 L24.5051143,30.2339675 C23.6686031,30.6803188 22.7928075,31.0403188 21.8912315,31.3091026 L21.1671718,34.6957783 C21.092777,35.0438594 20.8074744,35.309481 20.4521965,35.3615351 C19.5786107,35.489481 18.6937306,35.5544269 17.8216179,35.5544269 C16.9499963,35.5544269 16.0648707,35.489481 15.1912848,35.3615351 C14.8357614,35.309481 14.5507043,35.0438594 14.4763096,34.6957783 L13.7522498,31.3091026 C12.8506739,31.0403188 11.9751238,30.6803188 11.138367,30.2339675 L8.20603551,32.123481 C7.90551015,32.3175891 7.51463082,32.3059135 7.22613637,32.0940485 C5.80698905,31.0529675 4.55455471,29.8136432 3.50369823,28.4108594 C3.28959849,28.1250485 3.27756766,27.7373188 3.47325284,27.4391026 L5.37952616,24.536481 C4.92677397,23.7062918 4.56142947,22.8366972 4.28840321,21.9401026 L0.868209069,21.2225351 C0.516859623,21.1488323 0.248989429,20.8666702 0.196201078,20.5149404 C0.0658261255,19.6477783 2.48309859e-05,18.767481 2.48309859e-05,17.8983729 C2.48309859e-05,17.0399675 0.0648440164,16.1684269 0.192763696,15.3078323 C0.245060994,14.9556161 0.513176715,14.6727242 0.864771692,14.5990216 L4.28005529,13.8824269 C4.55234497,12.9824269 4.91818052,12.1086972 5.37240588,11.2736432 L3.46515045,8.36883234 C3.26946526,8.07061614 3.28125057,7.68361614 3.49510477,7.3978053 C4.54473362,5.99453506 5.79373058,4.75569722 7.20723079,3.71583235 C7.49572524,3.503481 7.88709561,3.49131884 8.18811202,3.68567019 L11.1179883,5.57372425 C11.9621109,5.12153506 12.8464999,4.75715668 13.7578969,4.48594046 L14.4814656,1.100481 C14.5558604,0.752643162 14.841163,0.487021541 15.1964409,0.434967487 C16.9389475,0.179318838 18.7045338,0.179318838 20.4470405,0.434967487 Z M16.0366351,2.0437783 L15.3312353,5.34361613 C15.2637153,5.65934587 15.0216255,5.91037289 14.7058775,5.99137289 C13.5948669,6.27596748 12.5241226,6.71696748 11.5231082,7.30221072 C11.2422251,7.46664318 10.8913667,7.45910262 10.6176038,7.28250804 L7.76187676,5.44212965 C6.82985546,6.18183235 5.98401417,7.02077832 5.23761143,7.94607558 L7.09698902,10.7776702 C7.27475078,11.0483999 7.28260761,11.3952648 7.11736781,11.6737783 C6.52859352,12.6647513 6.08541693,13.7235891 5.80011429,14.8206161 C5.71859925,15.1339135 5.46521516,15.3742378 5.14602978,15.4411297 L1.81717177,16.1397242 C1.75186153,16.7266702 1.71871535,17.3160485 1.71871535,17.8983729 C1.71871535,18.4899404 1.75259811,19.0875891 1.81962704,19.6818323 L5.15315007,20.3811567 C5.47184439,20.4478053 5.72498296,20.6876432 5.80698905,20.9997242 C6.09401039,22.0945621 6.53718698,23.149508 7.12399702,24.1351297 C7.28997345,24.4136432 7.28236208,24.7612378 7.10435486,25.0319675 L5.24620489,27.8618594 C5.99408079,28.7871567 6.84262283,29.6270756 7.77881816,30.3677513 L10.6374915,28.5254269 C10.9107633,28.3493188 11.2606396,28.3412918 11.5417683,28.5049945 C12.536399,29.0846432 13.5992863,29.521508 14.7004759,29.8039135 C15.0162239,29.8849135 15.2583137,30.1356972 15.3258337,30.4516702 L16.0314789,33.7527242 C17.2264599,33.8843188 18.4167759,33.8843188 19.6120024,33.7527242 L20.3176476,30.4516702 C20.3849221,30.1356972 20.6275029,29.8849135 20.9430054,29.8039135 C22.0444405,29.521508 23.1070823,29.0843999 24.1017131,28.5049945 C24.3828417,28.3415351 24.732718,28.3493188 25.0059898,28.5254269 L27.8646632,30.3677513 C28.800613,29.6273188 29.649155,28.7873999 30.3972764,27.8618594 L28.5391265,25.0319675 C28.3613648,24.7612378 28.3535079,24.4136432 28.5192388,24.1351297 C29.1062943,23.1497513 29.5492254,22.0948053 29.8364923,20.9997242 C29.9184984,20.6876432 30.1718824,20.4478053 30.4903313,20.3811567 L33.8240998,19.6818323 C33.8911287,19.0875891 33.9250115,18.4899404 33.9250115,17.8983729 C33.9250115,17.3172648 33.8918653,16.7278864 33.826064,16.139481 L30.4976971,15.4411297 C30.1782662,15.3742378 29.9248821,15.1339135 29.843367,14.8206161 C29.5585554,13.7243188 29.1151333,12.665481 28.5261135,11.6735351 C28.3611192,11.3952648 28.3689761,11.0483999 28.5464923,10.7776702 L30.4058699,7.94607558 C29.6597127,7.02102156 28.8136259,6.18183235 27.881359,5.44212965 L25.025632,7.28250804 C24.7518691,7.45885938 24.4012563,7.46664318 24.1201276,7.30196748 C23.1193587,6.71696748 22.0486145,6.27596748 20.9376038,5.99137289 C20.6218558,5.91037289 20.3795205,5.65934587 20.3120005,5.34337289 L19.6068463,2.0437783 C18.4160393,1.91267019 17.2274421,1.91267019 16.0366351,2.0437783 Z M17.8218143,11.038354 C21.6400081,11.038354 24.7461729,14.1156242 24.7461729,17.8982999 C24.7461729,21.6809756 21.6400081,24.7584891 17.8218143,24.7584891 C14.0036206,24.7584891 10.8972102,21.6809756 10.8972102,17.8982999 C10.8972102,14.1156242 14.0036206,11.038354 17.8218143,11.038354 Z M17.8218143,12.7410567 C14.9513556,12.7410567 12.6159008,15.0547864 12.6159008,17.8982999 C12.6159008,20.7422999 14.9513556,23.0557864 17.8218143,23.0557864 C20.6920275,23.0557864 23.0274824,20.7422999 23.0274824,17.8982999 C23.0274824,15.0547864 20.6920275,12.7410567 17.8218143,12.7410567 Z M17.8218143,14.4390161 C19.7472388,14.4390161 21.3137024,15.990908 21.3137024,17.8984216 C21.3137024,19.8059351 19.7472388,21.3578269 17.8218143,21.3578269 C15.8963899,21.3578269 14.3299262,19.8059351 14.3299262,17.8984216 C14.3299262,15.990908 15.8963899,14.4390161 17.8218143,14.4390161 Z M17.8218143,16.1417188 C16.844125,16.1417188 16.0486167,16.9295837 16.0486167,17.8984216 C16.0486167,18.8670161 16.844125,19.6551242 17.8218143,19.6551242 C18.7995037,19.6551242 19.5950119,18.8670161 19.5950119,17.8984216 C19.5950119,16.9295837 18.7995037,16.1417188 17.8218143,16.1417188 Z" id="Picto-admin" fill="#394157"></path>
        </g>
    </g>
</svg>