<?xml version="1.0" encoding="UTF-8"?>
<svg width="43px" height="42px" viewBox="0 0 43 42" version="1.1" xmlns="http://www.w3.org/2000/svg" xmlns:xlink="http://www.w3.org/1999/xlink">
    <title>Untitled</title>
    <g id="Page-1" stroke="none" stroke-width="1" fill="none" fill-rule="evenodd">
        <g id="User_lab_inactif" fill="#C4CBD9" fill-rule="nonzero">
            <path d="M21.5416359,6.4997737 C25.7891462,1.86597826 30.1603186,-0.882014728 33.0680083,0.785515372 C36.0385669,2.48927691 35.7541738,7.80970239 33.7224979,13.9443044 C34.5893186,14.1711191 35.4155117,14.4229718 36.1909945,14.6998625 C40.4844703,16.2330712 42.8488772,18.4057795 42.8488772,20.8179689 C42.8488772,23.2298637 40.4844703,25.4025721 36.1909945,26.9357807 C35.3484911,27.2368257 34.4448979,27.5069414 33.4956359,27.748779 C33.9054703,29.09435 34.2304911,30.3927907 34.4558703,31.6193576 C35.5703117,37.6850315 34.0024428,39.9443418 32.4912152,40.7714791 C31.9191669,41.0843067 31.2961117,41.231589 30.6342083,41.231589 C27.9320289,41.231589 24.5715048,38.7787497 21.3085462,35.1352804 C17.9118428,38.8411974 14.4356634,41.3411671 11.6922634,41.3411671 C11.0048566,41.3411671 10.3637117,41.1844587 9.78098762,40.8501278 C6.81042897,39.1463663 7.09482207,33.8259409 9.12649795,27.6913388 C8.25967722,27.4645241 7.4334841,27.2126714 6.65800138,26.9357807 C2.36452552,25.4025721 0.00011862069,23.2298637 0.00011862069,20.8179689 C0.00011862069,18.4057795 2.36452552,16.2330712 6.65800138,14.6998625 C7.50050484,14.3988175 8.40409795,14.1289964 9.35336,13.8868643 C8.94352549,12.5412933 8.61850483,11.242558 8.39312549,10.0159911 C7.27838762,3.95061181 8.84625656,1.69130146 10.3577807,0.864164116 C13.2642841,-0.726779191 17.4788772,1.96259544 21.5416359,6.4997737 Z M11.1439393,28.1576346 C10.6976289,29.4920122 10.3399876,30.7771974 10.0861393,31.9875633 C9.31747722,35.6528304 9.59831172,38.3645919 10.8189186,39.0644774 C12.0392289,39.764952 14.5439048,38.6503196 17.3549186,36.1565358 C18.2164014,35.3921407 19.0894497,34.5187568 19.9622014,33.5578871 C18.7946772,32.1265978 17.6544359,30.563049 16.5761738,28.9243862 C14.6714221,28.7620811 12.8464428,28.5040425 11.1439393,28.1576346 Z M31.4669255,28.2062378 C29.8038634,28.5343827 28.0263324,28.7779876 26.1752566,28.9320449 C25.05696,30.5733588 23.8772772,32.1389695 22.6732772,33.5746773 C23.4701117,34.4725101 24.2687255,35.2905159 25.0596289,36.0139666 C27.8303117,38.5492839 30.23416,39.6518392 31.4894634,38.9655037 C32.7447669,38.2785791 33.0902497,35.6707988 32.4138152,31.9899198 C32.1940703,30.7951659 31.8737945,29.5250034 31.4669255,28.2062378 Z M19.1710014,29.0843348 C19.8785738,30.105001 20.6006772,31.0708783 21.3287117,31.9772535 C22.0763186,31.0723512 22.8185876,30.1076522 23.5484014,29.0902261 C22.8470566,29.1152641 22.1382979,29.1285195 21.4244979,29.1285195 C20.6662152,29.1285195 19.9147531,29.1129075 19.1710014,29.0843348 Z M21.4244979,14.5690759 C20.1846152,14.5690759 18.9883255,14.6100203 17.8362221,14.6830724 C17.2004152,15.6533681 16.5779531,16.6578333 15.9762497,17.6932278 C15.3852221,18.7103593 14.8297807,19.7292582 14.3096289,20.7434441 C14.8081324,21.7697071 15.3425186,22.8021559 15.9142703,23.833132 C16.5088566,24.9053471 17.1268703,25.9445709 17.7597117,26.9475633 C18.9355393,27.0238556 20.1570359,27.0665674 21.4244979,27.0665674 C22.6643807,27.0665674 23.8606703,27.0256229 25.0127738,26.9525709 C25.6485807,25.9822751 26.2710428,24.97781 26.8727462,23.9424154 C27.4637738,22.9252839 28.0192152,21.9063851 28.5393669,20.8921992 C28.0408634,19.8656416 27.5067738,18.8331927 26.9347255,17.8022167 C26.3401393,16.7300017 25.7221255,15.6907778 25.0892841,14.68808 C23.9134566,14.6117878 22.6916634,14.5690759 21.4244979,14.5690759 Z M29.6286014,23.2640332 C29.3169255,23.8390232 28.9978359,24.410184 28.6704428,24.9733915 C28.3291117,25.5604587 27.9765117,26.1439911 27.6156083,26.7225159 C28.7383531,26.5934966 29.8050497,26.4311916 30.8100634,26.2409029 C30.4586497,25.2664832 30.0639393,24.2717386 29.6286014,23.2640332 Z M13.1673117,23.0902401 C12.6821531,24.1441922 12.2405876,25.1857725 11.8470634,26.2052605 C12.8938911,26.4088047 14.0112979,26.5808304 15.1886083,26.7172138 C14.8137669,26.0927369 14.4478221,25.4623687 14.0961117,24.8278766 C13.7749462,24.2490571 13.4665324,23.6696486 13.1673117,23.0902401 Z M33.0312359,15.8860741 C32.4031393,17.5415271 31.6647255,19.2323278 30.8426841,20.9089893 C31.6146083,22.5670934 32.2874841,24.2057561 32.8509324,25.7949321 C37.7855531,24.5657141 40.7730152,22.628952 40.7730152,20.8179689 C40.7730152,19.0287836 37.8582083,17.1173541 33.0312359,15.8860741 Z M9.99806344,15.8407112 C5.06344276,17.0699292 2.07598069,19.0066913 2.07598069,20.8179689 C2.07598069,22.6068596 4.99078759,24.5182892 9.81776,25.7495691 C10.4458566,24.0941162 11.1842703,22.4033155 12.0063117,20.7266539 C11.2343876,19.0682553 10.5615117,17.4298871 9.99806344,15.8407112 Z M21.4244089,16.6287303 C23.7499676,16.6287303 25.6419676,18.5080524 25.6419676,20.8177332 C25.6419676,23.1277087 23.7499676,25.0070307 21.4244089,25.0070307 C19.0988503,25.0070307 17.2068503,23.1277087 17.2068503,20.8177332 C17.2068503,18.5080524 19.0988503,16.6287303 21.4244089,16.6287303 Z M21.4244089,18.6906824 C20.24354,18.6906824 19.2827124,19.6447771 19.2827124,20.8177332 C19.2827124,21.990984 20.24354,22.9450787 21.4244089,22.9450787 C22.6052779,22.9450787 23.5661055,21.990984 23.5661055,20.8177332 C23.5661055,19.6447771 22.6052779,18.6906824 21.4244089,18.6906824 Z M27.6618703,14.918724 C28.0367117,15.5429064 28.4011738,16.1735691 28.7528841,16.8074722 C29.0740497,17.3862915 29.3824634,17.9659946 29.6816841,18.5451086 C30.1668428,17.4911565 30.6084083,16.4498707 31.0019324,15.4303827 C29.9556979,15.2271332 28.8385876,15.0551074 27.6618703,14.918724 Z M15.2322014,14.9134219 C14.1100497,15.0421466 13.0436497,15.2044517 12.0389324,15.3947404 C12.3903462,16.36916 12.7850566,17.3639046 13.2203945,18.37161 C13.5317738,17.7963254 13.85116,17.2254593 14.1785531,16.6622518 C14.5195876,16.0754791 14.8715945,15.4913576 15.2322014,14.9134219 Z M32.0300772,2.57116587 C30.8097669,1.87098586 28.3050911,2.98561824 25.4940772,5.47910742 C24.6328911,6.24320795 23.7598428,7.11629737 22.8876841,8.07716707 C24.0549117,9.50816174 25.1957462,11.0728888 26.2740083,12.7112571 C28.1784634,12.8735622 30.0028497,13.1316007 31.7050566,13.4780086 C32.1510703,12.1436311 32.5090083,10.8584458 32.7628566,9.6477854 C33.5315186,5.98281286 33.2506841,3.27105132 32.0300772,2.57116587 Z M12.2222014,2.46983565 C11.8945117,2.46983565 11.6050772,2.53581812 11.3595324,2.67013956 C10.1042289,3.35706417 9.75874623,5.96484442 10.4351807,9.64572342 C10.6549255,10.8404774 10.9752014,12.1106398 11.3817738,13.4294055 C13.0451324,13.1012605 14.8226634,12.8576556 16.6734428,12.7035983 C17.7917393,11.0625791 18.9711255,9.49520097 20.1745324,8.06008233 C19.3782911,7.16224946 18.5799738,6.34483273 17.7893669,5.62167668 C15.5604841,3.58270064 13.5694359,2.46983565 12.2222014,2.46983565 Z M21.5202841,9.65838969 C20.7726772,10.5632921 20.0304083,11.5279911 19.3005945,12.5457117 C20.0019393,12.5203792 20.7104014,12.5071238 21.4244979,12.5071238 C22.1824841,12.5071238 22.9342428,12.5227357 23.6779945,12.5513085 C22.9704221,11.5306422 22.2483186,10.5647649 21.5202841,9.65838969 Z" id="Picto-laboratoire"></path>
        </g>
    </g>
</svg>