<?xml version="1.0" encoding="UTF-8"?>
<svg width="21px" height="20px" viewBox="0 0 21 20" version="1.1" xmlns="http://www.w3.org/2000/svg" xmlns:xlink="http://www.w3.org/1999/xlink">
    <!-- Generator: Sketch 63.1 (92452) - https://sketch.com -->
    <title>Picto calendrier</title>
    <desc>Created with Sketch.</desc>
    <g id="Page-1" stroke="none" stroke-width="1" fill="none" fill-rule="evenodd">
        <g id="54_DASHBOARD-CONSOLIDÉ-GRAPHIQUES" transform="translate(-1211.000000, -384.000000)" fill="#0091D2">
            <g id="Prévisions-infos" transform="translate(465.000000, 322.000000)">
                <g id="Date" transform="translate(746.000000, 62.000000)">
                    <path d="M14.3007689,1.13686838e-13 C14.5688,1.13686838e-13 14.7860812,0.21728128 14.7860812,0.485312368 L14.7860812,0.485312368 L14.7860812,2.09308291 L18.0060595,2.09308291 C19.1269924,2.09308291 20.0389637,3.00519284 20.0389637,4.12612575 L20.0389637,4.12612575 L20.0389637,17.9670958 C20.0389637,19.0880287 19.1269924,20 18.0060595,20 L18.0060595,20 L2.03290418,20 C0.91197127,20 -2.71782596e-13,19.0880287 -2.71782596e-13,17.9670958 L-2.71782596e-13,17.9670958 L-2.71782596e-13,4.12612575 C-2.71782596e-13,3.00519284 0.91197127,2.09308291 2.03290418,2.09308291 L2.03290418,2.09308291 L5.25274375,2.09308291 L5.25274375,0.485312368 C5.25274375,0.21728128 5.47016369,1.13686838e-13 5.73805612,1.13686838e-13 C6.0060872,1.13686838e-13 6.22336848,0.21728128 6.22336848,0.485312368 L6.22336848,0.485312368 L6.22336848,2.09308291 L13.8154565,2.09308291 L13.8154565,0.485312368 C13.8154565,0.21728128 14.0328764,1.13686838e-13 14.3007689,1.13686838e-13 Z M19.0683389,6.85885036 L0.970624736,6.85885036 L0.970624736,17.9670958 C0.970624736,18.5527985 1.44706282,19.0293753 2.03290418,19.0293753 L2.03290418,19.0293753 L18.0060595,19.0293753 C18.5919008,19.0293753 19.0683389,18.5527985 19.0683389,17.9670958 L19.0683389,17.9670958 L19.0683389,6.85885036 Z M4.14215493,15.4560203 C4.52513571,15.4560203 4.83545831,15.7663429 4.83545831,16.1493237 C4.83545831,16.5323045 4.52513571,16.8426271 4.14215493,16.8426271 C3.75917414,16.8426271 3.44885154,16.5323045 3.44885154,16.1493237 C3.44885154,15.7663429 3.75917414,15.4560203 4.14215493,15.4560203 Z M7.09235494,15.4560203 C7.47533573,15.4560203 7.78565833,15.7663429 7.78565833,16.1493237 C7.78565833,16.5323045 7.47533573,16.8426271 7.09235494,16.8426271 C6.70951282,16.8426271 6.39905156,16.5323045 6.39905156,16.1493237 C6.39905156,15.7663429 6.70951282,15.4560203 7.09235494,15.4560203 Z M10.0426936,15.4560203 C10.4256744,15.4560203 10.735997,15.7663429 10.735997,16.1493237 C10.735997,16.5323045 10.4256744,16.8426271 10.0426936,16.8426271 C9.65971283,16.8426271 9.34939024,16.5323045 9.34939024,16.1493237 C9.34939024,15.7663429 9.65971283,15.4560203 10.0426936,15.4560203 Z M4.14215493,12.1955948 C4.52513571,12.1955948 4.83545831,12.5059173 4.83545831,12.8888981 C4.83545831,13.2717403 4.52513571,13.5822015 4.14215493,13.5822015 C3.75917414,13.5822015 3.44885154,13.2717403 3.44885154,12.8888981 C3.44885154,12.5059173 3.75917414,12.1955948 4.14215493,12.1955948 Z M7.09235494,12.1955948 C7.47533573,12.1955948 7.78565833,12.5059173 7.78565833,12.8888981 C7.78565833,13.2717403 7.47533573,13.5822015 7.09235494,13.5822015 C6.70951282,13.5822015 6.39905156,13.2717403 6.39905156,12.8888981 C6.39905156,12.5059173 6.70951282,12.1955948 7.09235494,12.1955948 Z M10.0426936,12.1955948 C10.4256744,12.1955948 10.735997,12.5059173 10.735997,12.8888981 C10.735997,13.2717403 10.4256744,13.5822015 10.0426936,13.5822015 C9.65971283,13.5822015 9.34939024,13.2717403 9.34939024,12.8888981 C9.34939024,12.5059173 9.65971283,12.1955948 10.0426936,12.1955948 Z M12.9930184,12.1955948 C13.3758606,12.1955948 13.6863218,12.5059173 13.6863218,12.8888981 C13.6863218,13.2717403 13.3758606,13.5822015 12.9930184,13.5822015 C12.6100376,13.5822015 12.2997151,13.2717403 12.2997151,12.8888981 C12.2997151,12.5059173 12.6100376,12.1955948 12.9930184,12.1955948 Z M15.9432185,12.1955948 C16.3261992,12.1955948 16.6365218,12.5059173 16.6365218,12.8888981 C16.6365218,13.2717403 16.3261992,13.5822015 15.9432185,13.5822015 C15.5602377,13.5822015 15.2499151,13.2717403 15.2499151,12.8888981 C15.2499151,12.5059173 15.5602377,12.1955948 15.9432185,12.1955948 Z M7.09235494,8.93511374 C7.47533573,8.93511374 7.78565833,9.24557499 7.78565833,9.62841712 C7.78565833,10.0112592 7.47533573,10.3217205 7.09235494,10.3217205 C6.70951282,10.3217205 6.39905156,10.0112592 6.39905156,9.62841712 C6.39905156,9.24557499 6.70951282,8.93511374 7.09235494,8.93511374 Z M10.0426936,8.93511374 C10.4256744,8.93511374 10.735997,9.24557499 10.735997,9.62841712 C10.735997,10.0112592 10.4256744,10.3217205 10.0426936,10.3217205 C9.65971283,10.3217205 9.34939024,10.0112592 9.34939024,9.62841712 C9.34939024,9.24557499 9.65971283,8.93511374 10.0426936,8.93511374 Z M12.9930184,8.93511374 C13.3758606,8.93511374 13.6863218,9.24557499 13.6863218,9.62841712 C13.6863218,10.0112592 13.3758606,10.3217205 12.9930184,10.3217205 C12.6100376,10.3217205 12.2997151,10.0112592 12.2997151,9.62841712 C12.2997151,9.24557499 12.6100376,8.93511374 12.9930184,8.93511374 Z M15.9432185,8.93511374 C16.3261992,8.93511374 16.6365218,9.24557499 16.6365218,9.62841712 C16.6365218,10.0112592 16.3261992,10.3217205 15.9432185,10.3217205 C15.5602377,10.3217205 15.2499151,10.0112592 15.2499151,9.62841712 C15.2499151,9.24557499 15.5602377,8.93511374 15.9432185,8.93511374 Z M5.25274375,3.06370765 L2.03290418,3.06370765 C1.44706282,3.06370765 0.970624736,3.54028439 0.970624736,4.12612575 L0.970624736,4.12612575 L0.970624736,5.88822563 L19.0683389,5.88822563 L19.0683389,4.12612575 C19.0683389,3.54028439 18.5919008,3.06370765 18.0060595,3.06370765 L18.0060595,3.06370765 L14.7860812,3.06370765 L14.7860812,4.08924201 C14.7860812,4.3572731 14.5688,4.57455438 14.3007689,4.57455438 C14.0328764,4.57455438 13.8154565,4.3572731 13.8154565,4.08924201 L13.8154565,4.08924201 L13.8154565,3.06370765 L6.22336848,3.06370765 L6.22336848,4.08924201 C6.22336848,4.3572731 6.0060872,4.57455438 5.73805612,4.57455438 C5.47016369,4.57455438 5.25274375,4.3572731 5.25274375,4.08924201 L5.25274375,4.08924201 L5.25274375,3.06370765 Z" id="Picto-calendrier"></path>
                </g>
            </g>
        </g>
    </g>
</svg>