<?xml version="1.0" encoding="UTF-8"?>
<svg width="20px" height="20px" viewBox="0 0 20 20" version="1.1" xmlns="http://www.w3.org/2000/svg" xmlns:xlink="http://www.w3.org/1999/xlink">
    <!-- Generator: Sketch 63.1 (92452) - https://sketch.com -->
    <title>Picto calendrier</title>
    <desc>Created with Sketch.</desc>
    <g id="Page-1" stroke="none" stroke-width="1" fill="none" fill-rule="evenodd">
        <g id="32_SAISIE-" transform="translate(-1286.000000, -382.000000)" fill="#394157">
            <g id="Données-1" transform="translate(239.000000, 372.000000)">
                <g id="Champs-date" transform="translate(857.000000, 0.000000)">
                    <path d="M204.272963,10 C204.540472,10 204.757331,10.2168588 204.757331,10.4843687 L204.757331,10.4843687 L204.757331,12.0890131 L207.971049,12.0890131 C209.089802,12.0890131 210,12.9993496 210,14.1181029 L210,14.1181029 L210,27.9321607 C210,29.0509141 209.089802,29.9611121 207.971049,29.9611121 L207.971049,29.9611121 L192.028951,29.9611121 C190.910198,29.9611121 190,29.0509141 190,27.9321607 L190,27.9321607 L190,14.1181029 C190,12.9993496 190.910198,12.0890131 192.028951,12.0890131 L192.028951,12.0890131 L195.24253,12.0890131 L195.24253,10.4843687 C195.24253,10.2168588 195.459528,10 195.726899,10 C195.994409,10 196.211268,10.2168588 196.211268,10.4843687 L196.211268,10.4843687 L196.211268,12.0890131 L203.788594,12.0890131 L203.788594,10.4843687 C203.788594,10.2168588 204.005591,10 204.272963,10 Z M209.031263,16.8455141 L190.968737,16.8455141 L190.968737,27.9321607 C190.968737,28.5167246 191.444249,28.9923747 192.028951,28.9923747 L192.028951,28.9923747 L207.971049,28.9923747 C208.555751,28.9923747 209.031263,28.5167246 209.031263,27.9321607 L209.031263,27.9321607 L209.031263,16.8455141 Z M194.134101,25.4259677 C194.516337,25.4259677 194.826056,25.7356869 194.826056,26.117923 C194.826056,26.5001591 194.516337,26.8098784 194.134101,26.8098784 C193.751865,26.8098784 193.442146,26.5001591 193.442146,26.117923 C193.442146,25.7356869 193.751865,25.4259677 194.134101,25.4259677 Z M197.078565,25.4259677 C197.460801,25.4259677 197.77052,25.7356869 197.77052,26.117923 C197.77052,26.5001591 197.460801,26.8098784 197.078565,26.8098784 C196.696467,26.8098784 196.386609,26.5001591 196.386609,26.117923 C196.386609,25.7356869 196.696467,25.4259677 197.078565,25.4259677 Z M200.023167,25.4259677 C200.405403,25.4259677 200.715122,25.7356869 200.715122,26.117923 C200.715122,26.5001591 200.405403,26.8098784 200.023167,26.8098784 C199.640931,26.8098784 199.331211,26.5001591 199.331211,26.117923 C199.331211,25.7356869 199.640931,25.4259677 200.023167,25.4259677 Z M194.134101,22.1718817 C194.516337,22.1718817 194.826056,22.4816009 194.826056,22.863837 C194.826056,23.2459348 194.516337,23.5557924 194.134101,23.5557924 C193.751865,23.5557924 193.442146,23.2459348 193.442146,22.863837 C193.442146,22.4816009 193.751865,22.1718817 194.134101,22.1718817 Z M197.078565,22.1718817 C197.460801,22.1718817 197.77052,22.4816009 197.77052,22.863837 C197.77052,23.2459348 197.460801,23.5557924 197.078565,23.5557924 C196.696467,23.5557924 196.386609,23.2459348 196.386609,22.863837 C196.386609,22.4816009 196.696467,22.1718817 197.078565,22.1718817 Z M200.023167,22.1718817 C200.405403,22.1718817 200.715122,22.4816009 200.715122,22.863837 C200.715122,23.2459348 200.405403,23.5557924 200.023167,23.5557924 C199.640931,23.5557924 199.331211,23.2459348 199.331211,22.863837 C199.331211,22.4816009 199.640931,22.1718817 200.023167,22.1718817 Z M202.967755,22.1718817 C203.349853,22.1718817 203.65971,22.4816009 203.65971,22.863837 C203.65971,23.2459348 203.349853,23.5557924 202.967755,23.5557924 C202.585519,23.5557924 202.2758,23.2459348 202.2758,22.863837 C202.2758,22.4816009 202.585519,22.1718817 202.967755,22.1718817 Z M205.912219,22.1718817 C206.294455,22.1718817 206.604174,22.4816009 206.604174,22.863837 C206.604174,23.2459348 206.294455,23.5557924 205.912219,23.5557924 C205.529982,23.5557924 205.220263,23.2459348 205.220263,22.863837 C205.220263,22.4816009 205.529982,22.1718817 205.912219,22.1718817 Z M197.078565,18.9177404 C197.460801,18.9177404 197.77052,19.2275979 197.77052,19.6096957 C197.77052,19.9917934 197.460801,20.301651 197.078565,20.301651 C196.696467,20.301651 196.386609,19.9917934 196.386609,19.6096957 C196.386609,19.2275979 196.696467,18.9177404 197.078565,18.9177404 Z M200.023167,18.9177404 C200.405403,18.9177404 200.715122,19.2275979 200.715122,19.6096957 C200.715122,19.9917934 200.405403,20.301651 200.023167,20.301651 C199.640931,20.301651 199.331211,19.9917934 199.331211,19.6096957 C199.331211,19.2275979 199.640931,18.9177404 200.023167,18.9177404 Z M202.967755,18.9177404 C203.349853,18.9177404 203.65971,19.2275979 203.65971,19.6096957 C203.65971,19.9917934 203.349853,20.301651 202.967755,20.301651 C202.585519,20.301651 202.2758,19.9917934 202.2758,19.6096957 C202.2758,19.2275979 202.585519,18.9177404 202.967755,18.9177404 Z M205.912219,18.9177404 C206.294455,18.9177404 206.604174,19.2275979 206.604174,19.6096957 C206.604174,19.9917934 206.294455,20.301651 205.912219,20.301651 C205.529982,20.301651 205.220263,19.9917934 205.220263,19.6096957 C205.220263,19.2275979 205.529982,18.9177404 205.912219,18.9177404 Z M195.24253,13.0577506 L192.028951,13.0577506 C191.444249,13.0577506 190.968737,13.5334007 190.968737,14.1181029 L190.968737,14.1181029 L190.968737,15.8767766 L209.031263,15.8767766 L209.031263,14.1181029 C209.031263,13.5334007 208.555751,13.0577506 207.971049,13.0577506 L207.971049,13.0577506 L204.757331,13.0577506 L204.757331,14.0812909 C204.757331,14.3488008 204.540472,14.5656596 204.272963,14.5656596 C204.005591,14.5656596 203.788594,14.3488008 203.788594,14.0812909 L203.788594,14.0812909 L203.788594,13.0577506 L196.211268,13.0577506 L196.211268,14.0812909 C196.211268,14.3488008 195.994409,14.5656596 195.726899,14.5656596 C195.459528,14.5656596 195.24253,14.3488008 195.24253,14.0812909 L195.24253,14.0812909 L195.24253,13.0577506 Z" id="Picto-calendrier"></path>
                </g>
            </g>
        </g>
    </g>
</svg>