<?xml version="1.0" encoding="UTF-8"?>
<svg width="58px" height="75px" viewBox="0 0 58 75" version="1.1" xmlns="http://www.w3.org/2000/svg" xmlns:xlink="http://www.w3.org/1999/xlink">
    <!-- Generator: Sketch 63.1 (92452) - https://sketch.com -->
    <title>Group</title>
    <desc>Created with Sketch.</desc>
    <g id="Page-1" stroke="none" stroke-width="1" fill="none" fill-rule="evenodd">
        <g id="06_INFO-SESSION-NOM" transform="translate(-44.000000, -302.000000)">
            <g id="Progression">
                <g id="Group" transform="translate(44.000000, 302.000000)">
                    <circle id="Page-active-Copy" fill="#EFF7FA" cx="38" cy="55" r="20"></circle>
                    <path d="M33.1449041,0 C33.9392877,0 34.5832603,0.643972603 34.5832603,1.43835616 L34.5832603,1.43835616 L34.5832603,4.31506849 L42.2591507,4.31506849 C43.0535342,4.31506849 43.6975068,4.9590411 43.6975068,5.75342466 L43.6975068,5.75342466 L43.6975068,58.5616438 C43.6975068,59.3560274 43.0535342,60 42.2591507,60 L42.2591507,60 L1.43819178,60 C0.643808219,60 -0.000164383562,59.3560274 -0.000164383562,58.5616438 L-0.000164383562,58.5616438 L-0.000164383562,5.75342466 C-0.000164383562,4.9590411 0.643808219,4.31506849 1.43819178,4.31506849 L1.43819178,4.31506849 L9.11408219,4.31506849 L9.11408219,1.43835616 C9.11408219,0.643972603 9.75805479,0 10.5524384,0 L10.5524384,0 Z M9.11408219,7.19178082 L2.87654795,7.19178082 L2.87654795,57.1232877 L40.8207945,57.1232877 L40.8207945,7.19178082 L34.5832603,7.19178082 L34.5832603,10.9376712 C34.5832603,11.7320548 33.9392877,12.3760274 33.1449041,12.3760274 L33.1449041,12.3760274 L10.5524384,12.3760274 C9.75805479,12.3760274 9.11408219,11.7320548 9.11408219,10.9376712 L9.11408219,10.9376712 L9.11408219,7.19178082 Z M25.5930822,21.0272466 C26.3874658,21.0272466 27.0314384,21.6712192 27.0314384,22.4656027 L27.0314384,22.4656027 L27.0314384,28.5157397 L33.0815753,28.5157397 C33.8759589,28.5157397 34.5199315,29.1597123 34.5199315,29.9540959 L34.5199315,29.9540959 L34.5199315,37.443 C34.5199315,38.2373836 33.8759589,38.8813562 33.0815753,38.8813562 L33.0815753,38.8813562 L27.0314384,38.8813562 L27.0314384,44.9314932 C27.0314384,45.7258767 26.3874658,46.3698493 25.5930822,46.3698493 L25.5930822,46.3698493 L18.104589,46.3698493 C17.3102055,46.3698493 16.6662329,45.7258767 16.6662329,44.9314932 L16.6662329,44.9314932 L16.6662329,38.8813562 L10.6156849,38.8813562 C9.82130137,38.8813562 9.17732877,38.2373836 9.17732877,37.443 L9.17732877,37.443 L9.17732877,29.9540959 C9.17732877,29.1597123 9.82130137,28.5157397 10.6156849,28.5157397 L10.6156849,28.5157397 L16.6662329,28.5157397 L16.6662329,22.4656027 C16.6662329,21.6712192 17.3102055,21.0272466 18.104589,21.0272466 L18.104589,21.0272466 Z M24.154726,23.9039589 L19.5429452,23.9039589 L19.5429452,29.9540959 C19.5429452,30.7484795 18.8989726,31.3924521 18.104589,31.3924521 L18.104589,31.3924521 L12.0540411,31.3924521 L12.0540411,36.0046438 L18.104589,36.0046438 C18.8989726,36.0046438 19.5429452,36.6486164 19.5429452,37.443 L19.5429452,37.443 L19.5429452,43.493137 L24.154726,43.493137 L24.154726,37.443 C24.154726,36.6486164 24.7986986,36.0046438 25.5930822,36.0046438 L25.5930822,36.0046438 L31.6432192,36.0046438 L31.6432192,31.3924521 L25.5930822,31.3924521 C24.7986986,31.3924521 24.154726,30.7484795 24.154726,29.9540959 L24.154726,29.9540959 L24.154726,23.9039589 Z M31.7065479,2.87671233 L11.9907945,2.87671233 L11.9907945,9.49931507 L31.7065479,9.49931507 L31.7065479,2.87671233 Z" id="Picto-informations-session" fill="#394157"></path>
                </g>
            </g>
        </g>
    </g>
</svg>