<?xml version="1.0" encoding="UTF-8"?>
<svg width="41px" height="40px" viewBox="0 0 41 40" version="1.1" xmlns="http://www.w3.org/2000/svg" xmlns:xlink="http://www.w3.org/1999/xlink">
    <!-- Generator: Sketch 63.1 (92452) - https://sketch.com -->
    <title>Picto DCI</title>
    <desc>Created with Sketch.</desc>
    <defs>
        <linearGradient x1="100%" y1="100%" x2="0%" y2="0%" id="linearGradient-1">
            <stop stop-color="#99EEE8" offset="0%"></stop>
            <stop stop-color="#0096D4" offset="100%"></stop>
        </linearGradient>
    </defs>
    <g id="Page-1" stroke="none" stroke-width="1" fill="none" fill-rule="evenodd">
        <g id="07_INFO-SESSION-DCI" transform="translate(-465.000000, -377.000000)">
            <g id="Choix-des-DCI-concernées" transform="translate(465.000000, 377.000000)">
                <g id="Picto-DCI">
                    <path d="M13.3645556,10.6943889 C13.3645556,16.0638333 17.7173333,20.4166111 23.0867778,20.4166111 L23.0867778,20.4166111 C28.4565,20.4166111 32.809,16.0638333 32.809,10.6943889 L32.809,10.6943889 C32.809,5.32494444 28.4565,0.972166667 23.0867778,0.972166667 L23.0867778,0.972166667 C17.7173333,0.972166667 13.3645556,5.32494444 13.3645556,10.6943889" id="Fill-1" fill="url(#linearGradient-1)"></path>
                    <path d="M34.1139881,28.5416667 L23.7722289,28.5416667 L18.8772706,20.1894444 L23.8906621,11.4583333 L33.9154714,11.4583333 L38.8812077,20.1930556 L34.1139881,28.5416667 Z M17.170704,38.0555556 L7.26263609,38.0555556 L2.13701491,29.6111111 L7.26263609,21.1663889 L17.1704221,21.1663889 L22.1198033,29.6111111 L17.170704,38.0555556 Z M7.1749391,1.94444444 L17.1650644,1.94444444 L22.125161,10.5833333 L17.1650644,19.2219444 L7.1749391,19.2219444 L2.12601754,10.5833333 L7.1749391,1.94444444 Z M40.8742699,19.7191667 L35.3549992,10.0111111 C35.1804512,9.70416667 34.851094,9.51388889 34.4941024,9.51388889 L23.7792785,9.51388889 L18.5995164,0.493611111 C18.4244044,0.188611111 18.0961752,0 17.7405935,0 L6.60420371,0 C6.25115988,0 5.9251865,0.185555556 5.74894657,0.486944444 L0.131545485,10.0980556 C-0.043848495,10.3983333 -0.043848495,10.7680556 0.131545485,11.0683333 L5.50841431,20.2677778 L0.140005002,29.1119444 C-0.0466683339,29.4194444 -0.0466683339,29.8027778 0.140005002,30.11 L5.85581846,39.5266667 C6.03403228,39.8202778 6.3557759,40 6.70289807,40 L17.7405935,40 C18.0930734,40 18.4190467,39.8147222 18.5952867,39.5138889 L23.8861504,30.4861111 L34.6912091,30.4861111 C35.0479187,30.4861111 35.376712,30.2966667 35.551542,29.9905556 L40.8734239,20.6708333 C41.0417683,20.3755556 41.0423323,20.015 40.8742699,19.7191667 L40.8742699,19.7191667 Z" id="Fill-1" fill="#394157"></path>
                </g>
            </g>
        </g>
    </g>
</svg>