<?xml version="1.0" encoding="UTF-8"?>
<svg width="30px" height="26px" viewBox="0 0 30 26" version="1.1" xmlns="http://www.w3.org/2000/svg" xmlns:xlink="http://www.w3.org/1999/xlink">
    <!-- Generator: Sketch 63.1 (92452) - https://sketch.com -->
    <title>Combined Shape</title>
    <desc>Created with Sketch.</desc>
    <defs>
        <linearGradient x1="0%" y1="14.8037221%" x2="303.117545%" y2="101.098528%" id="linearGradient-1">
            <stop stop-color="#25BED0" offset="0%"></stop>
            <stop stop-color="#46DAD8" offset="100%"></stop>
        </linearGradient>
    </defs>
    <g id="Page-1" stroke="none" stroke-width="1" fill="none" fill-rule="evenodd">
        <g id="54_DASHBOARD-CONSOLIDÉ-GRAPHIQUES" transform="translate(-479.000000, -934.000000)" fill="url(#linearGradient-1)">
            <g id="Bouton-exporter" transform="translate(465.000000, 928.000000)">
                <path d="M18.9211586,13.3044828 C19.3210897,13.3044828 19.6452966,13.6288966 19.6452966,14.0286207 C19.6452966,14.4285517 19.3210897,14.7527586 18.9211586,14.7527586 L15.4481931,14.7527586 L15.4481931,29.8851724 L36.0079172,29.8851724 L36.0079172,28.3377931 C36.0079172,27.938069 36.3321241,27.6136552 36.7320552,27.6136552 C37.1319862,27.6136552 37.4561931,27.938069 37.4561931,28.3377931 L37.4561931,30.6093103 C37.4561931,31.0092414 37.1319862,31.3334483 36.7320552,31.3334483 L14.7240552,31.3334483 C14.3241241,31.3334483 13.9999172,31.0092414 13.9999172,30.6093103 L13.9999172,14.0286207 C13.9999172,13.6288966 14.3241241,13.3044828 14.7240552,13.3044828 L18.9211586,13.3044828 Z M35.2236345,6.42413793 L43.7411517,15.1117241 C44.0198414,15.396 44.0167379,15.8517931 43.7343241,16.1323448 L35.2170138,24.5931724 C35.0786,24.7305517 34.8940483,24.8035862 34.7063931,24.8035862 C34.6128759,24.8035862 34.5183241,24.7853793 34.4283241,24.747931 C34.1583241,24.6355862 33.9824621,24.3717931 33.9824621,24.0794483 L33.9824621,19.8984828 C23.9728069,18.8623448 21.2477724,24.164069 21.1343931,24.3947586 C20.9843931,24.7001379 20.6409448,24.8617241 20.3103241,24.7806207 C19.9797034,24.6993103 19.7496345,24.4003448 19.7587379,24.0602069 C19.8599103,20.2346897 21.1228069,17.1848276 23.5122552,14.9950345 C27.076669,11.7281379 32.0783931,11.3441379 33.9824621,11.324069 L33.9824621,6.93103448 C33.9824621,6.63682759 34.1603931,6.372 34.4328759,6.26048276 C34.7051517,6.14917241 35.0177724,6.21434483 35.2236345,6.42413793 Z M35.4307379,8.70393103 L35.4307379,12.0604138 C35.4307379,12.260069 35.3483931,12.4508276 35.2029448,12.5877931 C35.0574966,12.7243448 34.8613586,12.795931 34.6627379,12.7831034 C34.6012897,12.7806207 28.4142552,12.4601379 24.4840483,16.0690345 C22.9157724,17.5090345 21.9034276,19.3944828 21.4594276,21.693931 C23.104669,20.1515172 26.1781172,18.3165517 31.4879103,18.3165517 C32.5068759,18.3165517 33.6077724,18.384 34.7974276,18.5342069 C35.1592897,18.5797241 35.4307379,18.8877931 35.4307379,19.2525517 L35.4307379,22.3392414 L42.2032897,15.612 L35.4307379,8.70393103 Z" id="Combined-Shape"></path>
            </g>
        </g>
    </g>
</svg>