<?xml version="1.0" encoding="UTF-8"?>
<svg width="40px" height="38px" viewBox="0 0 40 38" version="1.1" xmlns="http://www.w3.org/2000/svg" xmlns:xlink="http://www.w3.org/1999/xlink">
    <!-- Generator: Sketch 63.1 (92452) - https://sketch.com -->
    <title>Picto nom du groupe</title>
    <desc>Created with Sketch.</desc>
    <defs>
        <linearGradient x1="14.6448006%" y1="14.6452386%" x2="85.3554787%" y2="85.3549066%" id="linearGradient-1">
            <stop stop-color="#0095D4" offset="0%"></stop>
            <stop stop-color="#99EDE8" offset="100%"></stop>
        </linearGradient>
    </defs>
    <g id="Page-1" stroke="none" stroke-width="1" fill="none" fill-rule="evenodd">
        <g id="15_DÉFINITION-GROUPES" transform="translate(-913.000000, -258.000000)">
            <g id="Groupe-1" transform="translate(913.000000, 256.000000)">
                <g id="Picto-nom-du-groupe" transform="translate(0.000000, 2.273918)">
                    <path d="M19.9872877,12.7323836 C19.9872877,18.028274 24.2804384,22.3214247 29.5763288,22.3214247 L29.5763288,22.3214247 C34.8722192,22.3214247 39.1653699,18.028274 39.1653699,12.7323836 L39.1653699,12.7323836 C39.1653699,7.43676712 34.8722192,3.14361644 29.5763288,3.14361644 L29.5763288,3.14361644 C24.2804384,3.14361644 19.9872877,7.43676712 19.9872877,12.7323836" id="Fill-1" fill="url(#linearGradient-1)"></path>
                    <path d="M13.7624658,9.44191781 C13.9128767,9.39452055 14.0728767,9.36849315 14.2386301,9.36849315 C15.1126027,9.36849315 15.8232877,10.0794521 15.8232877,10.9531507 C15.8232877,11.8268493 15.1126027,12.5378082 14.2386301,12.5378082 C13.5112329,12.5378082 12.8980822,12.0443836 12.7128767,11.3747945 C13.1553425,10.7969863 13.5128767,10.1482192 13.7624658,9.44191781 L13.7624658,9.44191781 Z M25.5134247,34.6947945 L8.49945205,17.7613699 L8.49945205,14.0191781 C9.50821918,13.8117808 10.4493151,13.389863 11.2643836,12.7934247 C11.8827397,13.7890411 12.9830137,14.4556164 14.2386301,14.4556164 C16.169863,14.4556164 17.7410959,12.8843836 17.7410959,10.9531507 C17.7410959,9.02191781 16.169863,7.45068493 14.2386301,7.45068493 C13.6153425,7.45068493 13.0306849,7.61616438 12.5230137,7.9030137 C12.5131507,7.90821918 12.5041096,7.91452055 12.4945205,7.92027397 C11.5093151,8.4890411 10.8276712,9.52219178 10.7479452,10.719726 C10.1276712,11.3424658 9.35424658,11.8027397 8.49945205,12.0479452 L8.49945205,5.04438356 L20.0254795,5.04438356 L37.5945205,22.6136986 L25.5134247,34.6947945 Z M1.91780822,7.08438356 C1.91780822,4.23561644 4.23561644,1.91780822 7.08438356,1.91780822 C8.31452055,1.91780822 9.4830137,2.36 10.4,3.12657534 L7.54054795,3.12657534 C7.0109589,3.12657534 6.58164384,3.55589041 6.58164384,4.08547945 L6.58164384,12.2254795 C3.96794521,11.9717808 1.91780822,9.76356164 1.91780822,7.08438356 L1.91780822,7.08438356 Z M39.6287671,21.9356164 L21.1008219,3.40739726 C20.9210959,3.22767123 20.6772603,3.12657534 20.4230137,3.12657534 L12.9575342,3.12657534 C11.6473973,1.18575342 9.44767123,-6.03961325e-14 7.08438356,-6.03961325e-14 C3.17780822,-6.03961325e-14 1.77635684e-14,3.17808219 1.77635684e-14,7.08438356 C1.77635684e-14,10.8216438 2.90931507,13.889863 6.58164384,14.1490411 L6.58164384,18.159726 C6.58164384,18.4147945 6.68328767,18.6594521 6.86410959,18.8394521 L24.8386301,36.7290411 C25.0254795,36.9150685 25.270137,37.0082192 25.5147945,37.0082192 C25.760274,37.0082192 26.0057534,36.9145205 26.1928767,36.7273973 L39.6287671,23.2917808 C39.8084932,23.1117808 39.909863,22.8679452 39.909863,22.6136986 C39.909863,22.3591781 39.8084932,22.1153425 39.6287671,21.9356164 L39.6287671,21.9356164 Z" id="Fill-4" fill="#394157"></path>
                </g>
            </g>
        </g>
    </g>
</svg>