<?xml version="1.0" encoding="UTF-8"?>
<svg width="33px" height="40px" viewBox="0 0 33 40" version="1.1" xmlns="http://www.w3.org/2000/svg" xmlns:xlink="http://www.w3.org/1999/xlink">
    <!-- Generator: Sketch 63.1 (92452) - https://sketch.com -->
    <title>Picto laboratoire</title>
    <desc>Created with Sketch.</desc>
    <defs>
        <linearGradient x1="100%" y1="100%" x2="0%" y2="0%" id="linearGradient-1">
            <stop stop-color="#99EEE8" offset="0%"></stop>
            <stop stop-color="#0096D4" offset="100%"></stop>
        </linearGradient>
    </defs>
    <g id="Page-1" stroke="none" stroke-width="1" fill="none" fill-rule="evenodd">
        <g id="11_INFO-SESSION-PRÉSENTATIONS" transform="translate(-974.000000, -461.000000)">
            <g id="Présentations" transform="translate(464.000000, 461.000000)">
                <g id="Laboratoire" transform="translate(510.000000, 0.000000)">
                    <g id="Picto-laboratoire">
                        <path d="M-4.4408921e-14,25.6165479 C-4.4408921e-14,30.9124384 4.29315068,35.205589 9.5890411,35.205589 L9.5890411,35.205589 C14.8849315,35.205589 19.1780822,30.9124384 19.1780822,25.6165479 L19.1780822,25.6165479 C19.1780822,20.3203836 14.8849315,16.0275068 9.5890411,16.0275068 L9.5890411,16.0275068 C4.29315068,16.0275068 -4.4408921e-14,20.3203836 -4.4408921e-14,25.6165479" id="Fill-1" fill="url(#linearGradient-1)"></path>
                        <path d="M31.9663562,33.8284932 L21.778411,18.9594521 L21.778411,1.91780822 L25.1247123,1.91780822 C25.6543014,1.91780822 26.0836164,1.48849315 26.0836164,0.95890411 C26.0836164,0.429315068 25.6543014,-1.88293825e-13 25.1247123,-1.88293825e-13 L20.8195068,-1.88293825e-13 C20.2899178,-1.88293825e-13 19.8606027,0.429315068 19.8606027,0.95890411 L19.8606027,10.0457534 L16.8729315,10.0457534 C16.3433425,10.0457534 15.9140274,10.4750685 15.9140274,11.0046575 C15.9140274,11.5342466 16.3433425,11.9635616 16.8729315,11.9635616 L19.8606027,11.9635616 L19.8606027,15.0684932 L16.8729315,15.0684932 C16.3433425,15.0684932 15.9140274,15.4978082 15.9140274,16.0273973 C15.9140274,16.5569863 16.3433425,16.9863014 16.8729315,16.9863014 L19.8606027,16.9863014 L19.8606027,19.2564384 C19.8606027,19.449863 19.9189589,19.6389041 20.0285479,19.7986301 L30.3844384,34.9126027 C30.7608767,35.4619178 30.8000548,36.1413699 30.4896438,36.7306849 C30.1792329,37.3194521 29.5962192,37.6712329 28.9301918,37.6712329 L4.61539726,37.6712329 C3.94032877,37.6712329 3.35347945,37.3126027 3.04635616,36.7112329 C2.7389589,36.109863 2.79128767,35.4241096 3.18663014,34.8767123 L14.0625205,19.8178082 C14.1806027,19.6545205 14.2441644,19.4580822 14.2441644,19.2564384 L14.2441644,0.95890411 C14.2441644,0.429315068 13.8148493,-1.88293825e-13 13.2852603,-1.88293825e-13 L9.33868493,-1.88293825e-13 C8.80909589,-1.88293825e-13 8.37978082,0.429315068 8.37978082,0.95890411 C8.37978082,1.48849315 8.80909589,1.91780822 9.33868493,1.91780822 L12.3263562,1.91780822 L12.3263562,18.9463014 L1.63183562,33.7542466 C0.818684932,34.88 0.706356164,36.3476712 1.33868493,37.5843836 C1.9710137,38.8210959 3.22663014,39.5890411 4.61539726,39.5890411 L28.9301918,39.5890411 C30.3000548,39.5890411 31.547726,38.8361644 32.1863562,37.6243836 C32.8247123,36.4131507 32.7406027,34.9583562 31.9663562,33.8284932" id="Fill-4" fill="#394157"></path>
                    </g>
                </g>
            </g>
        </g>
    </g>
</svg>