<?xml version="1.0" encoding="UTF-8"?>
<svg width="14px" height="14px" viewBox="0 0 14 14" version="1.1" xmlns="http://www.w3.org/2000/svg" xmlns:xlink="http://www.w3.org/1999/xlink">
    <!-- Generator: Sketch 63.1 (92452) - https://sketch.com -->
    <title>Livraison picto</title>
    <desc>Created with Sketch.</desc>
    <g id="Page-1" stroke="none" stroke-width="1" fill="none" fill-rule="evenodd">
        <g id="54_DASHBOARD-CONSOLIDÉ-GRAPHIQUES" transform="translate(-979.000000, -847.000000)" fill="#394157">
            <g id="Légende" transform="translate(486.000000, 845.000000)">
                <g id="Livraison-picto" transform="translate(493.000000, 2.000000)">
                    <path d="M12.7105263,12.7105263 L1.28947368,12.7105263 L1.28947368,1.28947368 L4.69921053,1.28947368 L4.69921053,5.95617105 C4.69921053,6.19159211 4.82742105,6.40822368 5.03373684,6.52142105 C5.13063158,6.57456579 5.23728947,6.60090789 5.34385526,6.60090789 C5.46451316,6.60090789 5.58489474,6.56710526 5.69026316,6.49996053 L6.96739474,5.68639474 L8.32198684,6.50751316 C8.52102632,6.62807895 8.76971053,6.63203947 8.97252632,6.51801316 C9.17534211,6.40361842 9.30088158,6.18892105 9.30088158,5.95617105 L9.30088158,1.28947368 L12.7105263,1.28947368 L12.7105263,12.7105263 Z M5.98868421,1.28947368 L8.01140789,1.28947368 L8.01140789,4.81139474 L7.29307895,4.37601316 C7.08335526,4.249 6.81947368,4.25185526 6.61251316,4.38356579 L5.98868421,4.781 L5.98868421,1.28947368 Z M13.3552632,0 L0.644736842,0 C0.288657895,0 0,0.288657895 0,0.644736842 L0,13.3552632 C0,13.7113421 0.288657895,14 0.644736842,14 L13.3552632,14 C13.7113421,14 14,13.7113421 14,13.3552632 L14,0.644736842 C14,0.288657895 13.7113421,0 13.3552632,0 L13.3552632,0 Z" id="Fill-1"></path>
                    <path d="M7.72298947,10.4350566 L4.51109474,10.4350566 C4.43473947,10.4350566 4.37293684,10.4969513 4.37293684,10.5732145 L4.37293684,11.6772803 C4.37293684,11.7535434 4.43473947,11.8154382 4.51109474,11.8154382 L7.72298947,11.8154382 C7.79934474,11.8154382 7.86114737,11.7535434 7.86114737,11.6772803 L7.86114737,10.5732145 C7.86114737,10.4969513 7.79934474,10.4350566 7.72298947,10.4350566" id="Fill-3"></path>
                    <path d="M3.47373158,10.4350566 L2.36966579,10.4350566 C2.29331053,10.4350566 2.23150789,10.4969513 2.23150789,10.5732145 L2.23150789,11.6772803 C2.23150789,11.7535434 2.29331053,11.8154382 2.36966579,11.8154382 L3.47373158,11.8154382 C3.55008684,11.8154382 3.61188947,11.7535434 3.61188947,11.6772803 L3.61188947,10.5732145 C3.61188947,10.4969513 3.55008684,10.4350566 3.47373158,10.4350566" id="Fill-5"></path>
                </g>
            </g>
        </g>
    </g>
</svg>