<?xml version="1.0" encoding="UTF-8"?>
<svg width="39px" height="40px" viewBox="0 0 39 40" version="1.1" xmlns="http://www.w3.org/2000/svg" xmlns:xlink="http://www.w3.org/1999/xlink">
    <title>Mail_to_sended</title>
    <defs>
        <linearGradient x1="14.6445829%" y1="14.6447783%" x2="85.355261%" y2="85.3554564%" id="linearGradient-1">
            <stop stop-color="#0095D4" offset="0%"></stop>
            <stop stop-color="#99EDE8" offset="100%"></stop>
        </linearGradient>
    </defs>
    <g id="Page-1" stroke="none" stroke-width="1" fill="none" fill-rule="evenodd">
        <path d="M2.01200001,9.6583699 C2.01200001,14.9545343 6.30515071,19.247411 11.6010411,19.247411 L11.6010411,19.247411 C16.8969315,19.247411 21.1900822,14.9545343 21.1900822,9.6583699 L21.1900822,9.6583699 C21.1900822,4.3624795 16.8969315,0.0693287962 11.6010411,0.0693287962 L11.6010411,0.0693287962 C6.30515071,0.0693287962 2.01200001,4.3624795 2.01200001,9.6583699" id="Fill-1" fill="url(#linearGradient-1)" fill-rule="nonzero"></path>
        <g id="Group-2" transform="translate(0.108863, -0.017492)" fill-rule="nonzero">
            <g id="Group-3">
                <g id="Group" transform="translate(12.038403, 24.835643)" stroke="#394157" stroke-linecap="round" stroke-width="1.5">
                    <path d="M0,0 C0.0124027458,0.169380748 0.850777603,4.61807013 2.51512457,13.3460682" id="Line"></path>
                    <line x1="8.76295634" y1="7.47143822" x2="2.55349786" y2="13.4397954" id="Line"></line>
                    <line x1="4.76101565" y1="4.35775921" x2="2.54761607" y2="13.2847662" id="Line"></line>
                </g>
                <path d="M38.7253485,3.19705647 C38.8618561,3.58942267 38.7415576,4.02532294 38.423131,4.29213766 L12.061824,26.3807002 L0.378265478,17.1052166 C-0.0542822307,16.7618205 -0.126553839,16.1327937 0.216842323,15.700246 C0.334723941,15.5517602 0.492387159,15.4398443 0.671449005,15.3775471 L37.4522857,2.58117411 C37.9739035,2.39969874 38.5438731,2.67543866 38.7253485,3.19705647 Z M35.2858299,4.86648288 L2.71486929,16.514257 L12.1893068,23.9297795 L35.2858299,4.86648288 Z" id="Combined-Shape" fill="#394157"></path>
                <path d="M45.7400649,12.1982191 C45.7661029,12.5837587 45.5676832,12.9497976 45.2304182,13.1384006 L16.4045981,29.258179 L7.910502,15.2127911 C7.62470134,14.7402063 7.77611984,14.1254134 8.24870468,13.8396127 C8.3852572,13.7570311 8.53959062,13.7083292 8.69880959,13.6975761 L44.6749548,11.2678748 C45.2259843,11.2306603 45.7028503,11.6471896 45.7400649,12.1982191 Z M42.4985976,12.9489166 L10.1092787,15.4300299 L16.7060207,26.8414704 L42.4985976,12.9489166 Z" id="Combined-Shape" fill="#394157" transform="translate(26.754196, 20.261871) scale(1, -1) rotate(80.000000) translate(-26.754196, -20.261871) "></path>
            </g>
        </g>
    </g>
</svg>