<?xml version="1.0" encoding="UTF-8"?>
<svg width="35px" height="40px" viewBox="0 0 35 40" version="1.1" xmlns="http://www.w3.org/2000/svg" xmlns:xlink="http://www.w3.org/1999/xlink">
    <!-- Generator: Sketch 63.1 (92452) - https://sketch.com -->
    <title>Picto mdp</title>
    <desc>Created with Sketch.</desc>
    <defs>
        <linearGradient x1="100%" y1="99.9971429%" x2="0%" y2="0.00285706123%" id="linearGradient-1">
            <stop stop-color="#99EEE8" offset="0%"></stop>
            <stop stop-color="#0096D4" offset="100%"></stop>
        </linearGradient>
    </defs>
    <g id="Page-1" stroke="none" stroke-width="1" fill="none" fill-rule="evenodd">
        <g id="02_LOGIN-NOM" transform="translate(-712.000000, -555.000000)">
            <g id="Mot-de-passe" transform="translate(712.000000, 555.000000)">
                <g id="Picto-mdp" transform="translate(0.000054, 0.272082)">
                    <path d="M15.7087891,13.9559456 C15.7087891,19.2152653 19.9727347,23.479483 25.2328707,23.479483 L25.2328707,23.479483 C30.4927347,23.479483 34.7566803,19.2152653 34.7566803,13.9559456 L34.7566803,13.9559456 C34.7566803,8.69580952 30.4927347,4.43213605 25.2328707,4.43213605 L25.2328707,4.43213605 C19.9727347,4.43213605 15.7087891,8.69580952 15.7087891,13.9559456" id="Fill-1" fill="url(#linearGradient-1)"></path>
                    <path d="M15.0495238,-3.19744231e-14 C20.047619,-3.19744231e-14 24.1298715,3.99456653 24.27157,8.95898859 L24.2753741,9.22585034 L24.2753741,15.6462585 L29.1469388,15.6462585 C29.6353547,15.6462585 30.0378981,16.0141497 30.0929124,16.4876218 L30.0993197,16.5986395 L30.0993197,32.6103401 C30.0993197,36.1832798 27.2545537,39.1043265 23.7109827,39.2270089 L23.4789116,39.2310204 L6.62040816,39.2310204 C3.04746852,39.2310204 0.126682496,36.3859937 0.00401117522,32.8424117 L-5.68434189e-14,32.6103401 L-5.68434189e-14,16.5986395 C-5.68434189e-14,16.1104762 0.367656532,15.7077162 0.841313044,15.6526697 L0.952380952,15.6462585 L5.82394558,15.6462585 L5.82394558,9.22585034 C5.82394558,4.1385034 9.96244898,-3.19744231e-14 15.0495238,-3.19744231e-14 Z M28.1945578,17.5510204 L1.9047619,17.5510204 L1.9047619,32.6103401 C1.9047619,35.138647 3.9042475,37.2083634 6.40487622,37.3213967 L6.62040816,37.3262585 L23.4789116,37.3262585 C26.0069539,37.3262585 28.0766629,35.3267729 28.1896961,32.8258941 L28.1945578,32.6103401 L28.1945578,17.5510204 Z M15.0496327,22.8605986 C16.9260952,22.8605986 18.4523537,24.3871293 18.4523537,26.2633197 C18.4523537,27.7444989 17.5002137,29.0055112 16.1767037,29.4715742 L16.0020136,29.5278095 L16.0020136,32.8293061 C16.0020136,33.3552925 15.575619,33.7816871 15.0496327,33.7816871 C14.5612167,33.7816871 14.1586733,33.4140305 14.1036591,32.940374 L14.0972517,32.8293061 L14.0972517,29.5278095 C12.6836463,29.1147483 11.6469116,27.808898 11.6469116,26.2633197 C11.6469116,24.3871293 13.1731701,22.8605986 15.0496327,22.8605986 Z M15.0496327,24.7653605 C14.2237823,24.7653605 13.5516735,25.4374694 13.5516735,26.2633197 C13.5516735,27.0891701 14.2237823,27.7612789 15.0496327,27.7612789 C15.875483,27.7612789 16.5475918,27.0891701 16.5475918,26.2633197 C16.5475918,25.4374694 15.875483,24.7653605 15.0496327,24.7653605 Z M15.0495238,1.9047619 C11.0935238,1.9047619 7.86037181,5.05905524 7.73262813,8.98456937 L7.72870748,9.22585034 L7.72870748,15.6462585 L22.3706122,15.6462585 L22.3706122,9.22585034 C22.3706122,5.18911565 19.0862585,1.9047619 15.0495238,1.9047619 Z" id="Shape" fill="#394157"></path>
                </g>
            </g>
        </g>
    </g>
</svg>