<?xml version="1.0" encoding="UTF-8"?>
<svg width="40px" height="39px" viewBox="0 0 40 39" version="1.1" xmlns="http://www.w3.org/2000/svg" xmlns:xlink="http://www.w3.org/1999/xlink">
    <!-- Generator: Sketch 63.1 (92452) - https://sketch.com -->
    <title>Picto nom session</title>
    <desc>Created with Sketch.</desc>
    <defs>
        <linearGradient x1="14.644661%" y1="14.6450655%" x2="85.3553391%" y2="85.3547335%" id="linearGradient-1">
            <stop stop-color="#0095D4" offset="0%"></stop>
            <stop stop-color="#99EDE8" offset="100%"></stop>
        </linearGradient>
    </defs>
    <g id="Page-1" stroke="none" stroke-width="1" fill="none" fill-rule="evenodd">
        <g id="06_INFO-SESSION-NOM" transform="translate(-465.000000, -294.000000)">
            <g id="Nom-de-la-session" transform="translate(465.000000, 293.000000)">
                <g id="Picto-nom-session" transform="translate(0.000000, 1.000000)">
                    <path d="M9.48509485,-2.11386464e-13 C4.24661247,-2.11386464e-13 -2.48689958e-14,4.24661247 -2.48689958e-14,9.48509485 L-2.48689958e-14,9.48509485 C-2.48689958e-14,14.7233062 4.24661247,18.9699187 9.48509485,18.9699187 L9.48509485,18.9699187 C14.7235772,18.9699187 18.9701897,14.7233062 18.9701897,9.48509485 L18.9701897,9.48509485 C18.9701897,4.24661247 14.7235772,-2.11386464e-13 9.48509485,-2.11386464e-13 Z" id="Fill-1" fill="url(#linearGradient-1)"></path>
                    <path d="M19.6476423,2.3200813 C30.4067209,2.3200813 39.1598374,9.1301084 39.1598374,17.5008401 C39.1598374,25.4997561 31.3592954,32.0084282 21.2297561,32.6317344 L21.2297561,37.6458266 C21.2297561,38.0038211 21.0284011,38.3311924 20.7086179,38.492439 C20.5736585,38.5607317 20.4270461,38.594336 20.2812466,38.594336 C20.0823306,38.594336 19.8842276,38.5317344 19.718103,38.4089702 L7.41403794,29.3314634 L7.39831978,29.3195393 L7.39831978,29.3195393 C5.19588076,27.7152033 0.135447154,23.385935 0.135447154,17.5008401 C0.135447154,9.1301084 8.88856369,2.3200813 19.6476423,2.3200813 Z M19.6476423,4.21710027 C9.93463415,4.21710027 2.03246612,10.1761789 2.03246612,17.5008401 C2.03246612,22.5333604 6.5804336,26.3805149 8.53544715,27.8011111 C8.54466125,27.8076152 8.55333333,27.8143902 8.56200542,27.8211653 L19.3327371,35.7672358 L19.3327371,31.9696748 C19.3029268,31.8577507 19.2931707,31.7387805 19.3067209,31.6176423 C19.3603794,31.1469106 19.7527913,30.788103 20.2259621,30.7764499 C24.8533333,30.6634417 29.1706775,29.2040921 32.3826016,26.6666938 C35.5297561,24.1807859 37.2628184,20.9257724 37.2628184,17.5008401 C37.2628184,10.1761789 29.3606504,4.21710027 19.6476423,4.21710027 Z M26.3857182,19.7837127 C26.9095664,19.7837127 27.3342276,20.208374 27.3342276,20.7322222 C27.3342276,21.2560705 26.9095664,21.6807317 26.3857182,21.6807317 L12.9095664,21.6807317 C12.3859892,21.6807317 11.9610569,21.2560705 11.9610569,20.7322222 C11.9610569,20.208374 12.3859892,19.7837127 12.9095664,19.7837127 L26.3857182,19.7837127 Z M27.6920325,14.420813 C28.2158808,14.420813 28.640542,14.8454743 28.640542,15.3693225 C28.640542,15.8931707 28.2158808,16.317832 27.6920325,16.317832 L11.6034146,16.317832 C11.0795664,16.317832 10.6549051,15.8931707 10.6549051,15.3693225 C10.6549051,14.8454743 11.0795664,14.420813 11.6034146,14.420813 L27.6920325,14.420813 Z" id="Combined-Shape" fill="#394157"></path>
                </g>
            </g>
        </g>
    </g>
</svg>