<?xml version="1.0" encoding="UTF-8"?>
<svg width="39px" height="39px" viewBox="0 0 39 39" version="1.1" xmlns="http://www.w3.org/2000/svg" xmlns:xlink="http://www.w3.org/1999/xlink">
    <title>21445400-0D0D-454F-899A-D7B384EA4C53</title>
    <defs>
        <linearGradient x1="14.644661%" y1="14.6440359%" x2="85.3553391%" y2="85.354714%" id="linearGradient-1">
            <stop stop-color="#0095D4" offset="0%"></stop>
            <stop stop-color="#99EDE8" offset="100%"></stop>
        </linearGradient>
    </defs>
    <g id="Page-1" stroke="none" stroke-width="1" fill="none" fill-rule="evenodd">
        <g id="02_GESTION-UTILISATEUR-2" transform="translate(-465.000000, -881.000000)">
            <g id="Role" transform="translate(465.000000, 881.000000)">
                <g id="Picto-role">
                    <path d="M0,9.68946408 C0,14.8207732 4.15994691,18.9809856 9.29152149,18.9809856 L9.29152149,18.9809856 C14.4230961,18.9809856 18.583043,14.8207732 18.583043,9.68946408 L18.583043,9.68946408 C18.583043,4.5578895 14.4230961,0.397942592 9.29152149,0.397942592 L9.29152149,0.397942592 C4.15994691,0.397942592 0,4.5578895 0,9.68946408" id="Fill-1" fill="url(#linearGradient-1)"></path>
                    <path d="M18.9418815,0.267038328 L18.9963033,0.265445495 L18.9963033,0.265445495 L19.6347051,0.310300226 C21.602093,0.475231117 28.1235062,1.17862222 34.2330712,3.60933134 C34.5473901,3.7341622 34.7656409,4.01840737 34.8102606,4.34740043 L34.8187025,4.47264642 L34.8187025,19.033257 C34.8187025,19.863919 34.7679973,20.6438759 34.6700382,21.4044533 C36.950974,23.1751518 38.422751,25.9405741 38.422751,29.0450041 C38.422751,34.3775411 34.0841414,38.7161507 28.7516044,38.7161507 C26.5227012,38.7161507 24.4690095,37.9561042 22.8315779,36.6844931 C21.776592,37.3529517 20.6427609,38.0222067 19.4420309,38.6784536 C19.303189,38.7546441 19.1497461,38.7923411 18.9963033,38.7923411 C18.8428605,38.7923411 18.6896831,38.7546441 18.5505757,38.6784536 L17.6594617,38.18251 C4.99030912,31.0022098 3.21305601,24.3038744 3.17429988,19.2083285 L3.17363863,4.47264642 C3.17363863,4.09195952 3.40566119,3.74976605 3.75926995,3.60933134 C10.9065738,0.765860295 18.6172092,0.286152315 18.9418815,0.267038328 Z M28.7516044,21.2321619 C24.4435241,21.2321619 20.9387622,24.7369238 20.9387622,29.0450041 C20.9387622,33.3530845 24.4435241,36.8578464 28.7516044,36.8578464 C33.0596848,36.8578464 36.5644467,33.3530845 36.5644467,29.0450041 C36.5644467,24.7369238 33.0596848,21.2321619 28.7516044,21.2321619 Z M18.9963033,2.12587357 L18.2146575,2.19117496 C16.1586011,2.3853051 10.6421776,3.05414127 5.37505909,4.98149368 L5.03194292,5.10898291 L5.03260665,19.1965965 L5.03817574,19.5270292 C5.15672333,24.1323993 7.06402645,30.1582797 18.9963033,36.8020972 C19.8503269,36.3266368 20.6663879,35.8458669 21.4405044,35.3650971 C20.0582047,33.7681765 19.1883849,31.7167566 19.0912022,29.4673527 L19.0823162,29.1105757 L13.5127128,29.1105757 C11.478666,29.1105757 9.82371329,27.4558885 9.82371329,25.4218417 C9.82371329,21.5918766 12.0905791,18.3013506 15.3638493,16.8786859 C13.6162469,15.705034 12.4638328,13.710808 12.4638328,11.4521719 C12.4638328,7.84998175 15.3943786,4.91943587 18.9963033,4.91943587 C22.598228,4.91943587 25.5287739,7.84998175 25.5287739,11.4521719 C25.5287739,13.706295 24.3811382,15.6970699 22.6396416,16.8717836 C24.0495636,17.4783873 25.2938311,18.4417853 26.2604148,19.7006537 C27.055769,19.4882761 27.8904131,19.3738576 28.7516044,19.3738576 C30.2409026,19.3738576 31.6529484,19.7128654 32.9144715,20.3168143 C32.9346474,20.0401925 32.948334,19.7587331 32.9552166,19.4706271 L32.9603982,19.033257 L32.9603982,5.10898291 C26.5638493,2.69557657 19.6780355,2.17259665 18.9963033,2.12587357 Z M32.6577335,25.8573486 C33.0206338,25.4944483 33.6086544,25.4944483 33.9715547,25.8573486 C34.3042133,26.1897638 34.3319348,26.7120119 34.0547193,27.0760659 L33.9715547,27.1711697 L28.0929418,33.0500481 C27.9113589,33.2313655 27.6737614,33.322157 27.4358985,33.322157 C27.2379006,33.322157 27.0397183,33.2591074 26.8740748,33.1331618 L26.7788552,33.0500481 L23.4078912,29.6790841 C23.0449909,29.3161838 23.0449909,28.7278978 23.4078912,28.3649975 C23.7405497,28.0323389 24.2623719,28.0046174 24.6265578,28.2818329 L24.7217123,28.3649975 L27.4358985,31.0789182 L32.6577335,25.8573486 Z M18.9537855,17.9849686 L18.6641978,17.9923411 C14.7490161,18.1646325 11.6820176,21.4280803 11.6820176,25.4218417 C11.6820176,26.3807002 12.4233045,27.1696904 13.3628029,27.2461923 L13.5127128,27.2522714 L19.2498291,27.2522714 C19.8152846,24.2487208 21.7728754,21.7320458 24.425472,20.3993761 C23.0359683,18.8514202 21.0708168,17.9716529 18.9537855,17.9849686 L18.9537855,17.9849686 Z M18.9963033,6.77774017 C16.4188352,6.77774017 14.322137,8.87470383 14.322137,11.4521719 C14.322137,14.02964 16.4188352,16.1263381 18.9963033,16.1263381 C21.5737714,16.1263381 23.6704696,14.02964 23.6704696,11.4521719 C23.6704696,8.87470383 21.5737714,6.77774017 18.9963033,6.77774017 Z" id="Shape" fill="#394157"></path>
                </g>
            </g>
        </g>
    </g>
</svg>