<?xml version="1.0" encoding="UTF-8"?>
<svg width="24px" height="24px" viewBox="0 0 24 24" version="1.1" xmlns="http://www.w3.org/2000/svg" xmlns:xlink="http://www.w3.org/1999/xlink">
    <title>8CE9AA61-8FFF-43C9-A375-AF2EB295B5CF</title>
    <g id="Page-1" stroke="none" stroke-width="1" fill="none" fill-rule="evenodd">
        <g id="00_ACCUEIL" transform="translate(-1088.000000, -19.000000)" fill="#394157">
            <g id="Menu" transform="translate(1088.000000, 19.000000)">
                <path d="M20.4626267,22.8361036 L15.5501662,22.8361036 L15.5501662,13.8667858 C15.5501662,13.5453842 15.288975,13.2848377 14.9667781,13.2848377 L9.03322186,13.2848377 C8.71102499,13.2848377 8.44983384,13.5453842 8.44983384,13.8667858 L8.44983384,22.8361036 L3.5373733,22.8361036 L3.5373733,9.83987072 L12,1.39813049 L20.4626267,9.83987072 L20.4626267,22.8361036 Z M9.61644321,22.8361036 L14.3833901,22.8361036 L14.3833901,14.448734 L9.61644321,14.448734 L9.61644321,22.8361036 Z M23.829109,11.5522948 L12.412372,0.163735276 C12.1936848,-0.0545784253 11.8061485,-0.0545784253 11.5874613,0.163735276 L0.170891021,11.5522948 C-0.0569636737,11.7794209 -0.0569636737,12.1480435 0.170891021,12.3751695 C0.398745716,12.6024618 0.767946995,12.6024618 0.99580169,12.3751695 L2.37059724,11.0037671 L2.37059724,23.4180518 C2.37059724,23.7394535 2.6317884,24 2.95398527,24 L21.0460147,24 C21.3682116,24 21.6294028,23.7394535 21.6294028,23.4180518 L21.6294028,11.0037671 L23.0041983,12.3751695 C23.118209,12.4888988 23.2673897,12.5455972 23.416737,12.5455972 C23.5659176,12.5455972 23.715265,12.4888988 23.829109,12.3751695 C24.0569637,12.1480435 24.0569637,11.7794209 23.829109,11.5522948 L23.829109,11.5522948 Z" id="Picto-accueil"></path>
            </g>
        </g>
    </g>
</svg>