<?xml version="1.0" encoding="UTF-8"?>
<svg width="39px" height="40px" viewBox="0 0 39 40" version="1.1" xmlns="http://www.w3.org/2000/svg" xmlns:xlink="http://www.w3.org/1999/xlink">
    <title>Untitled</title>
    <defs>
        <linearGradient x1="14.644968%" y1="14.6458936%" x2="85.3536259%" y2="85.3555616%" id="linearGradient-1">
            <stop stop-color="#0095D4" offset="0%"></stop>
            <stop stop-color="#99EDE8" offset="100%"></stop>
        </linearGradient>
    </defs>
    <g id="Page-1" stroke="none" stroke-width="1" fill="none" fill-rule="evenodd">
        <g id="Picto_saisie_donnees">
            <path d="M0.00563758389,14.7613423 C0.00563758389,19.950604 4.21234899,24.1573154 9.40161074,24.1573154 L9.40161074,24.1573154 C14.5908725,24.1573154 18.7975839,19.950604 18.7975839,14.7613423 L18.7975839,14.7613423 C18.7975839,9.57208054 14.5908725,5.36510067 9.40161074,5.36510067 L9.40161074,5.36510067 C4.21234899,5.36510067 0.00563758389,9.57208054 0.00563758389,14.7613423" id="Fill-1" fill="url(#linearGradient-1)" fill-rule="nonzero"></path>
            <path d="M7.4209396,31.205906 C7.93986577,31.205906 8.36053691,31.6268456 8.36053691,32.1455034 L8.36053691,38.6268456 C8.36053691,39.1457718 7.93986577,39.566443 7.4209396,39.566443 L0.939597315,39.566443 C0.420671141,39.566443 -4.54747351e-12,39.1457718 -4.54747351e-12,38.6268456 L-4.54747351e-12,32.1455034 C-4.54747351e-12,31.6268456 0.420671141,31.205906 0.939597315,31.205906 L7.4209396,31.205906 Z M37.8209396,31.205906 C38.3395973,31.205906 38.7605369,31.6268456 38.7605369,32.1455034 L38.7605369,38.6268456 C38.7605369,39.1457718 38.3395973,39.566443 37.8209396,39.566443 L11.7884564,39.566443 C11.2695302,39.566443 10.8488591,39.1457718 10.8488591,38.6268456 L10.8488591,32.1455034 C10.8488591,31.6268456 11.2695302,31.205906 11.7884564,31.205906 L37.8209396,31.205906 Z M6.48134228,33.0851007 L1.87919463,33.0851007 L1.87919463,37.6872483 L6.48134228,37.6872483 L6.48134228,33.0851007 Z M36.8813423,33.0851007 L12.7280537,33.0851007 L12.7280537,37.6872483 L36.8813423,37.6872483 L36.8813423,33.0851007 Z M7.4209396,20.8934228 C7.93986577,20.8934228 8.36053691,21.3143624 8.36053691,21.8330201 L8.36053691,28.3143624 C8.36053691,28.8332886 7.93986577,29.2539597 7.4209396,29.2539597 L0.939597315,29.2539597 C0.420671141,29.2539597 -4.54747351e-12,28.8332886 -4.54747351e-12,28.3143624 L-4.54747351e-12,21.8330201 C-4.54747351e-12,21.3143624 0.420671141,20.8934228 0.939597315,20.8934228 L7.4209396,20.8934228 Z M15,20.8934228 C15.5186577,20.8934228 15,21.3143624 15,21.8330201 C15.8756982,24.0991067 16.6441605,25.5705293 17.3053869,26.2472878 C17.8473955,26.8020282 18.8837856,27.1778539 20.4145572,27.3747651 C20.4145572,27.8936913 27.0373154,29.2539597 26.5186577,29.2539597 L11.7884564,29.2539597 C11.2695302,29.2539597 10.8488591,28.8332886 10.8488591,28.3143624 L10.8488591,21.8330201 C10.8488591,21.3143624 11.2695302,20.8934228 11.7884564,20.8934228 L15,20.8934228 Z M6.48134228,22.7726174 L1.87919463,22.7726174 L1.87919463,27.3747651 L6.48134228,27.3747651 L6.48134228,22.7726174 Z M16.1743654,22.7726174 L12.7280537,22.7726174 L12.7280537,27.3747651 L19.5,27.3747651 L16.1743654,22.7726174 Z M37.8209396,20.89 C38.3395973,20.89 38.7605369,21.3109396 38.7605369,21.8295973 L38.7605369,28.3112081 C38.7605369,28.8298658 38.3395973,29.2508054 37.8209396,29.2508054 C37.0960215,29.2508054 34.4890416,29.2508054 30,29.2508054 C27.8829481,29.2508054 17.3898859,29.2508054 15,29.2508054 C12.6826346,29.2508054 15.3376507,29.2508054 22.9650484,29.2508054 C22.4461222,29.2508054 28.8223893,27.8910738 28.8223893,27.3724161 C30.348007,27.0312629 30.5078607,25.4375194 31.0848714,25.0704027 C32.0372787,24.464444 32.6703946,23.3841756 32.9842192,21.8295973 C32.9842192,21.3109396 32.465293,20.89 32.9842192,20.89 L37.8209396,20.89 Z M36.8813423,22.77 L32.9842192,22.77 L30,27.3724161 L28.8223893,27.3724161 L36.8813423,27.3724161 L36.8813423,22.77 Z M7.4209396,10.5809396 C7.93986577,10.5809396 8.36053691,11.0018792 8.36053691,11.5205369 L8.36053691,18.0021477 C8.36053691,18.5208054 7.93986577,18.941745 7.4209396,18.941745 L0.939597315,18.941745 C0.420671141,18.941745 -4.54747351e-12,18.5208054 -4.54747351e-12,18.0021477 L-4.54747351e-12,11.5205369 C-4.54747351e-12,11.0018792 0.420671141,10.5809396 0.939597315,10.5809396 L7.4209396,10.5809396 Z M37.8209396,10.5809396 C38.3395973,10.5809396 38.7605369,11.0018792 38.7605369,11.5205369 L38.7605369,18.0021477 C38.7605369,18.5208054 38.3395973,18.941745 37.8209396,18.941745 C37.0960215,18.941745 34.4890416,18.941745 30,18.941745 C27.6826346,18.941745 28.6826346,18.941745 33,18.941745 C32.4810738,18.941745 31.7,15.2798657 31.7,14.761208 L26.8112804,11.5205369 C26.8112804,11.0018792 18.2786577,10.5809396 18.7975839,10.5809396 L37.8209396,10.5809396 Z M6.48134228,12.4601342 L1.87919463,12.4601342 L1.87919463,17.0625503 L6.48134228,17.0625503 L6.48134228,12.4601342 Z M36.8813423,12.4601342 L28.7643681,12.4601342 L32.9842192,17 L32.9842192,17.0625503 L36.8813423,17.0625503 L36.8813423,12.4601342 Z M24.9558395,10.58 C25.4744972,10.58 20.7432366,11.4813423 20.7432366,12 C18.3853354,13.0757616 16.8674558,14.0343149 16.1895975,14.87566 C15.6247678,15.5767161 15.2786156,16.9317646 15.1511409,18.9408054 C15.1511409,19.4594631 15.5186577,18.9408054 15,18.9408054 C12.8829481,18.9408054 17.5410268,18.9408054 15.1511409,18.9408054 C12.8337755,18.9408054 11.763261,18.9408054 11.9395973,18.9408054 C11.4206711,18.9408054 11,18.5198658 11,18.0012081 L11,11.5195973 C11,11.0009396 11.4206711,10.58 11.9395973,10.58 L24.9558395,10.58 Z M19.5,12.46 L12.879195,12.46 L12.879195,17.062416 L15,17.062416 L19.5,12.46 Z M7.4209396,0.268456376 C7.93986577,0.268456376 8.36053691,0.689395973 8.36053691,1.20805369 L8.36053691,7.68966443 C8.36053691,8.20832215 7.93986577,8.62926174 7.4209396,8.62926174 L0.939597315,8.62926174 C0.420671141,8.62926174 -4.54747351e-12,8.20832215 -4.54747351e-12,7.68966443 L-4.54747351e-12,1.20805369 C-4.54747351e-12,0.689395973 0.420671141,0.268456376 0.939597315,0.268456376 L7.4209396,0.268456376 Z M37.8209396,0.268456376 C38.3395973,0.268456376 38.7605369,0.689395973 38.7605369,1.20805369 L38.7605369,7.68966443 C38.7605369,8.20832215 38.3395973,8.62926174 37.8209396,8.62926174 L11.7884564,8.62926174 C11.2695302,8.62926174 10.8488591,8.20832215 10.8488591,7.68966443 L10.8488591,1.20805369 C10.8488591,0.689395973 11.2695302,0.268456376 11.7884564,0.268456376 L37.8209396,0.268456376 Z M6.48134228,2.14765101 L1.87919463,2.14765101 L1.87919463,6.75006711 L6.48134228,6.75006711 L6.48134228,2.14765101 Z M36.8813423,2.14765101 L12.7280537,2.14765101 L12.7280537,6.75006711 L36.8813423,6.75006711 L36.8813423,2.14765101 Z" id="Shape" fill="#394157" fill-rule="nonzero"></path>
            <g id="Group" transform="translate(15.000000, 11.000000)" stroke="#394157" stroke-width="2">
                <path d="M8.99210964,1.0658141e-15 C4.03397268,1.0658141e-15 0,4.0339726 0,8.99243836 C0,13.9505754 4.03397268,17.9842191 8.99210964,17.9842191 C13.9505754,17.9842191 17.9842192,13.9505754 17.9842192,8.99243836 C17.9842192,4.0339726 13.9505754,1.0658141e-15 8.99210964,1.0658141e-15 Z" id="Shape-path"></path>
                <polyline id="Path" stroke-linecap="round" stroke-linejoin="round" points="4.8 8.68735793 8.41449884 13.3586578 13.8223893 6"></polyline>
            </g>
        </g>
    </g>
</svg>