<?xml version="1.0" encoding="UTF-8"?>
<svg width="40px" height="40px" viewBox="0 0 40 40" version="1.1" xmlns="http://www.w3.org/2000/svg" xmlns:xlink="http://www.w3.org/1999/xlink">
    <title>43C0BF30-CCA6-4AD5-B75F-BA3588A449A7</title>
    <defs>
        <linearGradient x1="14.6444266%" y1="14.644566%" x2="85.3551047%" y2="85.3552441%" id="linearGradient-1">
            <stop stop-color="#0095D4" offset="0%"></stop>
            <stop stop-color="#99EDE8" offset="100%"></stop>
        </linearGradient>
    </defs>
    <g id="Page-1" stroke="none" stroke-width="1" fill="none" fill-rule="evenodd">
        <g id="00_ACCUEIL" transform="translate(-709.000000, -550.000000)">
            <g id="Tableau-de-bord" transform="translate(709.000000, 550.000000)">
                <g id="Picto-tableau-de-bord">
                    <path d="M6.09780822,13.7353425 C6.09780822,19.0312329 10.3909589,23.3243836 15.6868493,23.3243836 L15.6868493,23.3243836 C20.9827397,23.3243836 25.2758904,19.0312329 25.2758904,13.7353425 L25.2758904,13.7353425 C25.2758904,8.43945205 20.9827397,4.14630137 15.6868493,4.14630137 L15.6868493,4.14630137 C10.3909589,4.14630137 6.09780822,8.43945205 6.09780822,13.7353425" id="Fill-1" fill="url(#linearGradient-1)"></path>
                    <path d="M33.8210411,37.9126027 L20.482137,37.9126027 L20.482137,27.7572603 L37.6388493,27.7572603 L37.6388493,34.0947945 C37.6388493,36.2 35.9262466,37.9126027 33.8210411,37.9126027 M1.91775342,34.0947945 L1.91775342,18.090411 L18.5643288,18.090411 L18.5643288,37.9126027 L5.73556164,37.9126027 C3.63035616,37.9126027 1.91775342,36.2 1.91775342,34.0947945 M5.73556164,2.19178082 L18.5643288,2.19178082 L18.5643288,16.1726027 L1.91775342,16.1726027 L1.91775342,6.00958904 C1.91775342,3.90438356 3.63035616,2.19178082 5.73556164,2.19178082 M37.6388493,6.00958904 L37.6388493,25.8394521 L20.482137,25.8394521 L20.482137,2.19178082 L33.8210411,2.19178082 C35.9262466,2.19178082 37.6388493,3.90438356 37.6388493,6.00958904 M33.8210411,0.273972603 L5.73556164,0.273972603 C2.57282192,0.273972603 -5.47945201e-05,2.84712329 -5.47945201e-05,6.00958904 L-5.47945201e-05,34.0947945 C-5.47945201e-05,37.2572603 2.57282192,39.830411 5.73556164,39.830411 L33.8210411,39.830411 C36.9835068,39.830411 39.5566575,37.2572603 39.5566575,34.0947945 L39.5566575,6.00958904 C39.5566575,2.84712329 36.9835068,0.273972603 33.8210411,0.273972603" id="Fill-4" fill="#394157"></path>
                </g>
            </g>
        </g>
    </g>
</svg>