<?xml version="1.0" encoding="UTF-8"?>
<svg width="40px" height="40px" viewBox="0 0 40 40" version="1.1" xmlns="http://www.w3.org/2000/svg" xmlns:xlink="http://www.w3.org/1999/xlink">
    <title>1E565F71-C113-4E14-B5F7-B44D2CFC7987</title>
    <defs>
        <linearGradient x1="14.6437013%" y1="14.6445186%" x2="85.3543794%" y2="85.3551967%" id="linearGradient-1">
            <stop stop-color="#0095D4" offset="0%"></stop>
            <stop stop-color="#99EDE8" offset="100%"></stop>
        </linearGradient>
    </defs>
    <g id="Page-1" stroke="none" stroke-width="1" fill="none" fill-rule="evenodd">
        <g id="00_ACCUEIL" transform="translate(-709.000000, -430.000000)">
            <g id="Modifier-session-rupture" transform="translate(709.000000, 430.000000)">
                <g id="Picto-modifier-session">
                    <path d="M16.8614966,26.6193197 C16.8614966,31.8791837 21.1254422,36.1431293 26.3853061,36.1431293 L26.3853061,36.1431293 C31.644898,36.1431293 35.9091156,31.8791837 35.9091156,26.6193197 L35.9091156,26.6193197 C35.9091156,21.3594558 31.644898,17.0955102 26.3853061,17.0955102 L26.3853061,17.0955102 C21.1254422,17.0955102 16.8614966,21.3594558 16.8614966,26.6193197" id="Fill-1" fill="url(#linearGradient-1)"></path>
                    <path d="M38.4802721,37.8794558 C39.0062585,37.8794558 39.4326531,38.3058503 39.4326531,38.8318367 C39.4326531,39.3202527 39.0649965,39.7227961 38.59134,39.7778103 L38.4802721,39.7842177 L0.952380952,39.7842177 C0.426394558,39.7842177 1.8189894e-12,39.3578231 1.8189894e-12,38.8318367 C1.8189894e-12,38.3434208 0.367656532,37.9408774 0.841313044,37.8858631 L0.952380952,37.8794558 L38.4802721,37.8794558 Z M28.6593741,0.272108844 C29.5789346,0.272108844 30.4479504,0.602735579 31.1303043,1.20791556 L31.2969252,1.36489796 L35.0000551,5.0677551 C36.404061,6.4720244 36.452475,8.72632936 35.1452971,10.1892218 L35.0000551,10.3428571 L11.2256327,34.1170068 L11.176619,34.162483 L11.176619,34.162483 L11.1023673,34.2190476 L11.1023673,34.2190476 L11.0432857,34.257483 L11.0432857,34.257483 L10.981551,34.2914286 L10.9393741,34.3118367 L10.8605986,34.3438435 L10.8605986,34.3438435 L10.7793741,34.3687075 L1.17964626,36.7268027 C1.10427211,36.745034 1.02808163,36.7540136 0.952435374,36.7540136 C0.710258503,36.7540136 0.474068027,36.6614966 0.294748299,36.4906122 C0.0890340136,36.2939456 -0.0166802721,36.0172789 0.00221481718,35.7375393 L0.0180136054,35.6176871 L1.99842177,25.5844898 L1.99842177,25.5844898 L2.02212925,25.5046599 L2.02212925,25.5046599 L2.06372789,25.402449 L2.06372789,25.402449 C2.09456689,25.3378685 2.13181557,25.2764324 2.1760383,25.2199143 L2.24767347,25.1390476 L26.0218231,1.36489796 C26.7263129,0.660136054 27.6629116,0.272108844 28.6593741,0.272108844 Z M3.64767347,27.0489796 L2.17556463,34.5205442 L9.35434014,32.7572789 C8.14670353,29.3258108 5.35755108,27.7462402 3.79929221,27.1095403 L3.64767347,27.0489796 Z M21.9246803,8.15537415 L4.66808163,25.4117007 L5.03718519,25.5755203 C6.82077889,26.4009848 9.41274201,28.0957517 10.8316547,31.3184897 L10.979102,31.6696599 L28.2095782,14.4397279 L21.9246803,8.15537415 Z M20.3442721,14.9640272 C20.716517,14.5920544 21.318966,14.5920544 21.6912109,14.9640272 C22.0345704,15.3073867 22.0609827,15.847592 21.7704477,16.2212355 L21.6912109,16.310966 L11.1703946,26.8317823 C10.9842721,27.0176327 10.7407347,27.1106939 10.4969252,27.1106939 C10.2531156,27.1106939 10.0095782,27.0176327 9.82345578,26.8317823 C9.48009628,26.4884228 9.45368402,25.9482175 9.74421898,25.5745741 L9.82345578,25.4848435 L20.3442721,14.9640272 Z M25.0384218,5.04163265 L23.2713469,6.80843537 L29.5562449,13.0930612 L31.3230476,11.3262585 L25.0384218,5.04163265 Z M28.6593741,2.17687075 C28.225935,2.17687075 27.8155008,2.32672546 27.4876981,2.60235492 L27.3687619,2.71156463 L26.3853605,3.69496599 L32.6697143,9.97959184 L33.6533878,8.99619048 C34.325421,8.32364324 34.3627562,7.25352986 33.7653933,6.53703783 L33.6533878,6.41442177 L29.9502585,2.71156463 C29.6054966,2.36653061 29.1469932,2.17687075 28.6593741,2.17687075 Z" id="Shape" fill="#394157"></path>
                </g>
            </g>
        </g>
    </g>
</svg>