<?xml version="1.0" encoding="UTF-8"?>
<svg width="39px" height="40px" viewBox="0 0 39 40" version="1.1" xmlns="http://www.w3.org/2000/svg" xmlns:xlink="http://www.w3.org/1999/xlink">
    <title>E5ED92DD-F07F-4F33-B914-4B21D8B46779</title>
    <defs>
        <linearGradient x1="14.644968%" y1="14.6458936%" x2="85.3536259%" y2="85.3555616%" id="linearGradient-1">
            <stop stop-color="#0095D4" offset="0%"></stop>
            <stop stop-color="#99EDE8" offset="100%"></stop>
        </linearGradient>
    </defs>
    <g id="Page-1" stroke="none" stroke-width="1" fill="none" fill-rule="evenodd">
        <g id="00_ACCUEIL" transform="translate(-709.000000, -670.000000)">
            <g id="Saisie-des-données" transform="translate(709.000000, 670.000000)">
                <g id="Picto-saisie-données">
                    <path d="M0.00563758389,14.7613423 C0.00563758389,19.950604 4.21234899,24.1573154 9.40161074,24.1573154 L9.40161074,24.1573154 C14.5908725,24.1573154 18.7975839,19.950604 18.7975839,14.7613423 L18.7975839,14.7613423 C18.7975839,9.57208054 14.5908725,5.36510067 9.40161074,5.36510067 L9.40161074,5.36510067 C4.21234899,5.36510067 0.00563758389,9.57208054 0.00563758389,14.7613423" id="Fill-1" fill="url(#linearGradient-1)"></path>
                    <path d="M7.4209396,31.205906 C7.93986577,31.205906 8.36053691,31.6268456 8.36053691,32.1455034 L8.36053691,38.6268456 C8.36053691,39.1457718 7.93986577,39.566443 7.4209396,39.566443 L0.939597315,39.566443 C0.420671141,39.566443 -4.54747351e-12,39.1457718 -4.54747351e-12,38.6268456 L-4.54747351e-12,32.1455034 C-4.54747351e-12,31.6268456 0.420671141,31.205906 0.939597315,31.205906 L7.4209396,31.205906 Z M37.8209396,31.205906 C38.3395973,31.205906 38.7605369,31.6268456 38.7605369,32.1455034 L38.7605369,38.6268456 C38.7605369,39.1457718 38.3395973,39.566443 37.8209396,39.566443 L11.7884564,39.566443 C11.2695302,39.566443 10.8488591,39.1457718 10.8488591,38.6268456 L10.8488591,32.1455034 C10.8488591,31.6268456 11.2695302,31.205906 11.7884564,31.205906 L37.8209396,31.205906 Z M6.48134228,33.0851007 L1.87919463,33.0851007 L1.87919463,37.6872483 L6.48134228,37.6872483 L6.48134228,33.0851007 Z M36.8813423,33.0851007 L12.7280537,33.0851007 L12.7280537,37.6872483 L36.8813423,37.6872483 L36.8813423,33.0851007 Z M7.4209396,20.8934228 C7.93986577,20.8934228 8.36053691,21.3143624 8.36053691,21.8330201 L8.36053691,28.3143624 C8.36053691,28.8332886 7.93986577,29.2539597 7.4209396,29.2539597 L0.939597315,29.2539597 C0.420671141,29.2539597 -4.54747351e-12,28.8332886 -4.54747351e-12,28.3143624 L-4.54747351e-12,21.8330201 C-4.54747351e-12,21.3143624 0.420671141,20.8934228 0.939597315,20.8934228 L7.4209396,20.8934228 Z M37.8209396,20.8934228 C38.3395973,20.8934228 38.7605369,21.3143624 38.7605369,21.8330201 L38.7605369,28.3143624 C38.7605369,28.8332886 38.3395973,29.2539597 37.8209396,29.2539597 L11.7884564,29.2539597 C11.2695302,29.2539597 10.8488591,28.8332886 10.8488591,28.3143624 L10.8488591,21.8330201 C10.8488591,21.3143624 11.2695302,20.8934228 11.7884564,20.8934228 L37.8209396,20.8934228 Z M6.48134228,22.7726174 L1.87919463,22.7726174 L1.87919463,27.3747651 L6.48134228,27.3747651 L6.48134228,22.7726174 Z M36.8813423,22.7726174 L12.7280537,22.7726174 L12.7280537,27.3747651 L36.8813423,27.3747651 L36.8813423,22.7726174 Z M7.4209396,10.5809396 C7.93986577,10.5809396 8.36053691,11.0018792 8.36053691,11.5205369 L8.36053691,18.0021477 C8.36053691,18.5208054 7.93986577,18.941745 7.4209396,18.941745 L0.939597315,18.941745 C0.420671141,18.941745 -4.54747351e-12,18.5208054 -4.54747351e-12,18.0021477 L-4.54747351e-12,11.5205369 C-4.54747351e-12,11.0018792 0.420671141,10.5809396 0.939597315,10.5809396 L7.4209396,10.5809396 Z M37.8209396,10.5809396 C38.3395973,10.5809396 38.7605369,11.0018792 38.7605369,11.5205369 L38.7605369,18.0021477 C38.7605369,18.5208054 38.3395973,18.941745 37.8209396,18.941745 L11.7884564,18.941745 C11.2695302,18.941745 10.8488591,18.5208054 10.8488591,18.0021477 L10.8488591,11.5205369 C10.8488591,11.0018792 11.2695302,10.5809396 11.7884564,10.5809396 L37.8209396,10.5809396 Z M6.48134228,12.4601342 L1.87919463,12.4601342 L1.87919463,17.0625503 L6.48134228,17.0625503 L6.48134228,12.4601342 Z M36.8813423,12.4601342 L12.7280537,12.4601342 L12.7280537,17.0625503 L36.8813423,17.0625503 L36.8813423,12.4601342 Z M7.4209396,0.268456376 C7.93986577,0.268456376 8.36053691,0.689395973 8.36053691,1.20805369 L8.36053691,7.68966443 C8.36053691,8.20832215 7.93986577,8.62926174 7.4209396,8.62926174 L0.939597315,8.62926174 C0.420671141,8.62926174 -4.54747351e-12,8.20832215 -4.54747351e-12,7.68966443 L-4.54747351e-12,1.20805369 C-4.54747351e-12,0.689395973 0.420671141,0.268456376 0.939597315,0.268456376 L7.4209396,0.268456376 Z M37.8209396,0.268456376 C38.3395973,0.268456376 38.7605369,0.689395973 38.7605369,1.20805369 L38.7605369,7.68966443 C38.7605369,8.20832215 38.3395973,8.62926174 37.8209396,8.62926174 L11.7884564,8.62926174 C11.2695302,8.62926174 10.8488591,8.20832215 10.8488591,7.68966443 L10.8488591,1.20805369 C10.8488591,0.689395973 11.2695302,0.268456376 11.7884564,0.268456376 L37.8209396,0.268456376 Z M6.48134228,2.14765101 L1.87919463,2.14765101 L1.87919463,6.75006711 L6.48134228,6.75006711 L6.48134228,2.14765101 Z M36.8813423,2.14765101 L12.7280537,2.14765101 L12.7280537,6.75006711 L36.8813423,6.75006711 L36.8813423,2.14765101 Z" id="Shape" fill="#394157"></path>
                </g>
            </g>
        </g>
    </g>
</svg>