<?xml version="1.0" encoding="UTF-8"?>
<svg width="40px" height="40px" viewBox="0 0 40 40" version="1.1" xmlns="http://www.w3.org/2000/svg" xmlns:xlink="http://www.w3.org/1999/xlink">
    <title>EE5096F9-3899-4A05-B190-7B1F28CD5A91</title>
    <defs>
        <linearGradient x1="14.6458804%" y1="14.6454367%" x2="85.3555483%" y2="85.3561149%" id="linearGradient-1">
            <stop stop-color="#0095D4" offset="0%"></stop>
            <stop stop-color="#99EDE8" offset="100%"></stop>
        </linearGradient>
    </defs>
    <g id="Page-1" stroke="none" stroke-width="1" fill="none" fill-rule="evenodd">
        <g id="00_ACCUEIL" transform="translate(-709.000000, -190.000000)">
            <g id="Ajout-utilisateur" transform="translate(709.000000, 190.000000)">
                <g id="Picto-gérer-user">
                    <path d="M0,16.2347945 L0,16.3715068 C0.0369863014,21.6358904 4.31643836,25.8920548 9.58876712,25.8920548 L9.58876712,25.8920548 C14.8846575,25.8920548 19.1778082,21.5991781 19.1778082,16.3030137 L19.1778082,16.3030137 C19.1778082,11.0071233 14.8846575,6.7139726 9.58876712,6.7139726 L9.58876712,6.7139726 C4.31643836,6.7139726 0.0369863014,10.970411 0,16.2347945" id="Fill-1" fill="url(#linearGradient-1)"></path>
                    <path d="M17.4874247,0.273917808 C22.7170137,0.273917808 26.9720822,4.52871233 26.9720822,9.75884932 C26.9720822,13.2947397 25.0257808,16.3829589 22.1493425,18.0136438 C22.9024932,18.2407671 23.6309863,18.5240548 24.333726,18.8536438 C25.9512603,17.5426849 28.0098904,16.7550137 30.2496164,16.7550137 C35.4389315,16.7550137 39.6605753,20.9766575 39.6605753,26.1662466 C39.6605753,30.1530959 37.1679726,33.5659726 33.6600274,34.9350137 L33.6600274,34.9350137 L33.6600274,38.752274 C33.6600274,39.281863 33.2304384,39.7111781 32.7011233,39.7111781 L32.7011233,39.7111781 L2.27345205,39.7111781 C1.74386301,39.7111781 1.31454795,39.281863 1.31454795,38.752274 L1.31454795,38.752274 L1.31454795,33.4983014 C1.31454795,26.2013151 6.17372603,20.0202192 12.8252329,18.0136438 C9.94906849,16.3829589 8.00249315,13.2947397 8.00249315,9.75884932 C8.00249315,4.52871233 12.2575616,0.273917808 17.4874247,0.273917808 Z M17.4874247,19.2435068 C9.62715068,19.2435068 3.23235616,25.6383014 3.23235616,33.4983014 L3.23235616,33.4983014 L3.23235616,37.7933699 L31.7422192,37.7933699 L31.7422192,35.4577534 C31.2556438,35.5355616 30.7575616,35.5772055 30.2496164,35.5772055 C25.0600274,35.5772055 20.8383836,31.3555616 20.8383836,26.1662466 C20.8383836,23.9539178 21.6079726,21.9185753 22.8901644,20.3100822 C21.2227671,19.6246027 19.3989315,19.2435068 17.4874247,19.2435068 Z M30.2496164,18.6728219 C28.7531781,18.6728219 27.3586575,19.1155616 26.1871507,19.8744658 C25.6200274,20.241863 25.1052329,20.6832329 24.6570137,21.1856986 C23.4759178,22.5106301 22.7561918,24.2555616 22.7561918,26.1662466 C22.7561918,30.2980274 26.1178356,33.6593973 30.2496164,33.6593973 C30.7605753,33.6593973 31.2597534,33.6076164 31.7422192,33.5098082 C32.414,33.3733699 33.0526301,33.1451507 33.6463288,32.841863 C36.0748219,31.6010411 37.7427671,29.0755616 37.7427671,26.1662466 C37.7427671,22.0344658 34.3813973,18.6728219 30.2496164,18.6728219 Z M30.2495342,20.6771233 C30.7788493,20.6771233 31.2084384,21.1064384 31.2084384,21.6360274 L31.2084384,21.6360274 L31.2084384,25.2072603 L34.7796712,25.2072603 C35.3092603,25.2072603 35.7385753,25.6365753 35.7385753,26.1661644 C35.7385753,26.6957534 35.3092603,27.1250685 34.7796712,27.1250685 L34.7796712,27.1250685 L31.2084384,27.1250685 L31.2084384,30.6963014 C31.2084384,31.2258904 30.7788493,31.6552055 30.2495342,31.6552055 C29.7199452,31.6552055 29.2906301,31.2258904 29.2906301,30.6963014 L29.2906301,30.6963014 L29.2906301,27.1250685 L25.7191233,27.1250685 C25.1895342,27.1250685 24.7602192,26.6957534 24.7602192,26.1661644 C24.7602192,25.6365753 25.1895342,25.2072603 25.7191233,25.2072603 L25.7191233,25.2072603 L29.2906301,25.2072603 L29.2906301,21.6360274 C29.2906301,21.1064384 29.7199452,20.6771233 30.2495342,20.6771233 Z M17.4874247,2.19172603 C13.3148219,2.19172603 9.92030137,5.58652055 9.92030137,9.75884932 C9.92030137,13.9314521 13.3148219,17.3256986 17.4874247,17.3256986 C21.6597534,17.3256986 25.054274,13.9314521 25.054274,9.75884932 C25.054274,5.58652055 21.6597534,2.19172603 17.4874247,2.19172603 Z" id="Combined-Shape" fill="#394157"></path>
                </g>
            </g>
        </g>
    </g>
</svg>