<?xml version="1.0" encoding="UTF-8"?>
<svg width="36px" height="40px" viewBox="0 0 36 40" version="1.1" xmlns="http://www.w3.org/2000/svg" xmlns:xlink="http://www.w3.org/1999/xlink">
    <!-- Generator: Sketch 63.1 (92452) - https://sketch.com -->
    <title>Picto présentation</title>
    <desc>Created with Sketch.</desc>
    <defs>
        <linearGradient x1="14.6447474%" y1="14.6446664%" x2="85.3554256%" y2="85.3553446%" id="linearGradient-1">
            <stop stop-color="#A7ACB6" offset="0%"></stop>
            <stop stop-color="#F7FBFD" offset="100%"></stop>
        </linearGradient>
    </defs>
    <g id="Page-1" stroke="none" stroke-width="1" fill="none" fill-rule="evenodd">
        <g id="06_INFO-SESSION-NOM" transform="translate(-465.000000, -461.000000)">
            <g id="Présentation" transform="translate(465.000000, 461.000000)">
                <g id="Picto-présentation">
                    <path d="M9.5890411,6.92779167e-14 C4.29315068,6.92779167e-14 1.0658141e-14,4.29315068 1.0658141e-14,9.5890411 L1.0658141e-14,9.5890411 C1.0658141e-14,14.8849315 4.29315068,19.1780822 9.5890411,19.1780822 L9.5890411,19.1780822 C14.8849315,19.1780822 19.1780822,14.8849315 19.1780822,9.5890411 L19.1780822,9.5890411 C19.1780822,4.29315068 14.8849315,6.92779167e-14 9.5890411,6.92779167e-14 Z" id="Fill-1" fill="url(#linearGradient-1)"></path>
                    <path d="M22.4922466,37.6712329 C19.8440274,37.6712329 17.4067671,36.7567123 15.4744384,35.229863 L32.2169041,20.4950685 C33.2437534,22.2005479 33.8355342,24.1961644 33.8355342,26.3279452 C33.8355342,32.5827397 28.7470411,37.6712329 22.4922466,37.6712329 L22.4922466,37.6712329 Z M4.30923288,29.1336986 C3.11854795,27.9430137 2.46265753,26.359726 2.46265753,24.6758904 C2.46265753,22.9917808 3.11854795,21.4087671 4.30923288,20.2178082 L12.0999178,12.4271233 L15.0390959,15.3657534 C11.5360822,17.7553425 9.23115068,21.7769863 9.23115068,26.3279452 C9.23115068,27.9156164 9.51224658,29.4389041 10.0262192,30.8512329 C7.96183562,31.2736986 5.82265753,30.6471233 4.30923288,29.1336986 L4.30923288,29.1336986 Z M20.7338904,3.79315068 C23.1925205,1.33506849 27.1919726,1.33506849 29.6500548,3.79315068 C32.108137,6.25123288 32.108137,10.2509589 29.6500548,12.7090411 L28.0615616,14.2972603 C26.3670411,13.509589 24.4810137,13.0665753 22.4922466,13.0665753 C20.4393699,13.0665753 18.4938904,13.5358904 16.7571781,14.3720548 L13.4560822,11.0709589 L20.7338904,3.79315068 Z M31.0853973,18.9358904 L14.0670411,33.9136986 C12.2544384,31.9024658 11.1489589,29.2421918 11.1489589,26.3279452 C11.1489589,20.0731507 16.2374521,14.9843836 22.4922466,14.9843836 C25.9245753,14.9843836 29.0037534,16.5191781 31.0853973,18.9358904 L31.0853973,18.9358904 Z M33.247863,18.5843836 C33.2149863,18.5249315 33.1760822,18.4676712 33.1292329,18.4145205 C33.1270411,18.4120548 33.1243014,18.410137 33.1218356,18.4076712 C32.2051233,17.180274 31.0799178,16.1183562 29.8010137,15.270137 L31.0059452,14.0652055 C34.2119726,10.8591781 34.2119726,5.64273973 31.0059452,2.4369863 C27.7999178,-0.768767123 22.5834795,-0.768493151 19.378,2.4369863 L2.95334247,18.8616438 C1.40019178,20.4147945 0.544849315,22.4794521 0.544849315,24.6758904 C0.544849315,26.8720548 1.40019178,28.9369863 2.95334247,30.489863 C4.52430137,32.0610959 6.61169863,32.9021918 8.75608219,32.9021918 C9.44621918,32.9021918 10.1415616,32.810137 10.828137,32.6320548 C11.4760822,33.8263014 12.3040274,34.9082192 13.2727945,35.8465753 C13.2796438,35.8550685 13.2845753,35.8649315 13.2919726,35.8734247 C13.3412877,35.9293151 13.3955342,35.9772603 13.4536164,36.0189041 C15.8240274,38.2312329 19.0018356,39.5890411 22.4922466,39.5890411 C29.8043014,39.5890411 35.7533425,33.64 35.7533425,26.3279452 C35.7533425,23.4389041 34.8221096,20.7649315 33.247863,18.5843836 L33.247863,18.5843836 Z" id="Fill-4" fill="#A7ACB6"></path>
                </g>
            </g>
        </g>
    </g>
</svg>