<?xml version="1.0" encoding="UTF-8"?>
<svg width="37px" height="40px" viewBox="0 0 37 40" version="1.1" xmlns="http://www.w3.org/2000/svg" xmlns:xlink="http://www.w3.org/1999/xlink">
    <!-- Generator: Sketch 63.1 (92452) - https://sketch.com -->
    <title>Picto données évolutives</title>
    <desc>Created with Sketch.</desc>
    <defs>
        <linearGradient x1="14.6444099%" y1="14.6446556%" x2="85.355088%" y2="85.3553337%" id="linearGradient-1">
            <stop stop-color="#0095D4" offset="0%"></stop>
            <stop stop-color="#99EDE8" offset="100%"></stop>
        </linearGradient>
    </defs>
    <g id="Page-1" stroke="none" stroke-width="1" fill="none" fill-rule="evenodd">
        <g id="24_CHOIX-DONNÉES" transform="translate(-874.000000, -256.000000)">
            <g id="Données-évolutives" transform="translate(874.000000, 256.000000)">
                <g id="Picto-données-évolutives" transform="translate(-0.000000, 0.000000)">
                    <path d="M3.95481245,22.1026072 C3.95481245,27.3049622 8.17213793,31.5222876 13.3744929,31.5222876 L13.3744929,31.5222876 C18.5768478,31.5222876 22.7941733,27.3049622 22.7941733,22.1026072 L22.7941733,22.1026072 C22.7941733,16.9002523 18.5768478,12.6829268 13.3744929,12.6829268 L13.3744929,12.6829268 C8.17213793,12.6829268 3.95481245,16.9002523 3.95481245,22.1026072" id="Fill-1" fill="url(#linearGradient-1)"></path>
                    <path d="M35.2503697,37.1869996 C35.76624,37.1869996 36.1858859,37.6066454 36.1858859,38.1225158 C36.1858859,38.6015382 35.8240484,38.9975916 35.3593226,39.0517267 L35.2503697,39.058032 L1.07008233,39.058032 C0.554211966,39.058032 0.134566126,38.6383861 0.134566126,38.1225158 C0.134566126,37.6434933 0.49640361,37.2474399 0.96112937,37.1933048 L1.07008233,37.1869996 L35.2503697,37.1869996 Z M6.87846188,19.7278616 C7.35748436,19.7278616 7.75353774,20.089699 7.8076728,20.5544248 L7.81397809,20.6633778 L7.81397809,35.0430637 C7.81397809,35.5220862 7.4521406,35.9181396 6.98741484,35.9722746 L6.87846188,35.9785799 L1.81437902,35.9785799 C1.33535654,35.9785799 0.939303165,35.6167424 0.885168104,35.1520167 L0.878862818,35.0430637 L0.878862818,20.6633778 C0.878862818,20.1843553 1.2407003,19.7883019 1.70542606,19.7341668 L1.81437902,19.7278616 L6.87846188,19.7278616 Z M15.675789,10.7249882 C16.1545633,10.7249882 16.5508294,11.0868257 16.6049961,11.5515514 L16.6113052,11.6605044 L16.6113052,35.0430637 C16.6113052,35.5220862 16.2492372,35.9181396 15.7846926,35.9722746 L15.675789,35.9785799 L10.6114388,35.9785799 C10.1326645,35.9785799 9.73639843,35.6167424 9.68223171,35.1520167 L9.67592262,35.0430637 L9.67592262,11.6605044 C9.67592262,11.1814819 10.0379906,10.7854285 10.5025353,10.7312935 L10.6114388,10.7249882 L15.675789,10.7249882 Z M24.4728488,15.2264249 C24.9516231,15.2264249 25.3478892,15.5882624 25.4020559,16.0529881 L25.408365,16.1619411 L25.408365,35.0430637 C25.408365,35.5220862 25.046297,35.9181396 24.5817524,35.9722746 L24.4728488,35.9785799 L19.4084986,35.9785799 C18.9297244,35.9785799 18.5334582,35.6167424 18.4792915,35.1520167 L18.4729824,35.0430637 L18.4729824,16.1619411 C18.4729824,15.6829186 18.8350504,15.2868652 19.2995951,15.2327302 L19.4084986,15.2264249 L24.4728488,15.2264249 Z M33.2699086,8.19267947 C33.7486829,8.19267947 34.144949,8.55451696 34.1991157,9.01924271 L34.2054248,9.12819567 L34.2054248,35.0430637 C34.2054248,35.5220862 33.8433568,35.9181396 33.3788122,35.9722746 L33.2699086,35.9785799 L28.2055584,35.9785799 C27.7267842,35.9785799 27.330518,35.6167424 27.2763513,35.1520167 L27.2700422,35.0430637 L27.2700422,9.12819567 C27.2700422,8.64917319 27.6321102,8.25311982 28.0966549,8.19898476 L28.2055584,8.19267947 L33.2699086,8.19267947 Z M5.94294568,21.598894 L2.74989523,21.598894 L2.74989523,34.1075475 L5.94294568,34.1075475 L5.94294568,21.598894 Z M14.7402728,12.5957533 L11.5472223,12.5957533 L11.5472223,34.1075475 L14.7402728,34.1075475 L14.7402728,12.5957533 Z M23.5373326,17.09719 L20.3442821,17.09719 L20.3442821,34.1075475 L23.5373326,34.1075475 L23.5373326,17.09719 Z M32.3343924,10.0634446 L29.1413419,10.0634446 L29.1413419,34.1075475 L32.3343924,34.1075475 L32.3343924,10.0634446 Z M33.663066,0.0336417157 L33.7499019,0.0382858855 L33.7499019,0.0382858855 L33.8349336,0.0507482978 L33.8774328,0.0609053308 L33.9427519,0.0788137839 L33.9427519,0.0788137839 L34.0262467,0.109184649 L34.0262467,0.109184649 L34.1043289,0.146872588 L34.1043289,0.146872588 L34.199785,0.204440246 L34.199785,0.204440246 C34.2404131,0.232773022 34.2789029,0.264580573 34.3147198,0.299328318 C34.3476856,0.331403159 34.3742365,0.361220882 34.3976194,0.390999006 L34.4518398,0.470126848 L34.4518398,0.470126848 C34.4774996,0.512358722 34.49621,0.545770015 34.5122474,0.58051776 L34.5482313,0.668523106 L34.5482313,0.668523106 L34.5822775,0.804774359 L34.5916326,0.873234098 L34.5916326,0.873234098 L34.5985822,0.96915792 L34.5985822,4.04834268 C34.5985822,4.56421305 34.1789363,4.98385889 33.663066,4.98385889 C33.1840435,4.98385889 32.7879901,4.6220214 32.733855,4.15729564 L32.7275498,4.04834268 L32.7275498,2.75599387 L22.4227051,9.89825916 C22.126191,10.1035381 21.7443552,10.118744 21.4360144,9.94744351 L21.3241418,9.87447032 L13.1875564,3.69819233 L5.03600281,10.3176377 C4.86948093,10.452352 4.66045988,10.5266588 4.4466276,10.5266588 C4.16329984,10.5266588 3.8986824,10.400765 3.71986516,10.1810523 C3.41984203,9.81145148 3.44891815,9.27992011 3.77009287,8.9444818 L3.85645052,8.86491469 L12.5784017,1.78252244 C12.8805467,1.53690934 13.295491,1.50650239 13.626626,1.69325014 L13.7336306,1.76354482 L21.9145862,7.97376868 L30.6710178,1.90467412 L30.1220035,1.90467412 C29.6061331,1.90467412 29.1864873,1.48502828 29.1864873,0.96915792 C29.1864873,0.490135439 29.5483248,0.0940820629 30.0130505,0.0399470014 L30.1220035,0.0336417157 L33.663066,0.0336417157 Z" id="Shape" fill="#394157"></path>
                </g>
            </g>
        </g>
    </g>
</svg>