<?xml version="1.0" encoding="UTF-8"?>
<svg width="40px" height="39px" viewBox="0 0 40 39" version="1.1" xmlns="http://www.w3.org/2000/svg" xmlns:xlink="http://www.w3.org/1999/xlink">
    <!-- Generator: Sketch 63.1 (92452) - https://sketch.com -->
    <title>Picto tableaux</title>
    <desc>Created with Sketch.</desc>
    <defs>
        <linearGradient x1="14.6446506%" y1="14.6442253%" x2="85.3553287%" y2="85.3549034%" id="linearGradient-1">
            <stop stop-color="#0095D4" offset="0%"></stop>
            <stop stop-color="#99EDE8" offset="100%"></stop>
        </linearGradient>
    </defs>
    <g id="Page-1" stroke="none" stroke-width="1" fill="none" fill-rule="evenodd">
        <g id="57_DASHBOARD-CONSOLIDÉ-TABLEAUX" transform="translate(-465.000000, -323.000000)">
            <g id="Consolidation" transform="translate(465.000000, 323.000000)">
                <g id="Picto-tableaux">
                    <path d="M4.73917808,13.6682192 C4.73917808,18.9638356 9.03232877,23.2572603 14.3282192,23.2572603 L14.3282192,23.2572603 C19.6241096,23.2572603 23.9172603,18.9638356 23.9172603,13.6682192 L23.9172603,13.6682192 C23.9172603,8.37232877 19.6241096,4.07917808 14.3282192,4.07917808 L14.3282192,4.07917808 C9.03232877,4.07917808 4.73917808,8.37232877 4.73917808,13.6682192" id="Fill-1" fill="url(#linearGradient-1)"></path>
                    <path d="M27.6621918,36.5241096 L37.8558904,36.5241096 L37.8558904,29.3109589 L27.6621918,29.3109589 L27.6621918,36.5241096 Z M1.91780822,36.5241096 L9.64986301,36.5241096 L9.64986301,11.0487671 L1.91780822,11.0487671 L1.91780822,36.5241096 Z M1.91780822,9.1309589 L37.8556164,9.1309589 L37.8556164,1.91780822 L1.91780822,1.91780822 L1.91780822,9.1309589 Z M27.6621918,27.3931507 L37.8558904,27.3931507 L37.8558904,20.18 L27.6621918,20.18 L27.6621918,27.3931507 Z M11.5676712,27.3931507 L25.7443836,27.3931507 L25.7443836,20.18 L11.5676712,20.18 L11.5676712,27.3931507 Z M11.5676712,36.5241096 L25.7443836,36.5241096 L25.7443836,29.3109589 L11.5676712,29.3109589 L11.5676712,36.5241096 Z M27.6619178,18.2621918 L37.8556164,18.2621918 L37.8556164,11.0487671 L27.6619178,11.0487671 L27.6619178,18.2621918 Z M11.5676712,18.2621918 L25.7443836,18.2621918 L25.7443836,11.0487671 L11.5676712,11.0487671 L11.5676712,18.2621918 Z M38.8145205,-1.31450406e-13 L0.95890411,-1.31450406e-13 C0.429315068,-1.31450406e-13 1.91846539e-13,0.429315068 1.91846539e-13,0.95890411 L1.91846539e-13,10.089863 L1.91846539e-13,37.4830137 C1.91846539e-13,38.0126027 0.429315068,38.4419178 0.95890411,38.4419178 L38.8145205,38.4419178 C39.3441096,38.4419178 39.7734247,38.0126027 39.7734247,37.4830137 L39.7734247,28.3520548 L39.7734247,19.2210959 L39.7734247,18.8553425 L39.7734247,10.089863 L39.7734247,0.95890411 C39.7734247,0.429315068 39.3441096,-1.31450406e-13 38.8145205,-1.31450406e-13 L38.8145205,-1.31450406e-13 Z" id="Fill-4" fill="#394157"></path>
                </g>
            </g>
        </g>
    </g>
</svg>