<svg xmlns="http://www.w3.org/2000/svg" xmlns:xlink="http://www.w3.org/1999/xlink" viewBox="0 0 518.51 95.88"><defs><style>.cls-1{fill:url(#Dégradé_sans_nom_18);}.cls-2{fill:#eff7fa;}.cls-3{fill:#394157;}</style><linearGradient id="Dégradé_sans_nom_18" x1="2.01" y1="47.95" x2="97.89" y2="47.95" gradientUnits="userSpaceOnUse"><stop offset="0" stop-color="#0096d4"/><stop offset="1" stop-color="#99eee8"/></linearGradient></defs><g id="Calque_2" data-name="Calque 2"><circle class="cls-1" cx="49.95" cy="47.95" r="47.94"/><circle class="cls-2" cx="35.02" cy="39.28" r="17.15"/><path class="cls-3" d="M90.35,14.23a9.55,9.55,0,0,0-7.06,16L67.82,52.56a9.48,9.48,0,0,0-8.95,1.11L44,42.59a9.37,9.37,0,0,0,.62-3.36,9.56,9.56,0,1,0-16.86,6.15L13.22,66.23a9.36,9.36,0,0,0-3.67-.74,9.56,9.56,0,1,0,7.3,3.4L31.34,48.05a9.57,9.57,0,0,0,10.07-1.73L55.9,57.08a9.55,9.55,0,1,0,15.62-1.95L87,32.73a9.45,9.45,0,0,0,3.33.6,9.55,9.55,0,1,0,0-19.1ZM9.55,80.09a5,5,0,1,1,5-5A5,5,0,0,1,9.55,80.09ZM35,44.27a5,5,0,1,1,5.05-5A5,5,0,0,1,35,44.27ZM64.38,66.51a5,5,0,1,1,5.05-5.05A5.06,5.06,0,0,1,64.38,66.51Zm26-37.68a5,5,0,1,1,5.05-5A5.06,5.06,0,0,1,90.35,28.83Z"/><path class="cls-3" d="M160.32,36H146.76V71.88h-13V36H120.18V24.69h40.14Z"/><path class="cls-3" d="M168.36,71.88V24.69H190a14.35,14.35,0,0,1,6.38,1.43,16.43,16.43,0,0,1,5,3.72,17.38,17.38,0,0,1,3.29,5.25,15.72,15.72,0,0,1,1.2,5.95,16.76,16.76,0,0,1-1.8,7.68,15.57,15.57,0,0,1-5,5.81l10,17.35H194.48l-8.31-14.49h-4.85V71.88Zm13-25.79h8.17a2.87,2.87,0,0,0,2.23-1.33,5.9,5.9,0,0,0,1-3.72,5.36,5.36,0,0,0-1.2-3.76A3.34,3.34,0,0,0,189.16,36h-7.84Z"/><path class="cls-3" d="M228.77,24.69H240.6L257,71.88H243.79l-2.86-9.24H228.37l-2.79,9.24H212.35ZM238.87,54l-4.19-14.62L230.3,54Z"/><path class="cls-3" d="M259.67,47.89a23.56,23.56,0,0,1,6.38-16,24.12,24.12,0,0,1,7.57-5.38,26.27,26.27,0,0,1,22,.76,18.42,18.42,0,0,1,7.47,7.48l-9.9,7a8.4,8.4,0,0,0-1.76-2.86A8.88,8.88,0,0,0,289,37.12a10.5,10.5,0,0,0-2.75-.93,15,15,0,0,0-2.76-.27,10,10,0,0,0-4.82,1.1,9.81,9.81,0,0,0-3.32,2.86,12.17,12.17,0,0,0-1.93,4,16.22,16.22,0,0,0-.63,4.42,15.13,15.13,0,0,0,.73,4.72,12.14,12.14,0,0,0,2.13,4,10.47,10.47,0,0,0,3.42,2.76,10,10,0,0,0,4.55,1,12.87,12.87,0,0,0,2.72-.3,10.13,10.13,0,0,0,2.7-1,9.07,9.07,0,0,0,2.32-1.79A7.94,7.94,0,0,0,293,55l10.57,6.31A13.42,13.42,0,0,1,300.37,66a20.69,20.69,0,0,1-4.91,3.46,25.87,25.87,0,0,1-5.92,2.12,27,27,0,0,1-6.15.73,21.78,21.78,0,0,1-9.6-2.09,24.42,24.42,0,0,1-7.51-5.55,25.28,25.28,0,0,1-4.88-7.84A23.92,23.92,0,0,1,259.67,47.89Z"/><path class="cls-3" d="M340.94,33.53a14.25,14.25,0,0,0-5.31-3.65,19.44,19.44,0,0,0-7.58-1.4c-4.16,0-7.2.79-9.1,2.36a7.86,7.86,0,0,0-2.86,6.41,7.08,7.08,0,0,0,.76,3.49,6.66,6.66,0,0,0,2.36,2.36,17,17,0,0,0,4.09,1.73c1.66.49,3.62,1,5.88,1.46A64,64,0,0,1,336,48.08a19.6,19.6,0,0,1,5.15,2.5,10.21,10.21,0,0,1,3.26,3.62,11.28,11.28,0,0,1,1.13,5.31,11.93,11.93,0,0,1-1.26,5.65,11.33,11.33,0,0,1-3.52,4,15.87,15.87,0,0,1-5.39,2.36,28.71,28.71,0,0,1-6.84.76,28.13,28.13,0,0,1-18.94-6.84l2.32-3.79a18.12,18.12,0,0,0,3,2.53,22.36,22.36,0,0,0,3.92,2.09,25.37,25.37,0,0,0,4.62,1.4,26.1,26.1,0,0,0,5.18.49q5.64,0,8.81-2A6.81,6.81,0,0,0,340.61,60a7.06,7.06,0,0,0-.9-3.69A7.62,7.62,0,0,0,337,53.7a19,19,0,0,0-4.45-1.89q-2.65-.81-6.18-1.6-3.72-.85-6.51-1.79a17.32,17.32,0,0,1-4.72-2.33,9,9,0,0,1-2.89-3.36,10.85,10.85,0,0,1-1-4.81,13.29,13.29,0,0,1,1.22-5.82A11.53,11.53,0,0,1,316,27.85a16.38,16.38,0,0,1,5.32-2.59,24,24,0,0,1,6.78-.9,23.15,23.15,0,0,1,8.4,1.43,22.42,22.42,0,0,1,6.68,4Z"/><path class="cls-3" d="M370.65,70.21c-.27.14-.65.31-1.16.54s-1.1.44-1.76.66a22.11,22.11,0,0,1-2.26.6,13.48,13.48,0,0,1-2.66.26,9.8,9.8,0,0,1-2.79-.39,6.67,6.67,0,0,1-2.33-1.23,6.09,6.09,0,0,1-1.59-2.1,6.71,6.71,0,0,1-.6-2.92V40.84h-4.79V37.25h4.79V25.56H360V37.25h8v3.59h-8V64.37a3.56,3.56,0,0,0,1.36,2.82,4.65,4.65,0,0,0,2.82.9,8.47,8.47,0,0,0,3.39-.63,13.52,13.52,0,0,0,1.86-.9Z"/><path class="cls-3" d="M391.85,72.54a16.43,16.43,0,0,1-6.91-1.43,17,17,0,0,1-5.42-3.89A17.56,17.56,0,0,1,376,61.51a19.06,19.06,0,0,1,0-13.76A18,18,0,0,1,379.59,42,17.36,17.36,0,0,1,385,38.12a15.92,15.92,0,0,1,6.85-1.47,16.12,16.12,0,0,1,6.88,1.47A17.3,17.3,0,0,1,404.18,42a18.19,18.19,0,0,1,3.59,5.71,18.61,18.61,0,0,1,1.29,6.91,18.8,18.8,0,0,1-1.26,6.85,17.59,17.59,0,0,1-3.56,5.71,16.66,16.66,0,0,1-12.39,5.32ZM379.29,54.73a14.39,14.39,0,0,0,1,5.42A14.55,14.55,0,0,0,383,64.53a12.23,12.23,0,0,0,4,3,11.4,11.4,0,0,0,4.88,1.06,11.13,11.13,0,0,0,4.88-1.09,13.11,13.11,0,0,0,4-3,14.34,14.34,0,0,0,2.73-4.42,15.27,15.27,0,0,0,0-10.87,14.14,14.14,0,0,0-2.73-4.45,13,13,0,0,0-4-3,11.14,11.14,0,0,0-4.88-1.1,11,11,0,0,0-4.85,1.1,12.85,12.85,0,0,0-4,3,14.54,14.54,0,0,0-2.72,4.49A14.82,14.82,0,0,0,379.29,54.73Z"/><path class="cls-3" d="M415.91,54.46a19,19,0,0,1,1.26-6.91,17.39,17.39,0,0,1,3.55-5.68,16.57,16.57,0,0,1,5.49-3.82,17.35,17.35,0,0,1,7-1.4,16.16,16.16,0,0,1,8.57,2.23,14.34,14.34,0,0,1,5.52,6L443,46.29a10.44,10.44,0,0,0-4.08-4.15,11.52,11.52,0,0,0-5.82-1.5,11.76,11.76,0,0,0-4.95,1.06,12.64,12.64,0,0,0-4,2.9A13.25,13.25,0,0,0,421.45,49a15.37,15.37,0,0,0-1,5.51,15.15,15.15,0,0,0,1,5.52,14.09,14.09,0,0,0,2.72,4.49,13.11,13.11,0,0,0,4,3,11.21,11.21,0,0,0,4.89,1.09,12,12,0,0,0,3.29-.46,12.52,12.52,0,0,0,3-1.3,10.61,10.61,0,0,0,2.39-1.89,6.14,6.14,0,0,0,1.4-2.26L447.67,64a11.38,11.38,0,0,1-2.13,3.42,14.54,14.54,0,0,1-3.28,2.72,16.07,16.07,0,0,1-4.19,1.8,17.84,17.84,0,0,1-4.75.63,16.85,16.85,0,0,1-12.5-5.35,18.32,18.32,0,0,1-3.62-5.75A18.75,18.75,0,0,1,415.91,54.46Z"/><path class="cls-3" d="M481.16,71.88,468.41,54.13,461,61V71.88h-4.52V23.36H461v33l19.47-19h5.12L471.4,51.47l14.68,20.41Z"/><path class="cls-3" d="M504.82,72.54a24,24,0,0,1-7.91-1.33,18.92,18.92,0,0,1-6.64-3.85l2.06-3.06a22.69,22.69,0,0,0,5.95,3.59,17.36,17.36,0,0,0,6.48,1.19,11.67,11.67,0,0,0,6.67-1.69,5.48,5.48,0,0,0,2.5-4.82,4.19,4.19,0,0,0-.67-2.42,5.63,5.63,0,0,0-2-1.7,14.84,14.84,0,0,0-3.25-1.29q-2-.57-4.56-1.17-3-.72-5.18-1.46a16,16,0,0,1-3.62-1.66,6,6,0,0,1-2.13-2.29,7.56,7.56,0,0,1-.7-3.43,9.93,9.93,0,0,1,1-4.58,9.38,9.38,0,0,1,2.79-3.29,12.53,12.53,0,0,1,4.13-2,18.49,18.49,0,0,1,5-.67,19.57,19.57,0,0,1,7.25,1.3,14.25,14.25,0,0,1,5.25,3.42L515.12,44a12,12,0,0,0-4.68-3,16.92,16.92,0,0,0-5.75-1,14.42,14.42,0,0,0-3.32.37,7.89,7.89,0,0,0-2.69,1.16,5.66,5.66,0,0,0-1.83,2,5.9,5.9,0,0,0-.67,2.89,4.77,4.77,0,0,0,.47,2.26,3.92,3.92,0,0,0,1.53,1.49,11.82,11.82,0,0,0,2.69,1.13c1.08.34,2.4.68,3.95,1q3.33.81,5.85,1.6a18.32,18.32,0,0,1,4.22,1.86,7.36,7.36,0,0,1,2.56,2.59,7.52,7.52,0,0,1,.86,3.72,9,9,0,0,1-3.65,7.58Q511,72.54,504.82,72.54Z"/></g></svg>