<?xml version="1.0" encoding="UTF-8"?>
<svg width="44px" height="60px" viewBox="0 0 44 60" version="1.1" xmlns="http://www.w3.org/2000/svg" xmlns:xlink="http://www.w3.org/1999/xlink">
    <!-- Generator: Sketch 63.1 (92452) - https://sketch.com -->
    <title>Picto récapitulatif session</title>
    <desc>Created with Sketch.</desc>
    <g id="Page-1" stroke="none" stroke-width="1" fill="none" fill-rule="evenodd">
        <g id="06_INFO-SESSION-NOM" transform="translate(-44.000000, -752.000000)" fill="#EFF7FA">
            <g id="Progression">
                <g id="Récapitulatif-de-la-session" transform="translate(44.000041, 752.000000)">
                    <path d="M33.1446164,0 C33.939,0 34.5829726,0.643972603 34.5829726,1.43835616 L34.5829726,1.43835616 L34.5829726,4.31506849 L42.258863,4.31506849 C43.0532466,4.31506849 43.6972192,4.9590411 43.6972192,5.75342466 L43.6972192,5.75342466 L43.6972192,58.5616438 C43.6972192,59.3560274 43.0532466,60 42.258863,60 L42.258863,60 L1.43831507,60 C0.643931507,60 -4.10958905e-05,59.3560274 -4.10958905e-05,58.5616438 L-4.10958905e-05,58.5616438 L-4.10958905e-05,5.75342466 C-4.10958905e-05,4.9590411 0.643931507,4.31506849 1.43831507,4.31506849 L1.43831507,4.31506849 L9.11379452,4.31506849 L9.11379452,1.43835616 C9.11379452,0.643972603 9.75776712,0 10.5521507,0 L10.5521507,0 Z M9.11379452,7.19178082 L2.87667123,7.19178082 L2.87667123,57.1232877 L40.8205068,57.1232877 L40.8205068,7.19178082 L34.5829726,7.19178082 L34.5829726,10.9376712 C34.5829726,11.7320548 33.939,12.3760274 33.1446164,12.3760274 L33.1446164,12.3760274 L10.5521507,12.3760274 C9.75776712,12.3760274 9.11379452,11.7320548 9.11379452,10.9376712 L9.11379452,10.9376712 L9.11379452,7.19178082 Z M30.4377945,21.2747671 L35.0873836,25.9243562 C35.3573836,26.1943562 35.5090274,26.5601096 35.5090274,26.9414795 C35.5090274,27.3232603 35.3573836,27.6890137 35.0873836,27.9590137 L19.0599863,43.986411 C18.8240959,44.2223014 18.5145796,44.3675753 18.185123,44.400208 L18.042863,44.4072329 C17.6614932,44.4072329 17.2957397,44.256 17.0257397,43.986 L12.3765616,39.336411 C12.3453288,39.3051781 12.3153288,39.2727123 12.2873836,39.2390137 L8.60971233,35.5617534 C8.33971233,35.2917534 8.18847945,34.926 8.18847945,34.5442192 C8.18847945,34.1628493 8.33971233,33.7970959 8.60971233,33.5275068 L13.2588904,28.8779178 C13.7988904,28.3379178 14.7535479,28.3383288 15.293137,28.8775068 L18.0473836,31.6317534 L28.4039589,21.2747671 C28.9657397,20.7133973 29.8760137,20.7133973 30.4377945,21.2747671 Z M29.4206712,24.326137 L19.0645068,34.6831233 C18.5245068,35.2223014 17.5698493,35.2223014 17.0298493,34.6831233 L14.2760137,31.9288767 L11.6606712,34.5442192 L14.4149178,37.2980548 C14.4457397,37.3292877 14.4753288,37.3613425 14.503274,37.3950411 L18.042863,40.9350411 L32.0364247,26.9414795 L29.4206712,24.326137 Z M31.7062603,2.87671233 L11.9905068,2.87671233 L11.9905068,9.49931507 L31.7062603,9.49931507 L31.7062603,2.87671233 Z" id="Picto-récapitulatif-session"></path>
                </g>
            </g>
        </g>
    </g>
</svg>