<?xml version="1.0" encoding="UTF-8"?>
<svg width="43px" height="42px" viewBox="0 0 43 42" version="1.1" xmlns="http://www.w3.org/2000/svg" xmlns:xlink="http://www.w3.org/1999/xlink">
    <title>Untitled 2</title>
    <g id="Page-1" stroke="none" stroke-width="1" fill="none" fill-rule="evenodd">
        <g id="User_admin_inactif" fill="#A7ACB6" fill-rule="nonzero">
            <path d="M24.6057602,0.507462162 C25.033298,0.568191892 25.3769237,0.878083787 25.4661541,1.28417838 L26.3371849,5.2335973 C27.4336553,5.55001621 28.4979201,5.97512432 29.5140241,6.50267838 L33.0392165,4.29994865 C33.4017519,4.0732054 33.8721321,4.08767838 34.219599,4.33513784 C35.9211816,5.54888108 37.4242119,6.99390811 38.6870291,8.63077299 C38.9443791,8.9642189 38.9585614,9.4157189 38.7227804,9.76363787 L36.4279041,13.1525838 C36.9745142,14.1270973 37.4150524,15.1467324 37.7424276,16.1961649 L41.8520497,17.0319081 C42.275451,17.1178946 42.5983942,17.4479351 42.6613282,17.8591379 C42.81497,18.8657189 42.8932682,19.8825162 42.8932682,20.8814351 C42.8932682,21.8953946 42.8137881,22.9224081 42.6571917,23.9340973 C42.5936668,24.3444487 42.271019,24.6736379 41.8485041,24.7596243 L37.7323818,25.5967865 C37.4038248,26.6428135 36.9638775,27.6576243 36.419631,28.6258946 L38.71303,32.0122865 C38.948811,32.3602054 38.9343332,32.8125568 38.6766878,33.1460027 C37.4118024,34.7828676 35.9046356,36.228746 34.1974391,37.4430568 C33.8499723,37.6899487 33.3795921,37.7035702 33.0182384,37.4773946 L29.489205,35.2729621 C28.4825559,35.7937054 27.4286324,36.2137054 26.3436851,36.5272865 L25.4723589,40.4784081 C25.382833,40.8845027 25.0395027,41.1943946 24.611965,41.2551243 C23.5607007,41.4043946 22.4958449,41.4801649 21.4463534,41.4801649 C20.3974528,41.4801649 19.3323016,41.4043946 18.2810373,41.2551243 C17.8532041,41.1943946 17.5101693,40.8845027 17.4206433,40.4784081 L16.5493172,36.5272865 C15.4643699,36.2137054 14.4107419,35.7937054 13.4037973,35.2729621 L9.87505932,37.4773946 C9.51341023,37.703854 9.04303002,37.6902324 8.69585866,37.4430568 C6.98807123,36.2284621 5.48090449,34.7825838 4.21631448,33.1460027 C3.95866903,32.8125568 3.94419125,32.3602054 4.17967682,32.0122865 L6.47366674,28.6258946 C5.92882937,27.6573405 5.48917751,26.6428135 5.16062048,25.5967865 L1.04479363,24.7596243 C0.62198328,24.6736379 0.299631013,24.3444487 0.236106046,23.9340973 C0.0792141547,22.9224081 2.95464955e-05,21.8953946 2.95464955e-05,20.8814351 C2.95464955e-05,19.8799621 0.0780322953,18.8631649 0.231969537,17.8591379 C0.294903573,17.4482189 0.617551306,17.1181783 1.04065712,17.0321919 L5.15057467,16.1961649 C5.4782453,15.1461649 5.91848809,14.1268135 6.46509826,13.1525838 L4.16992648,9.76363787 C3.93444091,9.4157189 3.94862323,8.9642189 4.2059732,8.63077299 C5.46908589,6.99362432 6.97211612,5.54831351 8.67310787,4.33513784 C9.02027923,4.0873946 9.49125036,4.0732054 9.85349038,4.29994865 L13.3792737,6.50267838 C14.3950822,5.97512432 15.459347,5.55001621 16.5561129,5.2335973 L17.4268482,1.2838946 C17.516374,0.878083787 17.8597043,0.568191892 18.2872421,0.507462162 C20.3841569,0.209205406 22.5088454,0.209205406 24.6057602,0.507462162 Z M19.2983232,2.38440811 L18.4494524,6.23421892 C18.3681995,6.60257027 18.076871,6.89543513 17.6969031,6.98993513 C16.3599242,7.32196213 15.0714015,7.83646213 13.8667909,8.51924598 C13.5287789,8.71108378 13.1065595,8.70228646 12.7771161,8.49625945 L9.3405632,6.34915135 C8.21897824,7.21213787 7.20110147,8.19090811 6.302888,9.27042165 L8.54044413,12.5739487 C8.75436074,12.8898 8.76381564,13.2944757 8.56496768,13.6194081 C7.85644276,14.7755432 7.32312848,16.010854 6.97979821,17.2907189 C6.88170385,17.6562324 6.57678401,17.9366108 6.19267957,18.0146513 L2.18676569,18.8296784 C2.10817201,19.5144487 2.06828424,20.2020568 2.06828424,20.8814351 C2.06828424,21.5715973 2.1090584,22.268854 2.18972034,22.9621379 L6.20124805,23.7780162 C6.58476157,23.855773 6.88938594,24.1355838 6.98807123,24.4996783 C7.33346976,25.7769892 7.86678404,27.0077595 8.57294527,28.1576513 C8.77267955,28.4825838 8.76352018,28.8881108 8.54930803,29.2039621 L6.31322927,32.5055027 C7.21321553,33.5850162 8.23434243,34.5649217 9.3609503,35.4290432 L12.8010488,33.2796649 C13.1299012,33.0742054 13.5509388,33.0648406 13.8892462,33.255827 C15.0861747,33.9320838 16.3652425,34.4417594 17.6904029,34.7712324 C18.0703708,34.8657324 18.3616993,35.1583135 18.4429521,35.5269487 L19.2921184,39.3781783 C20.7301464,39.5317054 22.1625605,39.5317054 23.6008839,39.3781783 L24.4500501,35.5269487 C24.5310075,35.1583135 24.822927,34.8657324 25.2025994,34.7712324 C26.5280552,34.4417594 27.8068276,33.9318 29.0037561,33.255827 C29.3420634,33.0651243 29.763101,33.0742054 30.0919535,33.2796649 L33.532052,35.4290432 C34.6583644,34.5652054 35.6794913,33.5853 36.5797731,32.5055027 L34.3436942,29.2039621 C34.1297776,28.8881108 34.1203228,28.4825838 34.3197616,28.1576513 C35.0262183,27.0080432 35.5592371,25.777273 35.9049311,24.4996783 C36.0036163,24.1355838 36.3085362,23.855773 36.6917542,23.7780162 L40.7035774,22.9621379 C40.7842394,22.268854 40.8250135,21.5715973 40.8250135,20.8814351 C40.8250135,20.2034757 40.7851258,19.5158676 40.7059411,18.8293946 L36.7006182,18.0146513 C36.3162183,17.9366108 36.0112985,17.6562324 35.9132041,17.2907189 C35.5704647,16.0117054 35.036855,14.7763946 34.3280346,13.6191243 C34.1294821,13.2944757 34.138937,12.8898 34.3525582,12.5739487 L36.5901143,9.27042165 C35.6921963,8.19119189 34.6740241,7.21213787 33.5521436,6.34915135 L30.1155907,8.49625945 C29.7861473,8.70200268 29.3642233,8.71108378 29.025916,8.51896213 C27.8216008,7.83646213 26.5330781,7.32196213 25.1960992,6.98993513 C24.8161312,6.89543513 24.5245073,6.60257027 24.4432545,6.23393513 L23.5946791,2.38440811 C22.1616741,2.23144865 20.7313282,2.23144865 19.2983232,2.38440811 Z M21.4465898,12.8780798 C26.0413653,12.8780798 29.7792925,16.4682284 29.7792925,20.88135 C29.7792925,25.2944716 26.0413653,28.884904 21.4465898,28.884904 C16.8518143,28.884904 13.1135916,25.2944716 13.1135916,20.88135 C13.1135916,16.4682284 16.8518143,12.8780798 21.4465898,12.8780798 Z M21.4465898,14.8645662 C17.992309,14.8645662 15.1818463,17.5639176 15.1818463,20.88135 C15.1818463,24.19935 17.992309,26.8984176 21.4465898,26.8984176 C24.9005751,26.8984176 27.7110378,24.19935 27.7110378,20.88135 C27.7110378,17.5639176 24.9005751,14.8645662 21.4465898,14.8645662 Z M21.4465898,16.8455189 C23.763626,16.8455189 25.6486924,18.6560595 25.6486924,20.8814919 C25.6486924,23.1069243 23.763626,24.9174649 21.4465898,24.9174649 C19.1295536,24.9174649 17.2444871,23.1069243 17.2444871,20.8814919 C17.2444871,18.6560595 19.1295536,16.8455189 21.4465898,16.8455189 Z M21.4465898,18.8320054 C20.2700483,18.8320054 19.3127419,19.7511811 19.3127419,20.8814919 C19.3127419,22.0115189 20.2700483,22.9309784 21.4465898,22.9309784 C22.6231312,22.9309784 23.5804377,22.0115189 23.5804377,20.8814919 C23.5804377,19.7511811 22.6231312,18.8320054 21.4465898,18.8320054 Z" id="Picto-admin"></path>
        </g>
    </g>
</svg>