<?xml version="1.0" encoding="UTF-8"?>
<svg width="43px" height="42px" viewBox="0 0 43 42" version="1.1" xmlns="http://www.w3.org/2000/svg" xmlns:xlink="http://www.w3.org/1999/xlink">
    <title>Untitled 3</title>
    <defs>
        <linearGradient x1="95.5449219%" y1="90.3990375%" x2="10.5722656%" y2="11.0636831%" id="linearGradient-1">
            <stop stop-color="#99EEE8" offset="0%"></stop>
            <stop stop-color="#0096D4" offset="100%"></stop>
        </linearGradient>
    </defs>
    <g id="Page-1" stroke="none" stroke-width="1" fill="none" fill-rule="evenodd">
        <g id="User_lab_actif" fill-rule="nonzero">
            <ellipse id="Page-active-Copy" fill="url(#linearGradient-1)" cx="30.5362322" cy="29.8260873" rx="12.4637681" ry="12.173913"></ellipse>
            <path d="M18.7318576,5.55777781 C22.4253449,1.59554692 26.2263643,-0.754186209 28.7547901,0.671672863 C31.3378846,2.12851244 31.0905862,6.67786177 29.3239116,11.923391 C30.0776687,12.1173341 30.7960975,12.3326864 31.4704303,12.569448 C35.2038876,13.8804525 37.2598935,15.7382755 37.2598935,17.8008722 C37.2598935,19.8632171 35.2038876,21.7210402 31.4704303,23.0320447 C30.7378186,23.28946 29.9520855,23.5204285 29.1266402,23.7272171 C29.483018,24.8777778 29.7656447,25.9880387 29.9616267,27.0368423 C30.9307062,32.223433 29.5673418,34.155307 28.2532309,34.8625694 C27.7557976,35.1300597 27.2140105,35.2559967 26.6384423,35.2559967 C24.2887211,35.2559967 21.3665263,33.1586414 18.5291709,30.0432111 C15.5755157,33.2120387 12.5527511,35.3496938 10.1671859,35.3496938 C9.5694408,35.3496938 9.01192355,35.2156968 8.50520687,34.9298198 C5.92211244,33.4729802 6.1694108,28.9236309 7.93608548,23.6781016 C7.18232833,23.4841586 6.46389953,23.2688063 5.78956672,23.0320447 C2.05610944,21.7210402 0.000103449275,19.8632171 0.000103449275,17.8008722 C0.000103449275,15.7382755 2.05610944,13.8804525 5.78956672,12.569448 C6.52217843,12.3120327 7.30791157,12.0813161 8.13335683,11.8742755 C7.776979,10.7237148 7.49435234,9.61320208 7.29837031,8.56439847 C6.32903296,3.37805967 7.69239732,1.4461856 9.0067661,0.738923237 C11.5341604,-0.621448575 15.199024,1.67816162 18.7318576,5.55777781 Z M9.69038228,24.0768183 C9.30228634,25.2178078 8.99129383,26.3167343 8.7705562,27.3516848 C8.10215441,30.4857538 8.34635833,32.8045064 9.40775562,33.4029592 C10.468895,34.0019157 12.6468741,33.0488243 15.0912339,30.9164585 C15.8403493,30.2628453 16.5995218,29.5160387 17.3584363,28.6944255 C16.3431979,27.4705694 15.3516836,26.1336219 14.4140645,24.7324465 C12.7577586,24.5936639 11.1708201,24.3730222 9.69038228,24.0768183 Z M27.3625442,24.1183775 C25.9164033,24.3989652 24.3707241,24.6072651 22.761093,24.7389952 C21.7886612,26.1424375 20.7628501,27.4811481 19.7158935,28.7087823 C20.4087931,29.4764945 21.1032399,30.1759487 21.790982,30.7945514 C24.2002714,32.9624315 26.2905742,33.9051961 27.3821424,33.3183296 C28.4737106,32.7309592 28.7741305,30.5011181 28.1859265,27.3536999 C27.9948441,26.3320987 27.7163434,25.2460177 27.3625442,24.1183775 Z M16.6704363,24.8692141 C17.2857166,25.7419577 17.9136327,26.5678528 18.5467062,27.3428693 C19.1967991,26.5691122 19.8422504,25.7442246 20.4768711,24.8742516 C19.867006,24.8956609 19.2506942,24.9069952 18.6299985,24.9069952 C17.9706222,24.9069952 17.3171769,24.8936459 16.6704363,24.8692141 Z M18.6299985,12.4576159 C17.5518396,12.4576159 16.5115877,12.4926264 15.5097586,12.5550912 C14.9568831,13.3847643 14.4156117,14.2436548 13.8923913,15.1289922 C13.3784543,15.9987133 12.8954618,16.8699457 12.4431559,17.7371481 C12.8766372,18.6146774 13.3413208,19.497496 13.8384963,20.3790552 C14.3555278,21.2958767 14.892931,22.1844884 15.4432279,23.0421196 C16.4656866,23.107355 17.5278576,23.1438767 18.6299985,23.1438767 C19.7081574,23.1438767 20.7484093,23.1088663 21.7502384,23.0464015 C22.3031139,22.2167283 22.8443853,21.3578378 23.3676057,20.4725005 C23.8815427,19.6027793 24.3645352,18.7315469 24.8168411,17.8643445 C24.3833598,16.9865634 23.918934,16.1037448 23.4215007,15.2221856 C22.9044692,14.305364 22.367066,13.4167523 21.8167691,12.559373 C20.7943104,12.4941376 19.7318816,12.4576159 18.6299985,12.4576159 Z M25.7640015,19.8924345 C25.492979,20.3840926 25.2155097,20.8724764 24.9308201,21.3540597 C24.6340105,21.8560447 24.3274018,22.3550072 24.0135727,22.8496879 C24.9898726,22.739367 25.9174348,22.6005844 26.7913598,22.4378738 C26.4857826,21.6046744 26.1425562,20.7540957 25.7640015,19.8924345 Z M11.4498366,19.7438288 C11.0279595,20.6450342 10.6439895,21.5356609 10.3017946,22.407397 C11.2120794,22.5814419 12.1837377,22.7285364 13.2074858,22.8451541 C12.8815367,22.3111811 12.5633238,21.7721706 12.2574888,21.2296339 C11.9782144,20.7347013 11.7100285,20.2392651 11.4498366,19.7438288 Z M28.7228141,13.5837448 C28.1766432,14.9992771 27.5345442,16.4450342 26.8197256,17.8787013 C27.490964,19.2965005 28.0760734,20.6976758 28.5660285,22.0565364 C32.857003,21.005466 35.4547961,19.349394 35.4547961,17.8008722 C35.4547961,16.2709892 32.9201814,14.6365784 28.7228141,13.5837448 Z M8.69396852,13.5449562 C4.40299401,14.5960267 1.8052009,16.2520987 1.8052009,17.8008722 C1.8052009,19.3305035 4.33981559,20.9649142 8.53718292,22.0177478 C9.08335384,20.6022156 9.72545277,19.1564585 10.4402714,17.7227913 C9.76903296,16.3047403 9.18392355,14.9038168 8.69396852,13.5449562 Z M18.6299211,14.2187697 C20.652146,14.2187697 22.2973634,15.8257262 22.2973634,17.8006708 C22.2973634,19.7758671 20.652146,21.3828237 18.6299211,21.3828237 C16.6076963,21.3828237 14.9624789,19.7758671 14.9624789,17.8006708 C14.9624789,15.8257262 16.6076963,14.2187697 18.6299211,14.2187697 Z M18.6299211,15.9818881 C17.6030786,15.9818881 16.7675763,16.7977083 16.7675763,17.8006708 C16.7675763,18.8038851 17.6030786,19.6197052 18.6299211,19.6197052 C19.6567637,19.6197052 20.492266,18.8038851 20.492266,17.8006708 C20.492266,16.7977083 19.6567637,15.9818881 18.6299211,15.9818881 Z M24.0538006,12.7565904 C24.3797496,13.2903115 24.6966732,13.8295739 25.0025082,14.3716069 C25.2817826,14.8665394 25.5499685,15.3622276 25.8101604,15.857412 C26.2320375,14.9562066 26.6160075,14.0658318 26.9582024,13.1940957 C26.0484333,13.0203025 25.077033,12.8732081 24.0538006,12.7565904 Z M13.2453928,12.7520567 C12.2696087,12.8621257 11.3423044,13.0009083 10.4686372,13.1636189 C10.7742144,13.9968183 11.1174408,14.847397 11.4959955,15.7090582 C11.7667601,15.2171481 12.0444873,14.7290162 12.3291769,14.247433 C12.6257286,13.7456999 12.9318216,13.2462336 13.2453928,12.7520567 Z M27.8522414,2.19853343 C26.791102,1.59982879 24.6131229,2.55292024 22.1687631,4.68503418 C21.4199055,5.3383955 20.6607331,6.08495022 19.9023343,6.90656339 C20.9173149,8.13016759 21.9093449,9.46812263 22.846964,10.8690461 C24.503012,11.0078288 26.0894348,11.2284705 27.5696147,11.5246744 C27.9574528,10.3836848 28.2687032,9.2847583 28.4894408,8.24955594 C29.1578426,5.11573883 28.9136387,2.79698621 27.8522414,2.19853343 Z M10.6280015,2.11188876 C10.343054,2.11188876 10.0913718,2.16830854 9.87785456,2.28316312 C8.78628634,2.87053343 8.4858666,5.10037451 9.07407045,8.24779279 C9.26515292,9.26939397 9.5436537,10.355475 9.8971949,11.4831151 C11.3435937,11.2025274 12.8892729,10.9942276 14.4986461,10.8624974 C15.4710779,9.45930702 16.4966312,8.11908513 17.5430719,6.8919547 C16.8506881,6.12424258 16.1564992,5.42529205 15.469015,4.80694123 C13.5308561,3.06346896 11.7995097,2.11188876 10.6280015,2.11188876 Z M18.7132908,8.25862337 C18.0631979,9.03238049 17.4177466,9.85726803 16.783126,10.7274929 C17.392991,10.7058318 18.009045,10.6944974 18.6299985,10.6944974 C19.2891169,10.6944974 19.9428201,10.7078468 20.5895608,10.7322786 C19.9742804,9.85953494 19.3463643,9.03363988 18.7132908,8.25862337 Z" id="Picto-laboratoire" fill="#394157"></path>
        </g>
    </g>
</svg>