<?xml version="1.0" encoding="UTF-8"?>
<svg width="30px" height="31px" viewBox="0 0 30 31" version="1.1" xmlns="http://www.w3.org/2000/svg" xmlns:xlink="http://www.w3.org/1999/xlink">
    <!-- Generator: Sketch 63.1 (92452) - https://sketch.com -->
    <title>Picto aide</title>
    <desc>Created with Sketch.</desc>
    <g id="Page-1" stroke="none" stroke-width="1" fill="none" fill-rule="evenodd">
        <g id="33_SAISIE-TOOLTIP" transform="translate(-800.000000, -377.000000)" fill="#394157">
            <g id="Données-1" transform="translate(239.000000, 372.000000)">
                <path d="M575.990297,5.20683448 C584.256021,5.20683448 590.980572,11.9313862 590.980572,20.1971103 C590.980572,28.4626276 584.256021,35.1871793 575.990297,35.1871793 C567.724572,35.1871793 561.000021,28.4626276 561.000021,20.1971103 C561.000021,11.9313862 567.724572,5.20683448 575.990297,5.20683448 Z M575.990297,6.65511034 C568.523193,6.65511034 562.448297,12.7300069 562.448297,20.1971103 C562.448297,27.6642138 568.523193,33.7389034 575.990297,33.7389034 C583.4574,33.7389034 589.532297,27.6642138 589.532297,20.1971103 C589.532297,12.7300069 583.4574,6.65511034 575.990297,6.65511034 Z M576.040903,28.0096069 C576.524214,28.0096069 576.916283,28.401469 576.916283,28.8849862 C576.916283,29.3685034 576.524214,29.7603655 576.040903,29.7603655 C575.557386,29.7603655 575.165317,29.3685034 575.165317,28.8849862 C575.165317,28.401469 575.557386,28.0096069 576.040903,28.0096069 Z M576.040821,11.9600621 C578.904062,11.9600621 581.23351,14.2895103 581.23351,17.1529586 C581.23351,19.7704069 579.286614,21.9419931 576.764959,22.2953724 L576.764959,24.952131 C576.764959,25.3520621 576.440752,25.676269 576.040821,25.676269 C575.64089,25.676269 575.316683,25.3520621 575.316683,24.952131 L575.316683,21.6215103 C575.316683,21.2217862 575.64089,20.8973724 576.040821,20.8973724 C578.105441,20.8973724 579.785234,19.2175793 579.785234,17.1529586 C579.785234,15.088131 578.105441,13.4083379 576.040821,13.4083379 C573.9762,13.4083379 572.2962,15.088131 572.2962,17.1529586 C572.2962,17.5526828 571.971993,17.8770966 571.572062,17.8770966 C571.172131,17.8770966 570.847924,17.5526828 570.847924,17.1529586 C570.847924,14.2895103 573.177579,11.9600621 576.040821,11.9600621 Z" id="Picto-aide"></path>
            </g>
        </g>
    </g>
</svg>