<?xml version="1.0" encoding="UTF-8"?>
<svg width="20px" height="16px" viewBox="0 0 20 16" version="1.1" xmlns="http://www.w3.org/2000/svg" xmlns:xlink="http://www.w3.org/1999/xlink">
    <title>Masquer</title>
    <defs>
        <polygon id="path-1" points="4.65534052e-05 1.03400927e-05 19.9918621 1.03400927e-05 19.9918621 15.0715448 4.65534052e-05 15.0715448"></polygon>
    </defs>
    <g id="Page-1" stroke="none" stroke-width="1" fill="none" fill-rule="evenodd">
        <g id="03_SAISIE-TABULAIRE" transform="translate(-359.000000, -888.000000)">
            <g id="Masquer" transform="translate(359.000000, 888.000000)">
                <mask id="mask-2" fill="white">
                    <use xlink:href="#path-1"></use>
                </mask>
                <g id="Clip-2"></g>
                <path d="M14.4393793,11.2976138 L13.0384138,9.89637241 C13.5913793,9.21471724 13.9235172,8.34726897 13.9235172,7.4034069 C13.9235172,5.21747586 12.1451724,3.43913103 9.95937931,3.43913103 C9.01593103,3.43913103 8.14875862,3.77113103 7.46724138,4.3234069 L6.2757931,3.13168276 C7.37096552,2.64368276 8.60668966,2.31954483 9.95937931,2.31954483 C14.7155172,2.31954483 18.0848966,6.31802759 18.9117931,7.40382069 C18.3775862,8.10754483 16.7817241,10.0290621 14.4393793,11.2976138 L14.4393793,11.2976138 Z M11.6530345,9.87609655 C11.1706897,10.2075448 10.5873793,10.4020276 9.95937931,10.4020276 C8.30586207,10.4020276 6.96075862,9.05678621 6.96075862,7.4034069 C6.96075862,6.7749931 7.15537931,6.19126897 7.48710345,5.70892414 L11.6530345,9.87609655 Z M12.3513793,9.20906207 L8.15427586,5.01071724 C8.65689655,4.63057931 9.28213793,4.40464828 9.95937931,4.40464828 C11.6128966,4.40464828 12.958,5.74988966 12.958,7.4034069 C12.958,8.08092414 12.7317931,8.70644138 12.3513793,9.20906207 L12.3513793,9.20906207 Z M9.99593103,12.4869931 C5.26848276,12.4869931 1.90255172,8.48423448 1.07855172,7.40092414 C1.59289655,6.71361379 3.11386207,4.85747586 5.3682069,3.58933793 L6.79593103,5.01761379 C6.29372414,5.68188966 5.99524138,6.50823448 5.99524138,7.4034069 C5.99524138,9.5892 7.77358621,11.3675448 9.95937931,11.3675448 C10.854,11.3675448 11.680069,11.0693379 12.3442069,10.5675448 L13.5182759,11.7421655 C12.4603448,12.1918207 11.2793793,12.4869931 9.99593103,12.4869931 L9.99593103,12.4869931 Z M19.9098621,7.13402759 C19.7512414,6.89816552 15.956069,1.35402759 9.95937931,1.35402759 C8.30324138,1.35402759 6.82089655,1.77733793 5.53868966,2.39416552 L3.28641379,0.141337931 C3.09813793,-0.0470758621 2.79248276,-0.0470758621 2.60365517,0.1412 C2.41524138,0.329751724 2.41510345,0.635406897 2.60365517,0.823958621 L4.64862069,2.86947586 C1.82765517,4.53057931 0.182,6.98244138 0.0796551724,7.13775172 C-0.0273793103,7.30023448 -0.0264137931,7.51113103 0.082137931,7.67264828 C0.240758621,7.90864828 4.03551724,13.4525103 9.99593103,13.4525103 C11.5788276,13.4525103 13.0088966,13.0614759 14.2588276,12.4828552 L16.7054483,14.9301655 C16.7996552,15.0245103 16.9233793,15.0715448 17.0468276,15.0715448 C17.1704138,15.0715448 17.2938621,15.0245103 17.3882069,14.9303034 C17.5767586,14.7417517 17.5767586,14.4360966 17.3883448,14.2475448 L15.1593793,12.0178897 C18.0738621,10.3578897 19.803931,7.83030345 19.9098621,7.67264828 C20.0192414,7.50975172 20.0192414,7.29692414 19.9098621,7.13402759 L19.9098621,7.13402759 Z" id="Fill-1" fill="#394157" mask="url(#mask-2)"></path>
            </g>
        </g>
    </g>
</svg>