<?xml version="1.0" encoding="utf-8"?>
<!-- Generator: Adobe Illustrator 21.0.0, SVG Export Plug-In . SVG Version: 6.00 Build 0)  -->
<svg version="1.1" id="Calque_1" xmlns="http://www.w3.org/2000/svg" xmlns:xlink="http://www.w3.org/1999/xlink" x="0px" y="0px"
	 viewBox="0 0 527.2 215.4" style="enable-background:new 0 0 527.2 215.4;" xml:space="preserve">
<style type="text/css">
	.st0{enable-background:new    ;}
</style>
<g class="st0">
	<path d="M27,99.9c0,2.9-1.1,5.3-3.1,7.2c-2.1,1.9-4.8,2.9-8,2.9H8.4v10.9H3.7v-31h12.1c3.2,0,5.9,0.9,8,2.8
		C25.9,94.6,27,97,27,99.9z M22.1,99.8c0-1.8-0.6-3.2-1.7-4.3c-1.1-1.1-2.7-1.6-4.6-1.6H8.4v11.8h7.5c1.9,0,3.5-0.5,4.6-1.6
		S22.1,101.6,22.1,99.8z"/>
	<path d="M46.9,121.3c-4.6,0-8.3-1.5-11.3-4.5c-3-3-4.5-6.8-4.5-11.4c0-4.6,1.5-8.4,4.5-11.5c3-3,6.8-4.5,11.3-4.5
		c4.6,0,8.3,1.5,11.3,4.5c3,3,4.5,6.8,4.5,11.4c0,4.6-1.5,8.4-4.5,11.5C55.2,119.8,51.4,121.3,46.9,121.3z M46.9,117.1
		c3.3,0,5.9-1.1,7.9-3.2c2-2.2,3-5,3-8.5c0-3.5-1-6.3-3-8.5c-2-2.2-4.7-3.2-7.9-3.2c-3.3,0-6,1.1-8,3.2c-2,2.2-3,5-3,8.5
		c0,3.5,1,6.3,3,8.5C41,116,43.6,117.1,46.9,117.1z"/>
	<path d="M96.3,115.9l8.4-26.1h4.7l-10.4,31h-5.4l-6.7-19.6l-6.9,19.6h-5.1l-10.4-31h5l8.3,26.1L85,95.5h4.5L96.3,115.9z"/>
	<path d="M134.1,89.8V94h-16v9h11.8v4.1h-11.8v9.7h16v4.1h-20.6v-31H134.1z"/>
	<path d="M164.4,120.9H159l-7.6-12.8h-6.8v12.8H140v-31h12.1c3.2,0,5.8,0.8,7.8,2.5c2.1,1.7,3.1,3.8,3.1,6.5c0,2-0.6,3.8-1.9,5.4
		c-1.2,1.5-2.9,2.6-5.1,3.3L164.4,120.9z M158.2,99c0-1.5-0.6-2.7-1.7-3.6c-1.1-0.9-2.6-1.4-4.4-1.4h-7.4v10.1h7.4
		c1.8,0,3.3-0.5,4.4-1.4C157.6,101.7,158.2,100.5,158.2,99z"/>
	<path d="M190,89.8V94h-16v9h11.8v4.1h-11.8v9.7h16v4.1h-20.6v-31H190z"/>
	<path d="M207.2,120.9H196v-31h11.5c4.5,0,8.2,1.5,11.1,4.4s4.4,6.6,4.4,11.1c0,4.6-1.5,8.3-4.4,11.2
		C215.6,119.4,211.8,120.9,207.2,120.9z M218.2,105.3c0-3.4-1-6.2-3-8.2c-2-2.1-4.6-3.1-7.9-3.1h-6.7v22.8h6.7c3.3,0,6-1,7.9-3.1
		C217.2,111.6,218.2,108.8,218.2,105.3z"/>
	<path d="M239.6,120.9v-31h12.1c3.1,0,5.5,0.7,7.4,2.2c1.9,1.5,2.8,3.4,2.8,5.8c0,1.6-0.4,3-1.3,4.2s-2,2.1-3.5,2.6
		c1.9,0.4,3.4,1.3,4.5,2.6s1.6,3,1.6,4.9c0,2.6-1,4.8-3.1,6.3s-4.7,2.4-8.1,2.4H239.6z M257.2,98.3c0-1.4-0.5-2.5-1.5-3.3
		c-1-0.8-2.4-1.2-4.2-1.2h-7.3v9.2h7.8c1.5,0,2.8-0.4,3.7-1.3C256.7,100.8,257.2,99.7,257.2,98.3z M244.2,106.7V117h7.7
		c2.1,0,3.7-0.5,4.8-1.3c1.1-0.9,1.7-2.2,1.7-3.8c0-1.6-0.5-2.8-1.6-3.7c-1-0.9-2.5-1.4-4.3-1.4H244.2z"/>
	<path d="M288.6,89.8h5.2l-12.2,18.4v12.7h-4.7v-12.7l-12.2-18.4h5l9.4,14.3L288.6,89.8z"/>
</g>
<g>
	<path d="M482.1,20.8l-2.8-2.9L403.1,0l-3.7,1.1l-48.8,52.2l-0.9,3.5l16.8,74.4l2.9,2.9l76.4,17.6l3.7-1.1l49.1-52.3l0.9-3.5
		L482.1,20.8z M421.3,35.9l48.2,47L405,101.5L421.3,35.9z M397.6,99l-37.7-41.7L413.5,35L397.6,99z M427.8,31.4l46.8-5.4l-1.4,49.7
		L427.8,31.4z M456.3,20.5l-35.1,4.2l-10-14.8L456.3,20.5z M401.8,9.9l11.5,16.9l-44.8,18.6L401.8,9.9z M360.3,69.4l33.7,37.1
		l-21.4,16.9L360.3,69.4z M378.8,128.3l20.6-16.3l32.9,28.6L378.8,128.3z M445.3,141.7l-37.9-32.9l62.2-18L445.3,141.7z M460.9,127
		l17.7-37l10.9,6.3L460.9,127z M480.7,82.5L480.7,82.5l0.8-30.5l8.5,35.7L480.7,82.5z"/>
	<g class="st0">
		<path d="M330.3,172.3c2.6-2,5.6-3,9-3c2,0,3.9,0.4,5.8,1.2c1.8,0.8,3.4,1.9,4.8,3.2c1.4,1.4,2.5,2.9,3.3,4.8
			c0.8,1.8,1.2,3.8,1.2,5.9v14.2c0,0.8-0.3,1.6-0.9,2.1c-0.6,0.6-1.3,0.9-2.1,0.9c-0.8,0-1.6-0.3-2.1-0.9s-0.9-1.3-0.9-2.1v-14.2
			c0-1.2-0.2-2.4-0.7-3.5s-1.1-2.1-1.9-2.9c-0.8-0.8-1.8-1.5-2.9-1.9s-2.3-0.7-3.5-0.7c-1.2,0-2.4,0.2-3.5,0.7s-2,1.1-2.9,1.9
			s-1.5,1.8-1.9,2.9s-0.7,2.3-0.7,3.5v14.2c0,0.8-0.3,1.6-0.9,2.1c-0.6,0.6-1.3,0.9-2.1,0.9c-0.8,0-1.6-0.3-2.1-0.9
			s-0.9-1.3-0.9-2.1v-26.2c0-0.8,0.3-1.5,0.9-2.1s1.3-0.9,2.1-0.9c0.8,0,1.5,0.3,2.1,0.9C330,170.8,330.3,171.5,330.3,172.3z"/>
		<path d="M391.2,185.4c0,4.5-1.6,8.3-4.7,11.4c-3.2,3.2-7,4.7-11.4,4.7c-4.5,0-8.3-1.6-11.4-4.7c-3.2-3.2-4.7-7-4.7-11.4
			c0-4.5,1.6-8.3,4.7-11.4c3.2-3.2,7-4.7,11.4-4.7c4.4,0,8.2,1.6,11.4,4.7c1.6,1.6,2.8,3.3,3.5,5.2S391.2,183.2,391.2,185.4z
			 M375,175.3c-1.4,0-2.7,0.3-4,0.8c-1.2,0.5-2.3,1.3-3.2,2.2c-0.9,0.9-1.6,2-2.1,3.2c-0.5,1.2-0.8,2.5-0.8,3.9
			c0,1.4,0.3,2.7,0.8,3.9c0.5,1.2,1.2,2.3,2.1,3.2c0.9,0.9,2,1.6,3.2,2.2c1.2,0.5,2.6,0.8,4,0.8c1.4,0,2.7-0.3,3.9-0.8
			c1.2-0.5,2.3-1.3,3.2-2.2c0.9-0.9,1.6-2,2.2-3.2c0.5-1.2,0.8-2.5,0.8-3.9c0-1.4-0.3-2.7-0.8-3.9c-0.5-1.2-1.2-2.3-2.2-3.2
			c-0.9-0.9-2-1.7-3.2-2.2C377.8,175.6,376.4,175.3,375,175.3z"/>
		<path d="M411.9,169.3c3.8,0,7.2,1.2,10.1,3.5v-14.4c0-0.9,0.3-1.6,0.9-2.1c0.6-0.6,1.3-0.9,2.1-0.9c0.8,0,1.6,0.3,2.1,0.9
			c0.6,0.6,0.9,1.3,0.9,2.1v27c0,4.5-1.6,8.3-4.7,11.4c-3.2,3.2-7,4.7-11.4,4.7c-4.5,0-8.3-1.6-11.4-4.7c-3.2-3.2-4.7-7-4.7-11.4
			c0-4.5,1.6-8.3,4.7-11.4C403.7,170.9,407.5,169.3,411.9,169.3z M422,185.4c0-1.4-0.3-2.7-0.8-3.9c-0.5-1.2-1.2-2.3-2.2-3.2
			c-0.9-0.9-2-1.7-3.2-2.2c-1.2-0.5-2.5-0.8-3.9-0.8c-1.4,0-2.7,0.3-4,0.8c-1.2,0.5-2.3,1.3-3.2,2.2c-0.9,0.9-1.6,2-2.1,3.2
			c-0.5,1.2-0.8,2.5-0.8,3.9c0,1.4,0.3,2.7,0.8,3.9c0.5,1.2,1.2,2.3,2.1,3.2c0.9,0.9,2,1.6,3.2,2.2c1.2,0.5,2.6,0.8,4,0.8
			c1.4,0,2.7-0.3,3.9-0.8c1.2-0.5,2.3-1.3,3.2-2.2c0.9-0.9,1.6-2,2.2-3.2C421.8,188.1,422,186.8,422,185.4z"/>
		<path d="M458.9,198.6V198c-1.4,1.2-3,2-4.7,2.7c-1.7,0.6-3.5,0.9-5.4,0.9c-4.5,0-8.3-1.6-11.4-4.7c-3.2-3.2-4.7-7-4.7-11.4
			c0-4.5,1.6-8.3,4.7-11.4c3.2-3.2,7-4.7,11.4-4.7c4.4,0,8.2,1.6,11.4,4.7c3.2,3.2,4.7,7,4.7,11.4v13.1c0,0.8-0.3,1.5-0.9,2.1
			s-1.3,0.9-2.1,0.9c-0.8,0-1.6-0.3-2.1-0.9S458.9,199.4,458.9,198.6z M448.8,175.3c-1.4,0-2.7,0.3-4,0.8c-1.2,0.5-2.3,1.3-3.2,2.2
			c-0.9,0.9-1.6,2-2.1,3.2c-0.5,1.2-0.8,2.5-0.8,3.9c0,1.4,0.3,2.7,0.8,3.9c0.5,1.2,1.2,2.3,2.1,3.2c0.9,0.9,2,1.6,3.2,2.2
			c1.2,0.5,2.6,0.8,4,0.8c1.4,0,2.7-0.3,3.9-0.8c1.2-0.5,2.3-1.3,3.2-2.2c0.9-0.9,1.6-2,2.2-3.2c0.5-1.2,0.8-2.5,0.8-3.9
			c0-1.4-0.3-2.7-0.8-3.9c-0.5-1.2-1.2-2.3-2.2-3.2c-0.9-0.9-2-1.7-3.2-2.2C451.5,175.6,450.2,175.3,448.8,175.3z"/>
		<path d="M472.4,169.3h1.4v-10.8c0-0.8,0.3-1.5,0.9-2.1c0.6-0.6,1.3-0.9,2.1-0.9c0.8,0,1.5,0.3,2.1,0.9c0.6,0.6,0.9,1.3,0.9,2.1
			v10.8h3.6c0.8,0,1.5,0.3,2.1,0.9c0.6,0.6,0.9,1.3,0.9,2.1c0,0.8-0.3,1.6-0.9,2.1c-0.6,0.6-1.3,0.9-2.1,0.9h-3.6v14.5
			c0,3.8,1.9,5.7,5.8,5.7c0.8,0,1.5,0.3,2.1,0.9s0.9,1.3,0.9,2.1c0,0.8-0.3,1.6-0.9,2.1s-1.3,0.9-2.1,0.9c-7.9,0-11.8-3.9-11.8-11.8
			v-14.5h-1.4c-0.8,0-1.5-0.3-2.1-0.9c-0.6-0.6-0.9-1.3-0.9-2.1c0-0.8,0.3-1.5,0.9-2.1C470.9,169.6,471.6,169.3,472.4,169.3z"/>
		<path d="M518.9,198.6V198c-1.4,1.2-3,2-4.7,2.7c-1.7,0.6-3.5,0.9-5.4,0.9c-4.5,0-8.3-1.6-11.4-4.7s-4.7-7-4.7-11.4
			c0-4.5,1.6-8.3,4.7-11.4c3.2-3.2,7-4.7,11.4-4.7c4.4,0,8.2,1.6,11.4,4.7c3.2,3.2,4.7,7,4.7,11.4v13.1c0,0.8-0.3,1.5-0.9,2.1
			s-1.3,0.9-2.1,0.9c-0.8,0-1.6-0.3-2.1-0.9C519.2,200.1,518.9,199.4,518.9,198.6z M508.8,175.3c-1.4,0-2.7,0.3-4,0.8
			c-1.2,0.5-2.3,1.3-3.2,2.2s-1.6,2-2.1,3.2c-0.5,1.2-0.8,2.5-0.8,3.9c0,1.4,0.3,2.7,0.8,3.9c0.5,1.2,1.2,2.3,2.1,3.2
			c0.9,0.9,2,1.6,3.2,2.2c1.2,0.5,2.6,0.8,4,0.8c1.4,0,2.7-0.3,3.9-0.8c1.2-0.5,2.3-1.3,3.2-2.2s1.6-2,2.2-3.2
			c0.5-1.2,0.8-2.5,0.8-3.9c0-1.4-0.3-2.7-0.8-3.9s-1.2-2.3-2.2-3.2c-0.9-0.9-2-1.7-3.2-2.2C511.5,175.6,510.2,175.3,508.8,175.3z"
			/>
	</g>
</g>
</svg>
