<?xml version="1.0" encoding="UTF-8"?>
<svg width="20px" height="16px" viewBox="0 0 20 16" version="1.1" xmlns="http://www.w3.org/2000/svg" xmlns:xlink="http://www.w3.org/1999/xlink">
    <title>Afficher</title>
    <g id="Page-1" stroke="none" stroke-width="1" fill="none" fill-rule="evenodd">
        <g id="03_SAISIE-TABULAIRE" transform="translate(-382.000000, -888.000000)">
            <g id="Afficher" transform="translate(382.000000, 888.000000)">
                <path d="M17.046869,15.0715862 C16.9232828,15.0715862 16.7996966,15.0244138 16.7053517,14.9302069 L2.60369655,0.824 C2.41514483,0.635448276 2.41514483,0.329793103 2.60369655,0.141241379 C2.79238621,-0.0470344828 3.09817931,-0.0470344828 3.28645517,0.14137931 L17.3883862,14.2474483 C17.5768,14.4361379 17.5768,14.7416552 17.3882483,14.9303448 C17.2939034,15.0244138 17.1704552,15.0715862 17.046869,15.0715862" id="Fill-1" fill="#FFFFFF"></path>
                <path d="M9.95943448,1.35411034 C15.9561241,1.35411034 19.7511586,6.89811034 19.9099172,7.13411034 C20.0192966,7.2970069 20.0192966,7.50969655 19.9099172,7.6725931 L19.7120011,7.94961556 C18.8466406,9.11413707 15.268782,13.4524552 9.99598621,13.4524552 C4.03557241,13.4524552 0.240675862,7.9085931 0.0820551724,7.6725931 C-0.0264965517,7.51107586 -0.027462069,7.30017931 0.0797103448,7.13769655 L0.222431959,6.93191509 C0.972590471,5.88603092 4.53673156,1.35411034 9.95943448,1.35411034 Z M9.95943448,2.31962759 C5.20522759,2.31962759 1.8901931,6.31631724 1.07846897,7.40086897 L1.20982492,7.57027924 C2.21853677,8.84786966 5.48841925,12.4869379 9.99598621,12.4869379 C14.7297793,12.4869379 18.086469,8.49107586 18.9117103,7.40376552 L18.7019068,7.13634787 C17.6079364,5.77964512 14.3837488,2.31962759 9.95943448,2.31962759 Z M9.95937931,3.43917241 C12.1451724,3.43917241 13.9235172,5.21751724 13.9235172,7.40331034 C13.9235172,9.58924138 12.1451724,11.3674483 9.95937931,11.3674483 C7.77358621,11.3674483 5.99524138,9.58924138 5.99524138,7.40331034 C5.99524138,5.21751724 7.77358621,3.43917241 9.95937931,3.43917241 Z M9.95937931,4.40468966 C8.30586207,4.40468966 6.96075862,5.74993103 6.96075862,7.40331034 C6.96075862,9.05682759 8.30586207,10.401931 9.95937931,10.401931 C11.6128966,10.401931 12.958,9.05682759 12.958,7.40331034 C12.958,5.74993103 11.6128966,4.40468966 9.95937931,4.40468966 Z" id="Shape" fill="#394157"></path>
            </g>
        </g>
    </g>
</svg>